<svg width="34" height="34" viewBox="0 0 34 34" fill="none" xmlns="http://www.w3.org/2000/svg">
<path d="M29.2188 3.71875H4.78125C4.19355 3.71875 3.71875 4.19355 3.71875 4.78125V29.2188C3.71875 29.8064 4.19355 30.2812 4.78125 30.2812H29.2188C29.8064 30.2812 30.2812 29.8064 30.2812 29.2188V4.78125C30.2812 4.19355 29.8064 3.71875 29.2188 3.71875ZM12.2188 24.7031C12.2188 24.8492 12.0992 24.9688 11.9531 24.9688H9.29688C9.15078 24.9688 9.03125 24.8492 9.03125 24.7031V9.29688C9.03125 9.15078 9.15078 9.03125 9.29688 9.03125H11.9531C12.0992 9.03125 12.2188 9.15078 12.2188 9.29688V24.7031ZM18.5938 15.4062C18.5938 15.5523 18.4742 15.6719 18.3281 15.6719H15.6719C15.5258 15.6719 15.4062 15.5523 15.4062 15.4062V9.29688C15.4062 9.15078 15.5258 9.03125 15.6719 9.03125H18.3281C18.4742 9.03125 18.5938 9.15078 18.5938 9.29688V15.4062ZM24.9688 17.7969C24.9688 17.943 24.8492 18.0625 24.7031 18.0625H22.0469C21.9008 18.0625 21.7812 17.943 21.7812 17.7969V9.29688C21.7812 9.15078 21.9008 9.03125 22.0469 9.03125H24.7031C24.8492 9.03125 24.9688 9.15078 24.9688 9.29688V17.7969Z" fill="white"/>
</svg>
