<svg width="34" height="34" viewBox="0 0 34 34" fill="none" xmlns="http://www.w3.org/2000/svg">
<path d="M22.9182 29.4844C21.0694 30.3635 19.0472 30.8173 17 30.8125C9.38403 30.8125 3.18753 24.616 3.18753 17C3.18753 13.7328 4.31059 10.6473 6.37503 8.17275V10.625H8.50003V4.25H2.12503V6.375H5.14465C2.51027 9.28596 1.05491 13.074 1.06253 17C1.06253 25.7879 8.21209 32.9375 17 32.9375C19.3633 32.9424 21.6977 32.4182 23.8319 31.4032L22.9182 29.4844Z" fill="white"/>
<path d="M22.3125 9.5625C18.955 9.5625 16.2021 12.1731 15.9609 15.47C14.7928 14.4042 13.2688 13.813 11.6875 13.8125H7.4375V18.0625C7.4375 21.5783 10.2977 24.4375 13.8125 24.4375H15.9375V28.6875H18.0625V20.1875H20.1875C23.7023 20.1875 26.5625 17.3283 26.5625 13.8125V9.5625H22.3125ZM13.8125 22.3125C11.4686 22.3125 9.5625 20.4064 9.5625 18.0625V15.9375H11.6875C14.0314 15.9375 15.9375 17.8436 15.9375 20.1875V20.8101L13.5012 18.3738L11.9988 19.8762L14.4351 22.3125H13.8125ZM24.4375 13.8125C24.4375 16.1564 22.5314 18.0625 20.1875 18.0625H19.5649L22.0012 15.6262L20.4988 14.1238L18.0625 16.5601V15.9375C18.0625 13.5936 19.9686 11.6875 22.3125 11.6875H24.4375V13.8125Z" fill="white"/>
<path d="M32.9373 17C32.9373 8.2121 25.7878 1.06253 16.9998 1.06253C14.6366 1.05761 12.3022 1.58185 10.168 2.59678L11.0817 4.51566C12.9305 3.63655 14.9527 3.18273 16.9998 3.18753C24.6158 3.18753 30.8123 9.38403 30.8123 17C30.8123 20.2672 29.6893 23.3527 27.6248 25.8273V23.375H25.4998V29.75H31.8748V27.625H28.8552C31.4896 24.7141 32.945 20.9261 32.9373 17Z" fill="white"/>
</svg>
