<svg width="34" height="34" viewBox="0 0 34 34" fill="none" xmlns="http://www.w3.org/2000/svg">
<path d="M15.5172 15.7628C14.2096 15.7628 12.9314 15.375 11.8442 14.6486C10.757 13.9221 9.90968 12.8896 9.4093 11.6816C8.90892 10.4736 8.778 9.14431 9.03309 7.86188C9.28818 6.57945 9.91783 5.40146 10.8424 4.47688C11.767 3.5523 12.945 2.92265 14.2274 2.66756C15.5098 2.41247 16.8391 2.54339 18.0471 3.04377C19.2552 3.54415 20.2877 4.39151 21.0141 5.4787C21.7405 6.5659 22.1283 7.84409 22.1283 9.15164C22.1283 10.905 21.4318 12.5866 20.1919 13.8264C18.9521 15.0662 17.2705 15.7628 15.5172 15.7628ZM15.5172 4.50497C14.5832 4.50497 13.6702 4.78193 12.8936 5.30081C12.1171 5.8197 11.5118 6.55721 11.1544 7.42008C10.797 8.28295 10.7035 9.23244 10.8857 10.1485C11.0679 11.0645 11.5176 11.9059 12.1781 12.5663C12.8385 13.2267 13.6799 13.6765 14.5959 13.8587C15.5119 14.0409 16.4614 13.9474 17.3243 13.59C18.1872 13.2325 18.9247 12.6273 19.4436 11.8507C19.9624 11.0742 20.2394 10.1612 20.2394 9.2272C20.2394 8.60707 20.1172 7.99301 19.8799 7.42008C19.6426 6.84715 19.2948 6.32658 18.8563 5.88808C18.4178 5.44958 17.8972 5.10175 17.3243 4.86443C16.7514 4.62712 16.1373 4.50497 15.5172 4.50497ZM20.7777 16.9055C15.6668 15.7548 10.3197 16.3087 5.55328 18.4828C4.89774 18.7959 4.34464 19.2888 3.9584 19.9041C3.57215 20.5194 3.36866 21.2318 3.37161 21.9583V27.5778C3.37161 27.7018 3.39604 27.8246 3.44351 27.9392C3.49097 28.0538 3.56054 28.1579 3.64824 28.2456C3.73593 28.3333 3.84005 28.4028 3.95463 28.4503C4.06922 28.4978 4.19203 28.5222 4.31606 28.5222C4.44008 28.5222 4.5629 28.4978 4.67748 28.4503C4.79207 28.4028 4.89618 28.3333 4.98388 28.2456C5.07158 28.1579 5.14115 28.0538 5.18861 27.9392C5.23607 27.8246 5.2605 27.7018 5.2605 27.5778V21.9583C5.25228 21.5906 5.35157 21.2286 5.54618 20.9165C5.74079 20.6045 6.02226 20.356 6.35606 20.2016C9.22732 18.8755 12.3545 18.1953 15.5172 18.2089C17.2892 18.2068 19.0552 18.416 20.7777 18.8322V16.9055ZM20.9099 25.8872H26.7088V27.2094H20.9099V25.8872Z" fill="white"/>
<path d="M31.3274 20.2772H26.4447V22.1661H30.383V30.0711H17.0002V22.1661H22.9502V22.5628C22.9502 22.8133 23.0497 23.0535 23.2268 23.2306C23.404 23.4077 23.6442 23.5072 23.8947 23.5072C24.1451 23.5072 24.3854 23.4077 24.5625 23.2306C24.7396 23.0535 24.8391 22.8133 24.8391 22.5628V18.8889C24.8391 18.6384 24.7396 18.3982 24.5625 18.2211C24.3854 18.044 24.1451 17.9445 23.8947 17.9445C23.6442 17.9445 23.404 18.044 23.2268 18.2211C23.0497 18.3982 22.9502 18.6384 22.9502 18.8889V20.2772H16.0558C15.8053 20.2772 15.5651 20.3767 15.3879 20.5539C15.2108 20.731 15.1113 20.9712 15.1113 21.2217V31.0156C15.1113 31.2661 15.2108 31.5063 15.3879 31.6834C15.5651 31.8605 15.8053 31.96 16.0558 31.96H31.3274C31.5779 31.96 31.8181 31.8605 31.9953 31.6834C32.1724 31.5063 32.2719 31.2661 32.2719 31.0156V21.2217C32.2719 20.9712 32.1724 20.731 31.9953 20.5539C31.8181 20.3767 31.5779 20.2772 31.3274 20.2772Z" fill="white"/>
</svg>
