<svg width="34" height="34" viewBox="0 0 34 34" fill="none" xmlns="http://www.w3.org/2000/svg">
<path d="M2.83317 26.9167V11.3333H1.4165V8.5H5.6665V5.66667C5.6665 5.29094 5.81576 4.93061 6.08144 4.66493C6.34711 4.39926 6.70745 4.25 7.08317 4.25H26.9165C27.2922 4.25 27.6526 4.39926 27.9182 4.66493C28.1839 4.93061 28.3332 5.29094 28.3332 5.66667V8.5H32.5832V11.3333H31.1665V26.9167H32.5832V29.75H1.4165V26.9167H2.83317ZM18.4165 26.9167V17H15.5832V26.9167H18.4165ZM11.3332 26.9167V17H8.49984V26.9167H11.3332ZM25.4998 26.9167V17H22.6665V26.9167H25.4998ZM8.49984 7.08333V8.5H25.4998V7.08333H8.49984Z" fill="white"/>
</svg>
