<svg width="34" height="34" viewBox="0 0 34 34" fill="none" xmlns="http://www.w3.org/2000/svg">
<g clip-path="url(#clip0_217_57)">
<path d="M7.41483 10.9509C8.43638 9.3324 9.85116 7.99899 11.5272 7.07499C13.2033 6.15099 15.0861 5.6665 17 5.66671C18.9141 5.66626 20.7972 6.15064 22.4736 7.07465C24.1499 7.99866 25.5649 9.3322 26.5866 10.9509L28.9808 9.43504C27.7035 7.4127 25.9349 5.7467 23.84 4.59234C21.745 3.43799 19.3919 2.83286 17 2.83337C14.6083 2.8331 12.2555 3.43834 10.1608 4.59269C8.06615 5.74703 6.29783 7.41291 5.02067 9.43504L7.41483 10.9509ZM17 28.3334C15.0861 28.3336 13.2033 27.8491 11.5272 26.9251C9.85116 26.0011 8.43638 24.6677 7.41483 23.0492L5.02067 24.565C6.29783 26.5872 8.06615 28.253 10.1608 29.4074C12.2555 30.5617 14.6083 31.167 17 31.1667C19.3919 31.1672 21.745 30.5621 23.84 29.4077C25.9349 28.2534 27.7035 26.5874 28.9808 24.565L26.5866 23.0492C25.5649 24.6679 24.1499 26.0014 22.4736 26.9254C20.7972 27.8494 18.9141 28.3338 17 28.3334ZM17 11.3334C17.3757 11.3334 17.7361 11.4826 18.0017 11.7483C18.2674 12.014 18.4167 12.3743 18.4167 12.75C18.4167 13.1258 18.2674 13.4861 18.0017 13.7518C17.7361 14.0175 17.3757 14.1667 17 14.1667C16.6243 14.1667 16.2639 14.0175 15.9983 13.7518C15.7326 13.4861 15.5833 13.1258 15.5833 12.75C15.5833 12.3743 15.7326 12.014 15.9983 11.7483C16.2639 11.4826 16.6243 11.3334 17 11.3334ZM17 17C18.1272 17 19.2082 16.5523 20.0052 15.7552C20.8022 14.9582 21.25 13.8772 21.25 12.75C21.25 11.6229 20.8022 10.5419 20.0052 9.74484C19.2082 8.94781 18.1272 8.50004 17 8.50004C15.8728 8.50004 14.7918 8.94781 13.9948 9.74484C13.1978 10.5419 12.75 11.6229 12.75 12.75C12.75 13.8772 13.1978 14.9582 13.9948 15.7552C14.7918 16.5523 15.8728 17 17 17ZM17 21.25C16.2486 21.25 15.5279 21.5486 14.9965 22.0799C14.4652 22.6113 14.1667 23.3319 14.1667 24.0834H11.3333C11.3333 22.5805 11.9304 21.1391 12.9931 20.0764C14.0558 19.0137 15.4971 18.4167 17 18.4167C18.5029 18.4167 19.9442 19.0137 21.0069 20.0764C22.0696 21.1391 22.6667 22.5805 22.6667 24.0834H19.8333C19.8333 23.3319 19.5348 22.6113 19.0035 22.0799C18.4721 21.5486 17.7514 21.25 17 21.25ZM4.25 15.5834C3.87428 15.5834 3.51394 15.7326 3.24827 15.9983C2.98259 16.264 2.83333 16.6243 2.83333 17C2.83333 17.3758 2.98259 17.7361 3.24827 18.0018C3.51394 18.2675 3.87428 18.4167 4.25 18.4167C4.62572 18.4167 4.98606 18.2675 5.25173 18.0018C5.51741 17.7361 5.66667 17.3758 5.66667 17C5.66667 16.6243 5.51741 16.264 5.25173 15.9983C4.98606 15.7326 4.62572 15.5834 4.25 15.5834ZM0 17C0 15.8729 0.447767 14.7919 1.2448 13.9948C2.04183 13.1978 3.12283 12.75 4.25 12.75C5.37717 12.75 6.45817 13.1978 7.2552 13.9948C8.05223 14.7919 8.5 15.8729 8.5 17C8.5 18.1272 8.05223 19.2082 7.2552 20.0052C6.45817 20.8023 5.37717 21.25 4.25 21.25C3.12283 21.25 2.04183 20.8023 1.2448 20.0052C0.447767 19.2082 0 18.1272 0 17ZM28.3333 17C28.3333 16.6243 28.4826 16.264 28.7483 15.9983C29.0139 15.7326 29.3743 15.5834 29.75 15.5834C30.1257 15.5834 30.4861 15.7326 30.7517 15.9983C31.0174 16.264 31.1667 16.6243 31.1667 17C31.1667 17.3758 31.0174 17.7361 30.7517 18.0018C30.4861 18.2675 30.1257 18.4167 29.75 18.4167C29.3743 18.4167 29.0139 18.2675 28.7483 18.0018C28.4826 17.7361 28.3333 17.3758 28.3333 17ZM29.75 12.75C28.6228 12.75 27.5418 13.1978 26.7448 13.9948C25.9478 14.7919 25.5 15.8729 25.5 17C25.5 18.1272 25.9478 19.2082 26.7448 20.0052C27.5418 20.8023 28.6228 21.25 29.75 21.25C30.8772 21.25 31.9582 20.8023 32.7552 20.0052C33.5522 19.2082 34 18.1272 34 17C34 15.8729 33.5522 14.7919 32.7552 13.9948C31.9582 13.1978 30.8772 12.75 29.75 12.75Z" fill="white"/>
</g>
<defs>
<clipPath id="clip0_217_57">
<rect width="34" height="34" fill="white"/>
</clipPath>
</defs>
</svg>
