<svg width="57" height="46" viewBox="0 0 57 46" fill="none" xmlns="http://www.w3.org/2000/svg">
<path d="M28.7577 40.25L28.7577 24.9167M28.7577 40.25L14.3796 31.8129C13.4206 31.2513 12.9423 30.9695 12.6833 30.5575C12.4243 30.1454 12.4243 29.6605 12.4243 28.6945L12.4243 15.3334M28.7577 40.25L43.138 31.8129C44.0947 31.2513 44.573 30.9695 44.832 30.5575C45.091 30.1454 45.091 29.6605 45.091 28.6945V15.3334M28.7577 24.9167L12.4243 15.3334M28.7577 24.9167L45.091 15.3334M12.4243 15.3334L26.0463 7.34088C27.353 6.57421 28.011 6.18896 28.7577 6.18896C29.5043 6.18896 30.16 6.5723 31.469 7.34088L45.091 15.3334" stroke="#ADE6FF" stroke-width="3.85282" stroke-linejoin="round"/>
</svg>
