<svg width="47" height="47" viewBox="0 0 47 47" fill="none" xmlns="http://www.w3.org/2000/svg">
<path d="M6.53711 10.0152L6.53711 40.8377H18.0956V37.9481H14.2428V35.0585H18.0956V32.1689H10.3899V29.2793H18.0956V26.3897H14.2428V23.5H18.0956V20.6104H10.3899V17.7208H18.0956V10.0152H20.9852V17.7208H23.8748V13.868H26.7644V17.7208H29.654V10.0152H32.5437V17.7208H35.4333V13.868H38.3229V17.7208H41.2125V6.16235L10.3899 6.16235C9.3681 6.16235 8.38812 6.56827 7.66557 7.29082C6.94303 8.01336 6.53711 8.99334 6.53711 10.0152ZM12.3163 13.868C11.8054 13.868 11.3154 13.665 10.9542 13.3038C10.5929 12.9425 10.3899 12.4525 10.3899 11.9416C10.3899 11.4307 10.5929 10.9407 10.9542 10.5794C11.3154 10.2181 11.8054 10.0152 12.3163 10.0152C12.8273 10.0152 13.3172 10.2181 13.6785 10.5794C14.0398 10.9407 14.2428 11.4307 14.2428 11.9416C14.2428 12.4525 14.0398 12.9425 13.6785 13.3038C13.3172 13.665 12.8273 13.868 12.3163 13.868Z" fill="#ADE6FF"/>
<path d="M40.5 22H24.5V42" stroke="#ADE6FF"/>
</svg>
