<svg width="43" height="43" viewBox="0 0 43 43" fill="none" xmlns="http://www.w3.org/2000/svg">
<g clip-path="url(#clip0_81_362)">
<path d="M40.9082 4.85694L35.1949 10.535V32.3793L32.4966 37.3418C32.2976 37.7202 31.9989 38.0369 31.633 38.2579C31.267 38.4789 30.8476 38.5957 30.4201 38.5957C29.9926 38.5957 29.5732 38.4789 29.2073 38.2579C28.8413 38.0369 28.5427 37.7202 28.3436 37.3418L25.8096 32.3676V19.8734L4.35244 41.225C4.18835 41.3904 3.97871 41.5033 3.75023 41.5491C3.52176 41.5949 3.28482 41.5717 3.06961 41.4823C2.8544 41.393 2.67068 41.2416 2.54186 41.0474C2.41305 40.8532 2.34498 40.6251 2.34633 40.392L2.34633 30.9129H4.8921L4.8921 29.0358H2.34633L2.34633 21.5276H4.8921V19.6505H2.34633L2.34633 11.849H4.8921V9.97192H2.34633L2.34633 4.02399C2.34633 3.71285 2.46993 3.41445 2.68994 3.19444C2.90996 2.97443 3.20835 2.85083 3.5195 2.85083H40.0752C40.3083 2.84947 40.5364 2.91754 40.7306 3.04635C40.9248 3.17517 41.0762 3.35889 41.1655 3.5741C41.2549 3.78931 41.2781 4.02626 41.2323 4.25473C41.1865 4.4832 41.0736 4.69284 40.9082 4.85694ZM11.7316 12.1423V22.7711L22.3722 12.1423H11.7316ZM32.8486 9.6669H28.1559V12.5177H32.8486V9.6669ZM32.8486 14.3596H28.1559V31.7928L30.4318 36.2156L32.8486 31.781V14.3596Z" fill="#20639B"/>
</g>
<defs>
<clipPath id="clip0_81_362">
<rect width="42.2339" height="42.2339" fill="white" transform="matrix(1 0 0 -1 0 42.6445)"/>
</clipPath>
</defs>
</svg>
