<svg width="47" height="48" viewBox="0 0 47 48" fill="none" xmlns="http://www.w3.org/2000/svg">
<g clip-path="url(#clip0_199_708)">
<path d="M44.8083 42.2495L38.5539 36.0336V12.1205L35.6001 6.68798C35.3822 6.2738 35.0553 5.92703 34.6547 5.68511C34.254 5.44319 33.7949 5.31533 33.3269 5.31533C32.8589 5.31533 32.3998 5.44319 31.9992 5.68511C31.5986 5.92703 31.2717 6.2738 31.0538 6.68798L28.2797 12.1333V25.8108L4.79037 2.43704C4.61074 2.25592 4.38123 2.13239 4.13113 2.08222C3.88102 2.03204 3.62163 2.05749 3.38604 2.15531C3.15045 2.25312 2.94932 2.41889 2.80831 2.63146C2.66729 2.84403 2.59278 3.09378 2.59426 3.34887L2.59426 13.7258H5.38113L5.38113 15.7806H2.59426L2.59426 24H5.38113V26.0548H2.59426L2.59426 34.5953H5.38113V36.6501H2.59426L2.59426 43.1614C2.59426 43.502 2.72957 43.8286 2.97042 44.0695C3.21126 44.3103 3.53792 44.4456 3.87853 44.4456H43.8965C44.1516 44.4471 44.4013 44.3726 44.6139 44.2316C44.8265 44.0906 44.9922 43.8895 45.0901 43.6539C45.1879 43.4183 45.2133 43.1589 45.1632 42.9088C45.113 42.6587 44.9895 42.4292 44.8083 42.2495ZM12.8685 34.2742V22.6387L24.5168 34.2742H12.8685ZM35.9854 36.984H30.8483L30.8483 33.8632H35.9854V36.984ZM35.9854 31.8469L30.8483 31.8469V12.7626L33.3398 7.92089L35.9854 12.7754V31.8469Z" fill="#ADE6FF"/>
</g>
<defs>
<clipPath id="clip0_199_708">
<rect width="46.2339" height="46.2339" fill="white" transform="translate(0.0258789 0.883057)"/>
</clipPath>
</defs>
</svg>
