<svg width="48" height="48" viewBox="0 0 48 48" fill="none" xmlns="http://www.w3.org/2000/svg">
<path d="M7.6507 23.9087C7.6507 32.8983 14.9189 40.1665 23.9085 40.1665C32.8982 40.1665 40.1664 32.8983 40.1664 23.9087C40.1664 14.919 32.8982 7.65083 23.9085 7.65083C14.9189 7.65083 7.6507 14.919 7.6507 23.9087ZM38.2537 23.9087C38.2537 31.8463 31.8462 38.2538 23.9085 38.2538C15.9709 38.2538 9.56339 31.8463 9.56339 23.9087C9.56339 15.971 15.9709 9.56351 23.9085 9.56351C31.8462 9.56351 38.2537 15.971 38.2537 23.9087Z" fill="#EAEFEE"/>
<path d="M22.2828 15.9709L30.2204 23.9085L22.2828 31.8462L23.6217 33.1851L32.8982 23.9085L23.6217 14.632L22.2828 15.9709Z" fill="#EAEFEE"/>
<path d="M31.5592 24.8652L31.5592 22.9525L15.3014 22.9525L15.3014 24.8652L31.5592 24.8652Z" fill="#EAEFEE"/>
</svg>
