<svg width="40" height="40" viewBox="0 0 40 40" fill="none" xmlns="http://www.w3.org/2000/svg">
<path d="M8.70117 2.93604L6.98294 4.65183L9.53954 7.20721L11.2553 5.49142L8.70117 2.93604ZM31.1248 2.93604L28.5682 5.49142L30.2852 7.20721L32.8406 4.65305L31.1248 2.93604ZM19.9124 3.69752C19.5097 3.70078 19.1029 3.72681 18.692 3.77563H18.6554C13.7058 4.34308 9.76652 8.34212 9.08191 13.2698C8.5352 17.2359 10.1704 20.8322 12.8955 23.1484C14.01 24.0999 14.7639 25.4052 15.031 26.846L15.031 34.1681H17.8134C18.2381 34.8966 19.013 35.3884 19.9124 35.3884C20.8118 35.3884 21.5867 34.8966 22.0114 34.1681H24.7937V29.2867H24.9084V27.837C24.9084 26.0479 25.8383 24.2443 27.3491 22.8421C29.37 20.8188 30.8954 17.9449 30.8954 14.6439C30.8954 8.61547 25.9335 3.64139 19.9124 3.69752ZM19.9124 6.13819C24.629 6.07229 28.4547 9.93343 28.4547 14.6439C28.4547 17.1993 27.271 19.4496 25.6321 21.0873L25.6711 21.1263C24.0431 22.6287 22.9901 24.6519 22.6935 26.8473H17.3558C17.0873 24.7556 16.1904 22.7311 14.4953 21.2789C12.339 19.4484 11.054 16.6904 11.4835 13.5761C12.0168 9.73208 15.136 6.64097 18.9581 6.21751C19.2737 6.17375 19.5914 6.14768 19.9099 6.13941L19.9124 6.13819ZM2.8277 14.6439L2.8277 17.0846H6.4887V14.6439H2.8277ZM33.3361 14.6439V17.0846H36.9971V14.6439H33.3361ZM9.53954 24.5213L6.98416 27.0755L8.70117 28.7925L11.2541 26.2371L9.53954 24.5213ZM30.2852 24.5213L28.5694 26.2371L31.1236 28.7925L32.8406 27.0755L30.2852 24.5213ZM17.4717 29.2879H22.353V31.7286H17.4717L17.4717 29.2879Z" fill="#EAEFEE"/>
</svg>
