<svg width="47" height="47" viewBox="0 0 47 47" fill="none" xmlns="http://www.w3.org/2000/svg">
<path fill-rule="evenodd" clip-rule="evenodd" d="M42.2555 22.7024L40.7491 21.4965V41.3192H43.1571C43.5403 41.3192 43.9078 41.4714 44.1787 41.7424C44.4497 42.0134 44.6019 42.3808 44.6019 42.764C44.6019 43.1472 44.4497 43.5147 44.1787 43.7857C43.9078 44.0566 43.5403 44.2088 43.1571 44.2088H4.62889C4.2457 44.2088 3.87821 44.0566 3.60726 43.7857C3.3363 43.5147 3.18408 43.1472 3.18408 42.764C3.18408 42.3808 3.3363 42.0134 3.60726 41.7424C3.87821 41.4714 4.2457 41.3192 4.62889 41.3192H7.0369L7.0369 21.4965L5.53238 22.7024C5.38413 22.8209 5.21399 22.9091 5.03167 22.9618C4.84936 23.0146 4.65843 23.031 4.4698 23.0099C4.28116 22.9889 4.09852 22.931 3.93229 22.8393C3.76606 22.7477 3.6195 22.6243 3.50098 22.476C3.38246 22.3278 3.29429 22.1577 3.24153 21.9753C3.18876 21.793 3.17242 21.6021 3.19344 21.4135C3.21446 21.2248 3.27242 21.0422 3.36403 20.876C3.45563 20.7097 3.57908 20.5632 3.72733 20.4446L19.3794 7.92297C20.6605 6.89786 22.2523 6.33936 23.893 6.33936C25.5337 6.33936 27.1255 6.89786 28.4066 7.92297L44.0587 20.4446C44.2095 20.5622 44.3354 20.7084 44.4293 20.875C44.5232 21.0416 44.583 21.2251 44.6054 21.415C44.6278 21.6048 44.6123 21.7973 44.5598 21.9811C44.5073 22.1649 44.4188 22.3365 44.2995 22.4859C44.1802 22.6353 44.0324 22.7595 43.8648 22.8514C43.6971 22.9432 43.5129 23.0009 43.3228 23.021C43.1326 23.0412 42.9404 23.0234 42.7572 22.9687C42.574 22.914 42.4035 22.8235 42.2555 22.7024ZM23.893 13.3863C22.488 13.3863 21.1405 13.9444 20.147 14.9379C19.1535 15.9314 18.5954 17.2789 18.5954 18.6839C18.5954 20.0889 19.1535 21.4364 20.147 22.4299C21.1405 23.4234 22.488 23.9815 23.893 23.9815C25.298 23.9815 26.6455 23.4234 27.639 22.4299C28.6325 21.4364 29.1906 20.0889 29.1906 18.6839C29.1906 17.2789 28.6325 15.9314 27.639 14.9379C26.6455 13.9444 25.298 13.3863 23.893 13.3863ZM27.2565 26.0274C26.3723 25.9079 25.2685 25.9079 23.9874 25.9079H23.7986C22.5175 25.9079 21.4137 25.9079 20.5295 26.0274C19.5836 26.1545 18.6744 26.4416 17.9385 27.1775C17.2026 27.9133 16.9155 28.8226 16.7884 29.7685C16.669 30.6527 16.669 31.7565 16.669 33.0376V41.3192H31.117L31.117 32.7987C31.117 31.6198 31.1093 30.5968 30.9976 29.7685C30.8705 28.8226 30.5834 27.9133 29.8475 27.1775C29.1116 26.4416 28.2043 26.1545 27.2565 26.0274Z" fill="#ADE6FF"/>
<g opacity="0.5">
<path d="M21.4849 18.6839C21.4849 18.0452 21.7386 17.4328 22.1902 16.9812C22.6417 16.5296 23.2542 16.2759 23.8929 16.2759C24.5315 16.2759 25.144 16.5296 25.5956 16.9812C26.0472 17.4328 26.3009 18.0452 26.3009 18.6839C26.3009 19.3225 26.0472 19.935 25.5956 20.3866C25.144 20.8382 24.5315 21.0919 23.8929 21.0919C23.2542 21.0919 22.6417 20.8382 22.1902 20.3866C21.7386 19.935 21.4849 19.3225 21.4849 18.6839Z" fill="#ADE6FF"/>
<path d="M21.4849 18.6839C21.4849 18.0452 21.7386 17.4328 22.1902 16.9812C22.6417 16.5296 23.2542 16.2759 23.8929 16.2759C24.5315 16.2759 25.144 16.5296 25.5956 16.9812C26.0472 17.4328 26.3009 18.0452 26.3009 18.6839C26.3009 19.3225 26.0472 19.935 25.5956 20.3866C25.144 20.8382 24.5315 21.0919 23.8929 21.0919C23.2542 21.0919 22.6417 20.8382 22.1902 20.3866C21.7386 19.935 21.4849 19.3225 21.4849 18.6839Z" fill="#ADE6FF"/>
</g>
<path opacity="0.5" d="M23.9893 25.9081C25.2684 25.9081 26.3723 25.9081 27.2565 26.0275C28.2043 26.1546 29.1116 26.4417 29.8475 27.1776C30.5834 27.9135 30.8704 28.8208 30.9976 29.7686C31.1093 30.5969 31.117 31.6179 31.117 32.7988V41.3193H16.6689L16.6689 33.0358C16.6689 31.7566 16.6689 30.6528 16.7884 29.7686C16.9155 28.8208 17.2026 27.9135 17.9385 27.1776C18.6743 26.4417 19.5836 26.1546 20.5295 26.0275C21.4137 25.9081 22.5175 25.9081 23.7986 25.9081H23.9893ZM31.5986 6.16235H36.4147C36.6701 6.16235 36.9151 6.26383 37.0957 6.44447C37.2764 6.62511 37.3779 6.8701 37.3779 7.12556V15.1009L30.6354 9.70695V7.12556C30.6354 6.8701 30.7369 6.62511 30.9175 6.44447C31.0982 6.26383 31.3432 6.16235 31.5986 6.16235Z" fill="#ADE6FF"/>
</svg>
