<svg width="47" height="48" viewBox="0 0 47 48" fill="none" xmlns="http://www.w3.org/2000/svg">
<path d="M40.5079 5.93994L7.27733 5.93994C6.47817 5.93994 5.83252 6.58559 5.83252 7.38475L5.83252 40.6153C5.83252 41.4145 6.47817 42.0601 7.27733 42.0601H40.5079C41.3071 42.0601 41.9527 41.4145 41.9527 40.6153V7.38475C41.9527 6.58559 41.3071 5.93994 40.5079 5.93994ZM17.391 34.4749C17.391 34.6736 17.2284 34.8361 17.0298 34.8361H13.4178C13.2191 34.8361 13.0566 34.6736 13.0566 34.4749L13.0566 13.5252C13.0566 13.3265 13.2191 13.164 13.4178 13.164H17.0298C17.2284 13.164 17.391 13.3265 17.391 13.5252V34.4749ZM26.0598 21.8328C26.0598 22.0315 25.8973 22.194 25.6986 22.194H22.0866C21.8879 22.194 21.7254 22.0315 21.7254 21.8328V13.5252C21.7254 13.3265 21.8879 13.164 22.0866 13.164H25.6986C25.8973 13.164 26.0598 13.3265 26.0598 13.5252V21.8328ZM34.7287 25.0836C34.7287 25.2823 34.5661 25.4448 34.3675 25.4448H30.7555C30.5568 25.4448 30.3943 25.2823 30.3943 25.0836V13.5252C30.3943 13.3265 30.5568 13.164 30.7555 13.164H34.3675C34.5661 13.164 34.7287 13.3265 34.7287 13.5252V25.0836Z" fill="#ADE6FF"/>
</svg>
