<svg width="47" height="47" viewBox="0 0 47 47" fill="none" xmlns="http://www.w3.org/2000/svg">
<g clip-path="url(#clip0_103_1390)">
<path d="M45.5403 41.7495L39.2859 35.5336V11.6205L36.332 6.18798C36.1141 5.7738 35.7872 5.42703 35.3866 5.18511C34.986 4.94319 34.5269 4.81533 34.0589 4.81533C33.5909 4.81533 33.1318 4.94319 32.7311 5.18511C32.3305 5.42703 32.0036 5.7738 31.7857 6.18798L29.0117 11.6333V25.3108L5.5223 1.93704C5.34267 1.75592 5.11317 1.63239 4.86306 1.58222C4.61295 1.53204 4.35356 1.55749 4.11797 1.65531C3.88238 1.75312 3.68126 1.91889 3.54024 2.13146C3.39923 2.34403 3.32471 2.59378 3.32619 2.84887L3.32619 13.2258H6.11307L6.11307 15.2806H3.32619L3.32619 23.5H6.11307V25.5548H3.32619L3.32619 34.0953H6.11307V36.1501H3.32619L3.32619 42.6614C3.32619 43.002 3.4615 43.3286 3.70235 43.5695C3.9432 43.8103 4.26986 43.9456 4.61047 43.9456H44.6284C44.8835 43.9471 45.1333 43.8726 45.3458 43.7316C45.5584 43.5906 45.7242 43.3895 45.822 43.1539C45.9198 42.9183 45.9453 42.6589 45.8951 42.4088C45.8449 42.1587 45.7214 41.9292 45.5403 41.7495ZM13.6004 33.7742V22.1387L25.2487 33.7742H13.6004ZM36.7173 36.484H31.5802L31.5802 33.3632H36.7173V36.484ZM36.7173 31.3469L31.5802 31.3469V12.2626L34.0717 7.42089L36.7173 12.2754V31.3469Z" fill="#ADE6FF"/>
</g>
<defs>
<clipPath id="clip0_103_1390">
<rect width="46.2339" height="46.2339" fill="white" transform="translate(0.757812 0.383301)"/>
</clipPath>
</defs>
</svg>
