<svg width="40" height="40" viewBox="0 0 40 40" fill="none" xmlns="http://www.w3.org/2000/svg">
<path d="M19.9124 24.4574C12.7206 24.4574 6.89551 27.3699 6.89551 30.9658L6.89551 34.2201H32.9293V30.9658C32.9293 27.3699 27.1042 24.4574 19.9124 24.4574ZM13.404 14.6947C13.404 16.4209 14.0897 18.0763 15.3102 19.2969C16.5308 20.5175 18.1863 21.2032 19.9124 21.2032C21.6386 21.2032 23.294 20.5175 24.5146 19.2969C25.7351 18.0763 26.4209 16.4209 26.4209 14.6947M19.0989 3.30493C18.6107 3.30493 18.2853 3.64663 18.2853 4.11849V8.99983H16.6582V4.93204C16.6582 4.93204 12.9972 6.33136 12.9972 11.0337C12.9972 11.0337 11.7768 11.2615 11.7768 13.0676L28.048 13.0676C27.9666 11.2615 26.8276 11.0337 26.8276 11.0337C26.8276 6.33136 23.1666 4.93204 23.1666 4.93204V8.99983H21.5395V4.11849C21.5395 3.64663 21.2304 3.30493 20.726 3.30493L19.0989 3.30493Z" fill="#EAEFEE"/>
</svg>
