<svg width="40" height="40" viewBox="0 0 40 40" fill="none" xmlns="http://www.w3.org/2000/svg">
<path d="M28.4596 32.5089C31.4766 30.5102 33.6966 27.5162 34.7329 24.0488C35.7691 20.5813 35.5559 16.8602 34.1304 13.5338C32.7048 10.2074 30.1574 7.48663 26.9318 5.84559C23.7063 4.20455 20.0072 3.74729 16.4791 4.55348M28.4612 27.7626V32.5073L33.7428 32.5089M11.3244 6.77286C8.31617 8.77845 6.1061 11.7751 5.07867 15.2416C4.05124 18.7081 4.27145 22.4251 5.70101 25.746C7.13056 29.0669 9.679 31.7816 12.903 33.418C16.1271 35.0543 19.8227 35.5088 23.3472 34.7022M11.3244 6.77286V11.4915M11.3244 6.77286L6.08189 6.77286" stroke="#EAEFEE" stroke-width="2.44067" stroke-linecap="round" stroke-linejoin="round"/>
<path d="M20.726 11.4917L15.0311 19.6273H24.7938L19.0989 27.7628" stroke="#EAEFEE" stroke-width="2.44067" stroke-linecap="round" stroke-linejoin="round"/>
</svg>
