<svg width="47" height="48" viewBox="0 0 47 48" fill="none" xmlns="http://www.w3.org/2000/svg">
<g clip-path="url(#clip0_103_1375)">
<path d="M23.7122 19.7975L19.3778 29.9111C19.2107 30.301 18.9329 30.6333 18.5788 30.8668C18.2247 31.1003 17.8099 31.2248 17.3858 31.2248C16.9616 31.2248 16.5468 31.1003 16.1927 30.8668C15.8386 30.6333 15.5608 30.301 15.3937 29.9111L11.0593 19.7975C10.9471 19.5359 10.8876 19.2548 10.884 18.9701C10.8805 18.6855 10.9331 18.403 11.0387 18.1387C11.2521 17.6049 11.6688 17.1778 12.1971 16.9512C12.7254 16.7247 13.3221 16.7173 13.8559 16.9306C14.1202 17.0363 14.3611 17.193 14.5648 17.3917C14.7686 17.5905 14.9312 17.8274 15.0434 18.089L17.3912 23.5558L19.739 18.089C19.9891 17.5992 20.4162 17.2227 20.9335 17.0361C21.4509 16.8494 22.0199 16.8664 22.5252 17.0837C23.0305 17.301 23.4343 17.7022 23.6547 18.2062C23.8751 18.7101 23.8957 19.279 23.7122 19.7975ZM47.0097 24.0001C47.0054 28.0222 45.4057 31.8784 42.5616 34.7225C39.7176 37.5666 35.8614 39.1663 31.8393 39.1706H15.9464C11.9229 39.1706 8.06423 37.5722 5.21921 34.7272C2.37419 31.8822 0.775879 28.0235 0.775879 24.0001C0.775879 19.9766 2.37419 16.1179 5.21921 13.2729C8.06423 10.4279 11.9229 8.82959 15.9464 8.82959L31.8393 8.82959C35.8614 8.83389 39.7176 10.4336 42.5616 13.2777C45.4057 16.1218 47.0054 19.9779 47.0097 24.0001ZM42.6753 24.0001C42.672 21.1272 41.5292 18.3729 39.4978 16.3415C37.4664 14.3101 34.7121 13.1674 31.8393 13.164L15.9464 13.164C13.0725 13.164 10.3163 14.3057 8.28411 16.3378C6.25196 18.37 5.1103 21.1262 5.1103 24.0001C5.1103 26.874 6.25196 29.6302 8.28411 31.6623C10.3163 33.6945 13.0725 34.8361 15.9464 34.8361H31.8393C34.7121 34.8328 37.4664 33.6901 39.4978 31.6586C41.5292 29.6272 42.672 26.8729 42.6753 24.0001ZM36.8961 22.5553C36.897 23.9545 36.3878 25.3061 35.4639 26.3569L36.4915 27.8017C36.6656 28.0327 36.7916 28.2962 36.8623 28.5766C36.9329 28.8571 36.9467 29.1488 36.9028 29.4347C36.8589 29.7205 36.7583 29.9947 36.6068 30.2411C36.4553 30.4875 36.2561 30.701 36.0208 30.8692C35.7855 31.0373 35.5189 31.1567 35.2368 31.2202C34.9546 31.2837 34.6626 31.2902 34.3779 31.2391C34.0933 31.188 33.8217 31.0805 33.5793 30.9228C33.3368 30.7652 33.1284 30.5606 32.9662 30.3211L31.5376 28.3237C31.3986 28.3327 31.2577 28.3399 31.1168 28.3399H29.672V29.0623C29.672 29.6371 29.4437 30.1883 29.0373 30.5948C28.6308 31.0012 28.0796 31.2295 27.5048 31.2295C26.93 31.2295 26.3788 31.0012 25.9724 30.5948C25.5659 30.1883 25.3376 29.6371 25.3376 29.0623V18.9432C25.3376 18.3685 25.5659 17.8172 25.9724 17.4108C26.3788 17.0044 26.93 16.776 27.5048 16.776H31.1168C32.6496 16.776 34.1196 17.3849 35.2034 18.4687C36.2872 19.5525 36.8961 21.0225 36.8961 22.5553ZM29.672 24.0001H31.1168C31.5 24.0001 31.8675 23.8479 32.1385 23.5769C32.4094 23.3059 32.5617 22.9385 32.5617 22.5553C32.5617 22.1721 32.4094 21.8046 32.1385 21.5336C31.8675 21.2627 31.5 21.1105 31.1168 21.1105H29.672V24.0001Z" fill="#ADE6FF"/>
</g>
<defs>
<clipPath id="clip0_103_1375">
<rect width="46.2339" height="46.2339" fill="white" transform="translate(0.775879 0.883301)"/>
</clipPath>
</defs>
</svg>
