<svg width="29" height="29" viewBox="0 0 29 29" fill="none" xmlns="http://www.w3.org/2000/svg">
<path d="M8.16993 2.35449C8.65965 2.35449 9.05637 2.73591 9.05637 3.20679V4.92553C9.84275 4.9114 10.7245 4.9114 11.7169 4.9114H16.4434C17.4346 4.9114 18.3163 4.9114 19.1027 4.9267V3.20797C19.1027 2.73709 19.4994 2.35449 19.9891 2.35449C20.4789 2.35449 20.8756 2.73591 20.8756 3.20679V5.00322C22.5767 5.13389 23.6938 5.45527 24.5132 6.24518C25.3349 7.03391 25.6692 8.10753 25.8046 9.74386L25.8988 10.595H2.35449V9.74268C2.49105 8.10636 2.82538 7.03274 3.6459 6.244C4.46641 5.45527 5.58241 5.13272 7.28348 5.00205V3.20679C7.28348 2.73591 7.68021 2.35449 8.16993 2.35449Z" fill="#2339AB"/>
<path opacity="0.5" d="M25.8986 16.4808V14.1264C25.8986 13.1387 25.8939 11.3776 25.8786 10.5947H2.36613C2.35082 11.3776 2.35436 13.1387 2.35436 14.1264V16.4808C2.35436 20.9201 2.35436 23.1403 3.73405 24.5188C5.11374 25.8973 7.33161 25.8985 11.7721 25.8985H16.4809C20.919 25.8985 23.1392 25.8985 24.5189 24.5188C25.8986 23.1391 25.8986 20.9212 25.8986 16.4808Z" fill="#2339AB"/>
<path d="M21.1898 20.0125C21.1898 20.3247 21.0658 20.6242 20.845 20.8449C20.6242 21.0657 20.3248 21.1897 20.0126 21.1897C19.7004 21.1897 19.4009 21.0657 19.1802 20.8449C18.9594 20.6242 18.8354 20.3247 18.8354 20.0125C18.8354 19.7003 18.9594 19.4009 19.1802 19.1801C19.4009 18.9593 19.7004 18.8353 20.0126 18.8353C20.3248 18.8353 20.6242 18.9593 20.845 19.1801C21.0658 19.4009 21.1898 19.7003 21.1898 20.0125ZM21.1898 15.3037C21.1898 15.6159 21.0658 15.9153 20.845 16.1361C20.6242 16.3569 20.3248 16.4809 20.0126 16.4809C19.7004 16.4809 19.4009 16.3569 19.1802 16.1361C18.9594 15.9153 18.8354 15.6159 18.8354 15.3037C18.8354 14.9915 18.9594 14.692 19.1802 14.4713C19.4009 14.2505 19.7004 14.1265 20.0126 14.1265C20.3248 14.1265 20.6242 14.2505 20.845 14.4713C21.0658 14.692 21.1898 14.9915 21.1898 15.3037ZM15.3037 20.0125C15.3037 20.3247 15.1797 20.6242 14.9589 20.8449C14.7382 21.0657 14.4387 21.1897 14.1265 21.1897C13.8143 21.1897 13.5149 21.0657 13.2941 20.8449C13.0733 20.6242 12.9493 20.3247 12.9493 20.0125C12.9493 19.7003 13.0733 19.4009 13.2941 19.1801C13.5149 18.9593 13.8143 18.8353 14.1265 18.8353C14.4387 18.8353 14.7382 18.9593 14.9589 19.1801C15.1797 19.4009 15.3037 19.7003 15.3037 20.0125ZM15.3037 15.3037C15.3037 15.6159 15.1797 15.9153 14.9589 16.1361C14.7382 16.3569 14.4387 16.4809 14.1265 16.4809C13.8143 16.4809 13.5149 16.3569 13.2941 16.1361C13.0733 15.9153 12.9493 15.6159 12.9493 15.3037C12.9493 14.9915 13.0733 14.692 13.2941 14.4713C13.5149 14.2505 13.8143 14.1265 14.1265 14.1265C14.4387 14.1265 14.7382 14.2505 14.9589 14.4713C15.1797 14.692 15.3037 14.9915 15.3037 15.3037ZM9.41766 20.0125C9.41766 20.3247 9.29363 20.6242 9.07286 20.8449C8.85209 21.0657 8.55266 21.1897 8.24045 21.1897C7.92823 21.1897 7.6288 21.0657 7.40803 20.8449C7.18726 20.6242 7.06323 20.3247 7.06323 20.0125C7.06323 19.7003 7.18726 19.4009 7.40803 19.1801C7.6288 18.9593 7.92823 18.8353 8.24045 18.8353C8.55266 18.8353 8.85209 18.9593 9.07286 19.1801C9.29363 19.4009 9.41766 19.7003 9.41766 20.0125ZM9.41766 15.3037C9.41766 15.6159 9.29363 15.9153 9.07286 16.1361C8.85209 16.3569 8.55266 16.4809 8.24045 16.4809C7.92823 16.4809 7.6288 16.3569 7.40803 16.1361C7.18726 15.9153 7.06323 15.6159 7.06323 15.3037C7.06323 14.9915 7.18726 14.692 7.40803 14.4713C7.6288 14.2505 7.92823 14.1265 8.24045 14.1265C8.55266 14.1265 8.85209 14.2505 9.07286 14.4713C9.29363 14.692 9.41766 14.9915 9.41766 15.3037Z" fill="#2339AB"/>
</svg>
