<svg width="29" height="29" viewBox="0 0 29 29" fill="none" xmlns="http://www.w3.org/2000/svg">
<path d="M14.3811 13.4596C13.5865 13.4596 12.8244 13.1513 12.2626 12.6026C11.7007 12.0539 11.385 11.3096 11.385 10.5336C11.385 9.75758 11.7007 9.01334 12.2626 8.46461C12.8244 7.91588 13.5865 7.60761 14.3811 7.60761C15.1757 7.60761 15.9377 7.91588 16.4996 8.46461C17.0615 9.01334 17.3771 9.75758 17.3771 10.5336C17.3771 10.9178 17.2996 11.2983 17.1491 11.6533C16.9985 12.0083 16.7778 12.3309 16.4996 12.6026C16.2214 12.8743 15.8911 13.0898 15.5276 13.2369C15.1641 13.3839 14.7745 13.4596 14.3811 13.4596ZM14.3811 2.34082C12.1562 2.34082 10.0225 3.20399 8.44924 4.74043C6.87601 6.27688 5.99219 8.36074 5.99219 10.5336C5.99219 16.6782 14.3811 25.7488 14.3811 25.7488C14.3811 25.7488 22.77 16.6782 22.77 10.5336C22.77 8.36074 21.8861 6.27688 20.3129 4.74043C18.7397 3.20399 16.6059 2.34082 14.3811 2.34082Z" fill="#2339AB"/>
</svg>
