<svg width="29" height="29" viewBox="0 0 29 29" fill="none" xmlns="http://www.w3.org/2000/svg">
<path fill-rule="evenodd" clip-rule="evenodd" d="M16.4974 20.0128L16.4904 22.3707C16.4892 22.924 16.488 23.2007 16.315 23.3725C16.1419 23.5444 15.8653 23.5444 15.3096 23.5444H11.7662C7.31635 23.5444 5.09142 23.5444 3.70819 22.1647C2.75465 21.2159 2.45917 19.868 2.36617 17.6713C2.34851 17.2357 2.33909 17.0168 2.42032 16.872C2.50273 16.7272 2.82646 16.5459 3.47628 16.1821C3.84232 15.978 4.14722 15.6799 4.35948 15.3186C4.57173 14.9572 4.68365 14.5458 4.68365 14.1267C4.68365 13.7076 4.57173 13.2961 4.35948 12.9348C4.14722 12.5735 3.84232 12.2753 3.47628 12.0713C2.82646 11.7087 2.50155 11.5262 2.42032 11.3814C2.33909 11.2366 2.34851 11.0188 2.36735 10.5821C2.45917 8.38542 2.75583 7.03869 3.70819 6.08868C5.09024 4.70899 7.31517 4.70899 11.7662 4.70899H15.8982C15.9755 4.70883 16.0521 4.7239 16.1236 4.75334C16.195 4.78278 16.26 4.826 16.3148 4.88055C16.3696 4.9351 16.413 4.9999 16.4428 5.07125C16.4725 5.14261 16.4879 5.21912 16.488 5.29642L16.4974 8.24063C16.4974 8.89045 17.026 9.41784 17.677 9.41784V11.7723C17.026 11.7723 16.4974 12.2997 16.4974 12.9495V15.3039C16.4974 15.9537 17.026 16.4811 17.677 16.4811V18.8355C17.026 18.8355 16.4974 19.3629 16.4974 20.0128Z" fill="#2339AB"/>
<path opacity="0.5" d="M17.6782 18.8353C18.3292 18.8353 18.8578 19.3627 18.8578 20.0125V22.3387C18.8578 22.9061 18.8578 23.1898 19.0403 23.3629C19.2215 23.5371 19.4994 23.5253 20.0562 23.5018C22.2493 23.4088 23.5961 23.1121 24.5461 22.1645C25.4985 21.2156 25.7939 19.8666 25.8869 17.6699C25.9046 17.2343 25.914 17.0165 25.8328 16.8717C25.7516 16.7258 25.4266 16.5445 24.7768 16.1819C24.4108 15.9778 24.1059 15.6797 23.8936 15.3184C23.6814 14.957 23.5695 14.5455 23.5695 14.1265C23.5695 13.7074 23.6814 13.2959 23.8936 12.9346C24.1059 12.5732 24.4108 12.2751 24.7768 12.0711C25.4266 11.7073 25.7516 11.526 25.8328 11.3812C25.9152 11.2352 25.9046 11.0174 25.8869 10.5819C25.7939 8.3852 25.4985 7.03729 24.5449 6.08728C23.5125 5.05722 22.0092 4.79705 19.457 4.73113C19.379 4.72924 19.3014 4.74298 19.2288 4.77154C19.1561 4.8001 19.09 4.8429 19.0341 4.89742C18.9783 4.95193 18.9339 5.01707 18.9036 5.08899C18.8734 5.16091 18.8578 5.23817 18.8578 5.3162V8.2404C18.8578 8.89022 18.3292 9.41761 17.6782 9.41761V11.772C17.833 11.7717 17.9863 11.802 18.1294 11.861C18.2725 11.92 18.4026 12.0067 18.5122 12.116C18.6217 12.2253 18.7086 12.3552 18.768 12.4982C18.8273 12.6412 18.8578 12.7945 18.8578 12.9493V15.3037C18.8578 15.9535 18.3292 16.4809 17.6782 16.4809V18.8353Z" fill="#2339AB"/>
</svg>
