<svg width="544" height="642" viewBox="0 0 544 642" fill="none" xmlns="http://www.w3.org/2000/svg">
<path d="M29.6814 422.304C79.5102 420.593 126.688 454.249 176.077 447.423C194.303 444.904 211.312 436.971 229.197 432.646C248.219 428.045 268.011 427.575 287.195 423.702C329.711 415.116 366.946 390.425 402.961 366.256C366.307 351.37 328.611 336.262 289.055 335.542C269.414 335.184 248.087 344.844 228.707 348.057C210.819 351.022 194.667 347.569 177.434 353.209C162.912 357.963 149.068 364.551 135.272 371.12C100.59 387.637 65.9072 404.154 31.2233 420.67" fill="#263238"/>
<g opacity="0.1">
<path d="M31.2375 420.789C65.9198 404.273 100.602 387.756 135.286 371.24C149.082 364.67 162.924 358.081 177.448 353.328C194.681 347.688 210.833 351.141 228.721 348.176C248.101 344.963 269.428 335.303 289.069 335.661C328.625 336.382 366.32 351.491 402.975 366.375C366.96 390.545 329.725 415.236 287.209 423.822C268.025 427.696 248.233 428.166 229.211 432.765C211.328 437.091 194.317 445.023 176.091 447.542C126.702 454.368 79.5244 420.712 29.6956 422.423" fill="white"/>
</g>
<path d="M613.287 373.327C613.064 374.161 612.246 374.71 611.372 374.577C537.127 363.29 344.187 363.019 269.276 377.741L139.677 403.141L75.0829 415.948C74.1531 416.132 73.2515 415.528 73.0671 414.6C72.8823 413.666 73.4884 412.769 74.4149 412.584L139.013 399.777L268.614 374.375C345.324 359.299 535.718 359.605 611.889 371.185C612.826 371.327 613.468 372.202 613.325 373.139C613.316 373.202 613.302 373.264 613.286 373.325L613.287 373.327Z" fill="#263238"/>
<path d="M215.032 386.915C214.977 387.122 214.819 387.293 214.607 387.36C196.622 393.113 152.759 444.417 151.592 446.983C151.445 447.308 151.063 447.449 150.739 447.303C150.415 447.156 150.273 446.766 150.419 446.451C151.563 443.936 193.268 395.152 212.436 386.812L148.086 366.983C147.746 366.88 147.558 366.503 147.661 366.18C147.764 365.841 148.126 365.65 148.463 365.755L214.599 386.133C214.868 386.216 215.052 386.464 215.053 386.743C215.054 386.802 215.045 386.858 215.031 386.913L215.032 386.915Z" fill="#263238"/>
<path d="M154.945 399.118C154.889 399.325 154.732 399.496 154.52 399.564C136.176 405.429 102.741 432.165 101.611 434.649C101.463 434.973 101.081 435.114 100.758 434.969C100.434 434.822 100.295 434.431 100.438 434.116C101.857 430.999 134.117 405.802 152.263 398.989L108.53 385.512C108.189 385.408 107.981 385.022 108.106 384.709C108.209 384.37 108.571 384.179 108.909 384.284L154.515 398.338C154.784 398.42 154.966 398.668 154.969 398.947C154.97 399.006 154.962 399.063 154.947 399.117L154.945 399.118Z" fill="#263238"/>
<path d="M260.612 379.536C260.556 379.743 260.398 379.915 260.187 379.981C242.359 385.683 201.51 439.061 200.397 441.505C200.25 441.83 199.868 441.971 199.545 441.825C199.22 441.678 199.081 441.291 199.225 440.973C200.317 438.572 239.365 387.595 258.182 379.369L187.685 352.641C187.352 352.514 187.194 352.131 187.313 351.811C187.439 351.479 187.81 351.313 188.142 351.439L260.219 378.767C260.476 378.864 260.642 379.111 260.634 379.386C260.633 379.437 260.625 379.488 260.612 379.534L260.612 379.536Z" fill="#263238"/>
<path d="M306.19 372.158C306.134 372.366 305.976 372.537 305.765 372.603C288.356 378.171 256.009 423.505 254.473 426.88C254.326 427.204 253.943 427.345 253.62 427.2C253.296 427.053 253.154 426.668 253.3 426.347C254.86 422.918 285.487 379.61 303.877 371.93L248.269 346.745C247.947 346.598 247.806 346.214 247.949 345.894C248.096 345.569 248.477 345.426 248.8 345.573L305.832 371.405C306.074 371.514 306.224 371.762 306.208 372.028C306.206 372.071 306.201 372.116 306.19 372.158Z" fill="#263238"/>
<path d="M353.647 367.299C353.591 367.507 353.432 367.678 353.222 367.744C335.562 373.392 309.569 414.814 308.438 417.298C308.291 417.622 307.909 417.763 307.585 417.618C307.261 417.471 307.118 417.083 307.265 416.765C308.43 414.207 333.192 374.377 351.499 367.002L300.577 337.949C300.268 337.77 300.166 337.377 300.337 337.071C300.513 336.763 300.906 336.656 301.214 336.831L353.343 366.573C353.564 366.7 353.69 366.945 353.663 367.198C353.659 367.233 353.653 367.265 353.644 367.298L353.647 367.299Z" fill="#263238"/>
<path d="M573.163 369.925C572.961 370.681 572.26 371.224 571.444 371.194C542.503 370.108 504.128 374.189 471.298 381.843C470.376 382.058 469.452 381.485 469.238 380.562C469.022 379.641 469.597 378.718 470.518 378.503C503.624 370.784 542.346 366.672 571.57 367.768C572.518 367.803 573.256 368.599 573.219 369.545C573.216 369.677 573.194 369.804 573.161 369.927L573.163 369.925Z" fill="#263238"/>
<path opacity="0.3" d="M571.444 371.192C542.503 370.106 504.128 374.187 471.299 381.841L470.52 378.501C503.626 370.783 542.348 366.671 571.572 367.766L571.444 371.192Z" fill="white"/>
<path d="M602.989 357.231C602.956 357.354 602.91 357.473 602.848 357.591C602.407 358.428 601.37 358.748 600.532 358.305C572.72 343.61 489.081 293.283 466.413 272.052C465.723 271.406 465.689 270.322 466.335 269.627C466.981 268.938 468.067 268.9 468.759 269.549C491.225 290.589 574.442 340.64 602.136 355.274C602.856 355.653 603.193 356.476 602.99 357.232L602.989 357.231Z" fill="#263238"/>
<path opacity="0.3" d="M602.134 355.275L600.532 358.306C572.719 343.611 489.081 293.283 466.413 272.052L468.758 269.549C491.223 290.589 574.44 340.64 602.134 355.273L602.134 355.275Z" fill="white"/>
<path d="M376.587 290.344C324.945 288.7 270.351 286.166 227.138 257.841C206.23 244.137 201.329 226.4 183.435 208.943C156.7 182.862 122.583 149.818 102.86 117.633C101.077 114.723 99.4467 110.644 101.867 108.237C104.568 105.551 109.005 107.945 112.273 109.902C124.092 116.978 138.635 116.942 152.296 118.723C184.746 122.953 222.63 136.69 251.679 151.754C280.243 166.567 307.504 180.583 323.22 208.66C343.31 244.554 370.669 251.743 377.359 283.215" fill="#263238"/>
<g opacity="0.1">
<path d="M376.587 290.344C324.945 288.7 270.351 286.166 227.138 257.841C206.23 244.137 201.329 226.4 183.435 208.943C156.7 182.862 122.583 149.818 102.86 117.633C101.077 114.723 99.4467 110.644 101.867 108.237C104.568 105.551 109.005 107.945 112.273 109.902C124.092 116.978 138.635 116.942 152.296 118.723C184.746 122.953 222.63 136.69 251.679 151.754C280.243 166.567 307.504 180.583 323.22 208.66C343.31 244.554 370.669 251.743 377.359 283.215" fill="white"/>
</g>
<path d="M593.503 363.857L593.501 363.867C593.249 364.781 592.306 365.317 591.393 365.067C432.537 321.438 244.962 225.306 113.523 120.155L102.463 111.138C101.731 110.54 101.616 109.464 102.219 108.726C102.816 107.993 103.897 107.881 104.631 108.481L115.679 117.488C246.771 222.36 433.86 318.246 592.301 361.76C593.212 362.011 593.747 362.946 593.503 363.857Z" fill="#263238"/>
<path d="M246.733 210.237C246.718 210.292 246.697 210.347 246.665 210.398C246.535 210.619 246.288 210.739 246.035 210.711L178.033 202.562C177.681 202.519 177.429 202.2 177.472 201.849C177.505 201.489 177.835 201.243 178.187 201.286L244.775 209.265C234.263 193.44 208.472 135.65 208.206 135.053C208.06 134.732 208.206 134.35 208.533 134.205C208.858 134.06 209.237 134.206 209.381 134.53C209.654 135.143 236.787 195.939 246.634 209.7C246.748 209.858 246.781 210.058 246.732 210.241L246.733 210.237Z" fill="#263238"/>
<path d="M289.921 235.475L289.914 235.503C289.827 235.773 289.576 235.956 289.293 235.953L204.95 235.041C204.594 235.038 204.31 234.747 204.313 234.389C204.315 234.033 204.607 233.751 204.963 233.754L287.385 234.646C278.295 226.915 269.852 207.041 264.246 191.28C258.157 174.162 253.49 156.285 253.779 155.208L253.782 155.195C253.906 154.861 254.273 154.689 254.608 154.809C254.899 154.917 255.067 155.209 255.024 155.503C255.155 158.368 272.181 222.742 289.664 234.779C289.888 234.935 289.992 235.212 289.921 235.475Z" fill="#263238"/>
<path d="M329.359 258.233C329.343 258.296 329.316 258.356 329.279 258.412C329.176 258.573 329.009 258.679 328.82 258.703L250.23 268.831C249.879 268.877 249.555 268.627 249.511 268.276C249.463 267.925 249.713 267.601 250.065 267.557L327.889 257.526C322.819 242.13 296.157 180.952 295.883 180.325C295.744 180.002 295.891 179.622 296.216 179.48C296.542 179.338 296.921 179.486 297.062 179.813C297.34 180.449 324.921 243.738 329.35 257.876C329.388 257.994 329.39 258.119 329.359 258.235L329.359 258.233Z" fill="#263238"/>
<path d="M362.874 274.071C362.867 274.099 362.86 274.125 362.847 274.152C362.769 274.337 362.609 274.477 362.413 274.526L316.076 286.441C315.732 286.531 315.382 286.322 315.293 285.979C315.202 285.635 315.411 285.284 315.756 285.196L361.268 273.491C353.459 260.131 337.355 232.81 337.355 232.81L338.462 232.157C338.462 232.157 355.177 260.514 362.808 273.577C362.895 273.727 362.917 273.903 362.873 274.068L362.874 274.071Z" fill="#263238"/>
<path d="M187.849 172.569C187.831 172.635 187.803 172.698 187.763 172.757C187.622 172.97 187.371 173.078 187.122 173.036L141.927 165.47C141.574 165.413 141.339 165.08 141.399 164.731C141.455 164.354 141.789 164.143 142.138 164.203L185.911 171.531L153.473 120.458C153.286 120.156 153.373 119.762 153.672 119.57C153.971 119.381 154.368 119.469 154.559 119.769L187.77 172.059C187.869 172.214 187.894 172.4 187.848 172.57L187.849 172.569Z" fill="#263238"/>
<path d="M250.052 520.782C282.303 505.569 322.811 514.34 353.326 495.891C364.588 489.082 373.52 479.062 384.045 471.163C395.241 462.763 408.111 456.858 419.617 448.888C445.119 431.227 462.599 404.477 479.426 378.417C451.137 379.001 422.101 379.735 395.911 390.446C382.907 395.765 371.629 408.141 359.805 415.731C348.892 422.737 337.305 425.035 327.579 433.612C319.383 440.841 312.152 449.084 304.946 457.3L250.604 519.27" fill="#263238"/>
<g opacity="0.3">
<path d="M250.052 520.782C282.303 505.569 322.811 514.34 353.326 495.891C364.588 489.082 373.52 479.062 384.045 471.163C395.241 462.763 408.111 456.858 419.617 448.888C445.119 431.227 462.599 404.477 479.426 378.417C451.137 379.001 422.101 379.735 395.911 390.446C382.907 395.765 371.629 408.141 359.805 415.731C348.892 422.737 337.305 425.035 327.579 433.612C319.383 440.841 312.152 449.084 304.946 457.3L250.604 519.27" fill="white"/>
</g>
<path d="M477.536 279.154C477.557 254.735 465.798 230.569 446.567 215.517C431.214 203.501 411.448 196.953 398.946 181.995C386.685 167.325 383.657 147.299 376.307 129.649C361.223 93.4244 328.421 68.1791 297.005 44.6683C322.366 93.8929 326.598 153.911 361.603 196.815C391.488 233.443 438.425 250.873 476.177 279.324" fill="#263238"/>
<g opacity="0.3">
<path d="M477.536 279.154C477.557 254.735 465.798 230.569 446.567 215.517C431.214 203.501 411.448 196.953 398.946 181.995C386.685 167.325 383.657 147.299 376.307 129.649C361.223 93.4244 328.421 68.1791 297.005 44.6683C322.366 93.8929 326.598 153.911 361.603 196.815C391.488 233.443 438.425 250.873 476.177 279.324" fill="white"/>
</g>
<path d="M169.446 329.794C153.825 333.013 140.42 342.613 126.163 349.763C111.906 356.914 94.6299 361.622 80.2707 354.677C113.768 330.103 139.632 332.515 169.446 329.794Z" fill="#0A98A0"/>
<path d="M205.584 274.024C202.131 267.047 194.961 262.623 187.617 260.039C180.273 257.455 172.484 256.346 165.094 253.903C146.055 247.612 131.081 233.065 116.824 218.969C122.42 236.782 136.701 250.9 153.096 259.834C169.492 268.766 187.972 273.079 206.34 276.43" fill="#263238"/>
<path d="M155.58 321.381L149.048 313.824C119.409 303.186 90.9255 289.326 64.264 272.57C85.9931 300.387 120.855 315.055 155.581 321.383L155.58 321.381Z" fill="#263238"/>
<path d="M222.624 293.176C202.752 284.52 172.8 287.014 151.884 281.324C130.968 275.636 117.831 260.79 105.777 242.777C119.6 254.242 138.643 256.241 156.321 259.4C169.359 261.729 182.319 264.964 194.38 270.434C206.442 275.904 217.619 283.708 225.81 294.115" fill="#0A98A0"/>
<path d="M219.923 286.151C210.465 280.111 204.536 269.914 199.787 259.746C195.037 249.578 190.996 238.868 183.891 230.179C171.491 215.014 151.491 208.034 137.856 193.968C142.43 214.009 154.11 231.89 168.431 246.636C182.752 261.382 199.707 273.278 216.768 284.744" fill="#0A98A0"/>
<g opacity="0.3">
<path d="M219.923 286.151C210.465 280.111 204.536 269.914 199.787 259.746C195.037 249.578 190.996 238.868 183.891 230.179C171.491 215.014 151.491 208.034 137.856 193.968C142.43 214.009 154.11 231.89 168.431 246.636C182.752 261.382 199.707 273.278 216.768 284.744" fill="white"/>
</g>
<path d="M171.183 331.621C154.644 324.381 135.661 329.857 117.608 330.131C100.725 330.387 83.795 325.835 69.3176 317.145C87.8215 319.739 102.385 311.532 121.062 312.003C139.74 312.474 163.642 322.125 177.681 334.454" fill="#0A98A0"/>
<path d="M178.363 333.644C165.174 326.215 160.231 310.099 151.904 297.457C144.006 285.469 132.539 276.17 120.112 268.987C107.684 261.803 94.2352 256.589 80.8488 251.406C108.427 282.727 137.091 314.882 174.794 332.773" fill="#0A98A0"/>
<g opacity="0.3">
<path d="M178.363 333.644C165.174 326.215 160.231 310.099 151.904 297.457C144.006 285.469 132.539 276.17 120.112 268.987C107.684 261.803 94.2352 256.589 80.8488 251.406C108.427 282.727 137.091 314.882 174.794 332.773" fill="white"/>
</g>
<path d="M132.113 365.245C140.75 357.78 148.753 354.982 157.786 348.002C161.907 344.82 165.46 340.972 168.993 337.145C177.195 328.255 185.401 319.362 193.156 310.078C199.89 302.016 206.446 293.512 215.264 287.803C230.937 277.657 252.916 278.432 267.834 289.658C259.461 288.682 251.176 292.489 244.519 297.658C237.861 302.828 232.394 309.352 226.177 315.042C215.391 324.916 202.494 332.149 189.595 339.036C169.473 349.78 149.023 359.909 128.284 369.406L132.113 365.245Z" fill="#263238"/>
<path d="M248.406 294.929C248.406 294.929 258.912 293.95 271.468 299.063C281.792 303.266 345.592 316.645 345.592 316.645L347.212 311.171C347.212 311.171 292.581 301.142 283.426 294.861C274.272 288.581 251.684 281.366 231.977 275.537C231.977 275.537 247.783 283.131 248.944 285.655C251.089 290.318 248.406 294.929 248.406 294.929Z" fill="#263238"/>
<path d="M622.399 368.718C622.062 369.976 620.823 370.799 619.508 370.589C517.286 354.222 414.607 331.952 326.388 312.361C325 312.053 324.126 310.679 324.435 309.292C324.727 307.911 326.117 307.032 327.504 307.34C415.649 326.914 518.241 349.167 620.323 365.51C621.725 365.735 622.682 367.054 622.455 368.456C622.44 368.546 622.422 368.632 622.399 368.718Z" fill="#263238"/>
<path d="M622.398 370.213C622.344 370.415 622.252 370.612 622.119 370.79C621.557 371.551 620.483 371.711 619.722 371.145C587.159 347.009 560.981 312.973 546.012 275.305C545.659 274.423 546.09 273.429 546.97 273.079C547.851 272.729 548.848 273.159 549.197 274.037C563.934 311.121 589.707 344.63 621.763 368.392C622.346 368.823 622.575 369.552 622.398 370.213Z" fill="#263238"/>
<path d="M655.601 379.913C655.447 380.489 654.995 380.968 654.379 381.13C607.881 393.291 568.265 407.486 532.381 421.015C531.494 421.349 530.506 420.901 530.17 420.016C529.833 419.127 530.282 418.139 531.169 417.805C567.141 404.246 606.858 390.014 653.509 377.811C654.425 377.572 655.362 378.122 655.602 379.036C655.68 379.334 655.676 379.635 655.601 379.913Z" fill="#263238"/>
<path d="M325.766 572.432C331.753 556.773 343.415 543.812 356.685 533.568C369.955 523.323 384.902 515.508 399.612 507.467C448.756 480.599 496.178 450.584 541.491 417.662C532.375 406.393 518.255 399.33 503.77 398.794C489.284 398.257 474.682 404.257 464.757 414.823C455.622 424.548 450.246 437.884 439.222 445.398C427.161 453.62 411.203 452.955 397.647 458.369C383.161 464.154 372.42 476.409 362.257 488.241C351.96 500.229 341.561 512.363 334.37 526.436C327.178 540.509 322.021 557.08 325.766 572.432Z" fill="#263238"/>
<g opacity="0.1">
<path d="M325.766 572.432C331.753 556.773 343.415 543.812 356.685 533.568C369.955 523.323 384.902 515.508 399.612 507.467C448.756 480.599 496.178 450.584 541.491 417.662C532.375 406.393 518.255 399.33 503.77 398.794C489.284 398.257 474.682 404.257 464.757 414.823C455.622 424.548 450.246 437.884 439.222 445.398C427.161 453.62 411.203 452.955 397.647 458.369C383.161 464.154 372.42 476.409 362.257 488.241C351.96 500.229 341.561 512.363 334.37 526.436C327.178 540.509 322.021 557.08 325.766 572.432Z" fill="white"/>
</g>
<path d="M511.491 272.314C491.203 242.387 454.876 224.502 440.099 191.503C425.205 158.245 435.665 116.543 416.223 85.7224C416.223 85.7224 416.473 82.8479 426.836 90.4356C437.2 98.0232 508.68 222.89 508.68 222.89L511.493 272.315L511.491 272.314Z" fill="#263238"/>
<path d="M559.967 303.254C542.197 306.336 522.972 293.083 513.32 277.846C503.668 262.61 500.596 244.5 488.874 230.793C479.787 220.167 467.308 212.233 460.796 199.859C452.997 185.04 455.393 167.207 453.723 150.545C451.268 126.044 439.208 102.632 420.684 86.4069C458.711 110.223 486.847 147.188 508.525 186.471C530.205 225.756 546.184 267.883 565.424 308.416" fill="#263238"/>
<g opacity="0.1">
<path d="M559.967 303.254C542.197 306.336 522.972 293.083 513.32 277.846C503.668 262.61 500.596 244.5 488.874 230.793C479.787 220.167 467.308 212.233 460.796 199.859C452.997 185.04 455.393 167.207 453.723 150.545C451.268 126.044 439.208 102.632 420.684 86.4069C458.711 110.223 486.847 147.188 508.525 186.471C530.205 225.756 546.184 267.883 565.424 308.416" fill="white"/>
</g>
<path d="M340.386 231.293L405.102 266.336L409.128 262.063L364.497 225.813C364.497 225.813 346.82 227.253 340.386 231.293Z" fill="#263238"/>
<path d="M339.273 204.571C336.452 198.868 330.588 195.252 324.586 193.139C318.584 191.027 312.216 190.119 306.174 188.124C290.611 182.981 278.369 171.089 266.714 159.564C271.288 174.127 282.964 185.668 296.368 192.972C309.772 200.275 324.879 203.8 339.895 206.538" fill="#263238"/>
<path d="M263.29 215.738C289.291 225.254 320.824 221.025 342.679 204.026C316.779 193.032 284.911 197.733 263.29 215.738Z" fill="#0A98A0"/>
<path d="M278.995 158.82C292.078 180.539 314.047 196.722 338.667 202.777L342.685 204.008C332.356 195.001 325.466 183.687 315.613 174.161C305.761 164.633 292.573 156.949 278.995 158.82Z" fill="#0A98A0"/>
<g opacity="0.3">
<path d="M278.995 158.82C292.078 180.539 314.047 196.722 338.667 202.777L342.685 204.008C332.356 195.001 325.466 183.687 315.613 174.161C305.761 164.633 292.573 156.949 278.995 158.82Z" fill="white"/>
</g>
<path d="M345.079 167.52C341.224 182.622 337.626 199.119 344.009 213.337L344.072 208.259C351.753 194.708 358.53 180.259 360.307 164.785C362.085 149.311 358.208 132.549 347.1 121.631C352.889 136.102 348.934 152.418 345.079 167.52Z" fill="#0A98A0"/>
<path d="M311.045 229.086C299.035 241.153 290.81 256.935 287.799 273.691C301.973 265.3 314.15 253.559 323.052 239.701C330.755 227.709 336.604 213.564 348.712 206.041C331.969 209.132 323.055 217.02 311.045 229.086Z" fill="#0A98A0"/>
<g opacity="0.3">
<path d="M311.045 229.086C299.035 241.153 290.81 256.935 287.799 273.691C301.973 265.3 314.15 253.559 323.052 239.701C330.755 227.709 336.604 213.564 348.712 206.041C331.969 209.132 323.055 217.02 311.045 229.086Z" fill="black"/>
</g>
<path d="M321.278 250.785C319.126 266.709 320.446 282.988 317.752 298.827C335.554 282 344.92 256.657 342.344 232.297C341.674 225.96 340.757 215.641 343.879 210.085C330.039 218.248 323.43 234.863 321.278 250.785Z" fill="#0A98A0"/>
<path d="M362.721 233.985C362.721 233.985 361.807 233.518 360.36 232.692C354.692 229.453 340.839 220.676 341.665 212.7C342.701 202.685 387.021 114.106 387.021 114.106C387.021 114.106 371.419 190.227 360.651 207.906C360.651 207.906 359.274 218.354 369.14 229.586L362.721 233.985Z" fill="#263238"/>
<path d="M397.009 260.677C424.204 277.669 452.334 293.122 480.949 307.58C509.887 322.2 539.329 335.807 568.993 348.884C585.473 356.149 602.026 363.249 618.611 370.267C621.621 371.541 624.255 367.116 621.216 365.83C591.648 353.316 562.187 340.544 533.053 327.046C503.658 313.427 474.585 299.077 446.184 283.481C430.418 274.822 414.868 265.771 399.613 256.239C396.8 254.481 394.205 258.925 397.007 260.677L397.009 260.677Z" fill="#263238"/>
</svg>
