<svg width="90" height="90" viewBox="0 0 90 90" fill="none" xmlns="http://www.w3.org/2000/svg">
<path d="M14.3998 45.0001C14.3998 61.9201 28.0798 75.6001 44.9999 75.6001C61.9199 75.6001 75.5999 61.9201 75.5999 45.0001C75.5999 28.0801 61.9199 14.4001 44.9999 14.4001C28.0798 14.4001 14.3998 28.0801 14.3998 45.0001ZM71.9999 45.0001C71.9999 59.9401 59.9399 72.0001 44.9999 72.0001C30.0598 72.0001 17.9998 59.9401 17.9998 45.0001C17.9998 30.0601 30.0598 18.0001 44.9999 18.0001C59.9399 18.0001 71.9999 30.0601 71.9999 45.0001Z" fill="white"/>
<path d="M41.9402 30.0604L56.8802 45.0004L41.9402 59.9404L44.4602 62.4604L61.9202 45.0004L44.4602 27.5404L41.9402 30.0604Z" fill="white"/>
<path d="M59.4001 46.7998L59.4001 43.1998L28.8001 43.1998L28.8001 46.7998L59.4001 46.7998Z" fill="white"/>
</svg>
