<svg width="756" height="850" viewBox="0 0 756 850" fill="none" xmlns="http://www.w3.org/2000/svg">
<g clip-path="url(#clip0_472_2)">
<g filter="url(#filter0_d_472_2)">
<path d="M144.793 541.097C-123.783 462.399 -365.197 508.306 -452.333 541.097V744.19L1217.08 765.411C1309.61 676.161 1434.95 497.9 1196.1 498.852C897.539 500.042 783.447 528.98 704.325 556.964C612.388 589.48 480.512 639.47 144.793 541.097Z" fill="url(#paint0_linear_472_2)"/>
</g>
<path d="M268.668 424.305L328.624 425.191L359.176 418.642L373.519 407.418L297.072 360.119L319.426 387.927L223.35 352.521L294.771 399.033L191.795 398.986L293.988 418.877L268.668 424.305Z" fill="#00ABF0"/>
<path d="M336.666 378.342L348.372 415.599L385.754 416.827L412.111 416.459L491.666 373.807L436.852 389.763L482.576 342.152L403.005 382.579L366.454 340.997L357.931 387.21L336.666 378.342Z" fill="#00ABF0"/>
<path d="M319.677 421.814L350.724 422.273L366.545 418.882L373.973 413.069L334.385 388.576L345.961 402.976L296.209 384.641L333.194 408.727L279.869 408.703L332.789 419.003L319.677 421.814Z" fill="#F1F1F1"/>
<path d="M354.889 398.013L360.951 417.306L380.309 417.942L393.957 417.751L435.154 395.664L406.769 403.927L430.447 379.272L389.242 400.207L370.314 378.674L365.901 402.605L354.889 398.013Z" fill="#F1F1F1"/>
<g filter="url(#filter1_d_472_2)">
<path fill-rule="evenodd" clip-rule="evenodd" d="M465.003 680.52C466.2 658.557 489.373 534.683 553.907 509.68C565.878 505.042 577.775 499.437 589.152 492.804C588.888 494.237 588.751 495.713 588.751 497.221C588.751 510.633 599.624 521.506 613.036 521.506C626.448 521.506 637.321 510.633 637.321 497.221C637.321 487.859 632.023 479.735 624.263 475.682C628.212 473.619 631.523 470.502 633.823 466.705C640.117 470.397 647.446 472.514 655.27 472.514C678.713 472.514 697.716 453.51 697.716 430.068C697.716 421.403 695.12 413.344 690.662 406.628L690.747 406.628C700.194 406.628 707.852 398.97 707.852 389.523C707.852 380.076 700.194 372.418 690.747 372.418C681.301 372.418 673.642 380.076 673.642 389.523C673.642 390.319 673.697 391.103 673.802 391.871C672.277 391.13 670.702 390.477 669.081 389.92C676.161 355.906 671.649 314.802 649.358 265.775C685.327 286.611 756.929 354.299 755.578 458.365C755 502.859 757.155 540.291 758.855 569.81C761.13 609.332 762.589 634.669 755.578 643.775L465.003 680.52ZM644.501 497.221C644.501 491.273 649.322 486.451 655.27 486.451C661.218 486.451 666.04 491.273 666.04 497.221C666.04 503.169 661.218 507.991 655.27 507.991C649.322 507.991 644.501 503.169 644.501 497.221Z" fill="#00ABF0"/>
<circle cx="37.3777" cy="37.3777" r="37.3777" transform="matrix(-1 0 0 1 692.648 392.691)" fill="white"/>
<circle cx="12.0369" cy="12.0369" r="12.0369" transform="matrix(-1 0 0 1 702.784 377.486)" fill="white"/>
<circle cx="18.7944" cy="18.7944" r="18.7944" transform="matrix(-1 0 0 1 631.83 435.348)" fill="white"/>
<circle cx="655.27" cy="497.221" r="10.3475" transform="rotate(180 655.27 497.221)" fill="white"/>
<circle cx="613.036" cy="497.221" r="19.6391" transform="rotate(180 613.036 497.221)" fill="white"/>
</g>
<g filter="url(#filter2_d_472_2)">
<path d="M339.442 631.47C242.646 617.273 183.189 687.483 165.56 724.363V783.15L694.817 747.933L896.855 674.173C923.87 609.379 948.754 483.617 832.172 498.923C686.446 518.057 646.495 544.677 593.988 618.16C541.481 691.643 460.437 649.217 339.442 631.47Z" fill="#07354C"/>
</g>
<path d="M404.819 553.604L417.701 715.363L379.267 706.283L323.306 657.079L314.015 626.248L319.083 566.486V555.716V543.046L317.393 536.499L314.015 523.407L310.425 507.991L301.555 488.985L296.487 469.558L295.009 456.676L293.531 449.074L295.009 441.894V434.08L298.388 427.323L301.555 422.044V417.609L304.089 411.907L310.425 407.895H320.139L321.828 404.939V402.616L324.573 398.181L331.12 394.169H338.511L343.368 386.144L355.827 379.387L360.895 382.765L366.174 376.853L378.634 373.474L388.348 375.585L395.105 376.853H404.819L411.154 382.765C417.701 392.057 415.144 396.279 417.701 404.939L462.047 468.502V484.973L441.986 505.035C433.891 514.537 417.701 534.134 417.701 536.499C417.701 538.865 409.113 548.888 404.819 553.604Z" fill="#09384C"/>
<path d="M327.53 598.796V613.789L330.064 611.677V601.541L331.753 585.703L333.442 581.268V572.821V544.102H331.753L330.064 546.213V563.318L328.797 594.15L327.53 598.796Z" fill="white"/>
<path d="M411.154 405.361L414.533 406.839L438.607 440.416V442.105L439.874 445.273L441.986 446.751L445.153 451.608L449.165 459.632C450.362 462.378 452.798 468.037 452.967 468.713C453.135 469.389 457.12 475.33 459.091 478.216L439.663 496.799L434.594 504.612C431.708 508.765 425.894 517.198 425.725 517.705C425.556 518.212 420.868 525.8 418.545 529.531L411.577 536.711L410.098 540.301C409.817 541.286 409.169 543.384 408.831 543.89C408.493 544.397 406.157 545.228 405.03 545.58L399.751 546.636L392.571 544.735L382.646 542.201L375.888 539.667L370.82 535.444L364.907 529.531L359.417 521.084L356.46 512.637L355.616 505.668L356.46 502.712H358.361L359.417 505.668L360.684 509.258L364.907 515.593L369.131 519.183V514.115L368.286 508.413L365.541 502.712L366.386 498.066L364.274 494.265H367.653L368.286 496.799L370.82 498.066L371.665 496.799V491.308L370.82 488.985L369.764 485.818V483.706H372.932L379.478 489.83L383.702 491.308L385.18 488.352L387.081 488.985L389.192 488.352L388.136 485.818L385.18 483.706L380.957 479.483V476.315H387.081L388.136 471.88H392.993V466.812H394.894L403.13 474.414L406.508 476.315H408.198V474.414L403.974 469.557L399.329 464.912V463.645L401.863 463.011L404.608 464.912L408.831 467.868L411.999 471.88L414.533 476.315L418.123 480.327L422.346 481.594L424.669 480.327V478.216L422.346 476.315L418.968 475.048L415.8 470.191L412.632 464.912L411.154 461.955L410.732 459.632L414.533 458.999L418.123 459.632L422.98 458.999L428.47 457.732L431.216 456.887V455.409L429.315 453.931H427.415L424.669 454.775H421.291H418.123L412.632 453.931L410.31 452.664L408.198 450.341L415.8 439.571V434.503L414.533 433.236L412.632 434.503L411.999 436.192L411.154 439.571L408.198 444.639C407.001 445.343 404.481 446.751 403.974 446.751C403.468 446.751 401.511 447.314 400.596 447.595L388.981 444.006L380.112 444.639L378.211 442.95H375.888L369.553 444.639L363.007 436.192L357.305 423.944L365.752 419.087H371.031L375.888 422.677L378.845 425.633L378.211 421.199L375.255 419.087L376.522 417.398L380.957 419.087L385.18 425.633V429.223L387.081 431.335L368.708 438.515L387.081 436.192L390.037 431.335V427.534L388.136 422.677V420.143V417.398V416.342H392.36H397.85V419.087L399.329 420.143L401.863 416.342L403.13 413.385L405.664 410.851L407.353 407.895L411.154 405.361Z" fill="white"/>
<path d="M359.839 415.708H357.094L356.249 415.075L355.616 412.118V407.05L351.815 400.504L348.436 398.392L349.28 393.535L350.759 390.368L353.504 389.101L359.839 390.368V392.691L360.684 396.703L362.373 407.05V412.118L359.839 415.708Z" fill="white"/>
<path d="M340.411 416.131L339.566 412.963L340.411 411.063L343.368 412.33V415.075L345.479 417.82L344.635 420.565L343.368 422.255H342.1L340.411 416.131Z" fill="white"/>
<path d="M313.17 448.018L316.549 449.074L314.015 439.993V431.758H309.158L307.468 430.49L309.158 425L313.17 421.621L316.549 424.366V428.168L318.027 430.49L322.673 445.061L323.306 448.018L326.685 453.931L327.952 458.788L326.685 460.688V464.701H322.673L320.772 466.39L318.027 467.235L315.282 466.39L313.17 462.589L309.158 458.788L306.412 452.241V448.018H313.17Z" fill="white"/>
<path d="M346.958 468.079H344.212L342.945 459.844L339.778 458.999L335.977 457.098L334.076 452.241V439.993L332.809 437.459V429.646L324.362 421.832V416.342L330.275 411.485L337.666 412.33V416.342L339.778 419.087V421.832L341.256 423.099V427.112L344.212 432.813L342.945 437.459L345.479 439.993V446.751L346.958 448.018L349.28 454.987L348.647 458.999L350.336 460.688V463.856L351.392 466.39L348.647 469.135L346.958 468.079Z" fill="white"/>
<path d="M371.242 412.33L372.932 413.597V415.075L371.242 415.92H368.497L367.019 416.764H365.541L364.274 415.92L365.541 413.597L368.497 412.33H371.242Z" fill="white"/>
<path d="M413.899 395.647L414.744 400.082H413.266L411.576 398.815L407.986 395.647H402.074L401.229 394.802L398.906 393.958L398.272 392.057L396.583 391.423L395.316 392.057L394.471 395.647L391.937 396.492L390.881 397.97L389.192 400.082L379.9 408.951L376.733 409.584L374.621 408.951V407.261L376.733 401.771L379.9 397.97L381.379 393.113V387.411L379.9 384.666L376.733 382.343V380.865L379.9 376.853H385.391L396.583 384.666L399.54 385.933L403.552 388.678H407.986L411.576 391.423L413.899 395.647Z" fill="white"/>
<path d="M367.864 450.974L365.33 454.353H360.684L357.939 455.831H355.616L352.659 453.508H350.547L349.069 450.974L347.802 447.384L349.069 445.906H350.547L352.659 449.707L355.616 450.974H358.783L360.684 450.341L361.951 448.651L365.33 447.384L367.864 450.974Z" fill="white"/>
<path d="M347.38 472.092H352.659L348.013 479.483L344.001 488.774L341.678 493.842L339.566 501.867L339.144 505.035L340.833 506.724L341.678 510.525V520.45L349.491 529.32L358.783 537.133L364.907 540.089V538.611L365.541 537.133L369.553 538.611L380.323 543.679L388.981 545.58L395.738 549.592L389.403 547.269H385.391L380.956 545.158L374.621 543.046H369.553C367.582 542.483 363.176 541.356 361.317 541.356C359.459 541.356 359.557 543.89 359.839 545.158L371.454 546.002L377.578 548.747L390.037 550.226C392.008 551.704 396.499 554.491 398.695 553.816C401.44 552.971 403.129 553.604 403.763 554.66C404.27 555.505 402.989 557.828 402.285 558.884L401.229 626.459C397.076 629.908 386.911 637.44 379.478 639.974C372.045 642.508 369.483 647.225 369.131 649.266L366.808 683.265L354.56 673.762C355.756 648.703 358.53 598.078 360.05 596.05C361.571 594.023 361.106 590.56 360.684 589.082V575.144C360.684 575.144 363.007 569.442 363.64 566.275C364.274 563.107 362.373 560.784 362.373 558.25C362.373 556.223 364.485 555.998 365.541 556.139C366.033 554.731 366.09 551.873 362.373 551.704C357.727 551.493 358.15 552.126 357.094 552.971C356.249 553.647 357.446 555.927 358.15 556.983C358.502 558.25 358.994 561.08 358.15 562.263C357.305 563.445 355.545 570.921 354.771 574.511C355.545 576.482 357.305 582.028 358.15 588.448C358.994 594.868 353.574 600.837 350.759 603.019L354.771 607.876V612.522L352.237 619.068L350.759 628.571L352.237 630.894L353.504 634.273L352.237 637.651L346.746 643.353L342.945 661.092L339.144 662.781L347.38 556.983L348.436 554.66H350.759V552.971L349.491 551.282L342.523 544.524V541.356L343.79 540.089H347.38V538.611L346.535 537.133H342.523L340.833 534.599L339.144 531.009L334.709 527.419L329.641 524.04V521.295L331.331 518.339L333.654 517.072L334.709 514.537H338.299V512.637L333.654 511.37L329.641 517.072L327.318 518.339V519.817L324.362 522.14L322.884 521.295L322.039 506.724L315.915 499.966V496.799V488.563L314.859 481.172L313.803 474.837V469.98H325.418L327.318 467.446L333.654 473.359L340.833 474.837L347.38 472.092Z" fill="white"/>
<path d="M333.443 638.707L335.766 643.353L338.722 628.149L340.2 619.279L341.045 597.317L342.945 558.673L340.411 559.517L338.722 590.137L337.666 598.584V612.733V619.279V623.292L335.766 628.993L333.443 638.707Z" fill="white"/>
<path d="M259.731 278.867L310.766 292.085L340.722 284.789L359.383 265.03L320.356 155.647L323.883 215.645L261.275 126.349L296.425 233.199L207.939 213.453L284.557 272.821L259.731 278.867Z" fill="white"/>
<path d="M344.109 199.724L333.153 276.629L364.591 286.224L387.454 290.516L479.897 220.215L423.78 241.734L489.941 155.038L398.74 220.877L390.78 130.564L357.384 221.556L344.109 199.724Z" fill="white"/>
<path d="M304.981 283.609L331.409 290.453L346.921 286.676L356.585 276.444L336.375 219.801L338.201 250.87L305.781 204.629L323.983 259.96L278.161 249.735L317.837 280.478L304.981 283.609Z" fill="#00ABF0"/>
<path d="M348.675 242.625L343.002 282.45L359.282 287.418L371.121 289.641L418.991 253.237L389.932 264.38L424.193 219.486L376.965 253.579L372.844 206.812L355.55 253.931L348.675 242.625Z" fill="#00ABF0"/>
<path d="M269.175 353.786C269.602 349.675 266.806 347.213 264.882 346.235C264.454 346.018 264.03 345.791 263.653 345.494L261.541 343.831L258.889 341.36C258.361 340.868 257.955 340.26 257.703 339.585L256.899 337.429C256.708 336.917 256.609 336.375 256.607 335.829L256.592 332.928C256.59 332.475 256.654 332.025 256.782 331.592L260.408 319.282L262.319 312.797C262.476 312.263 262.728 311.761 263.064 311.316L264.111 309.925C264.517 309.386 265.035 308.941 265.631 308.623L299.486 290.508L306.582 287.667C307.33 287.368 308.142 287.268 308.939 287.377L313.96 288.065C314.454 288.133 314.934 288.279 315.381 288.499L320.282 290.911L324.276 292.816C324.825 293.078 325.419 293.23 326.026 293.262L332.606 293.618C333.093 293.644 333.582 293.594 334.053 293.468L390.754 278.352C391.181 278.238 391.589 278.064 391.967 277.835L409.758 267.044C410.375 266.669 411.076 266.442 411.796 266.392C438.797 264.523 460.23 275.112 468.86 276.786C474.167 277.815 480.44 280.784 484.672 283.116C486.63 284.195 489.361 284.044 491.59 283.868C492.461 283.799 493.496 283.813 494.705 283.96C496.125 284.133 497.163 284.543 497.911 285.051C499.673 286.251 501.095 288.485 503.14 289.087L509.038 290.825C509.402 290.932 509.752 291.084 510.079 291.276L510.339 291.429C510.834 291.72 511.378 291.916 511.944 292.009L513.408 292.248C514.092 292.36 514.76 292.611 515.223 293.128C517.133 295.259 519.854 301.002 519.682 312.013C519.505 323.395 512.101 331.359 507.335 334.744C506.423 335.391 505.279 335.572 504.181 335.362C499.682 334.5 492.709 333.126 491.143 332.664C490.883 332.587 490.618 332.569 490.352 332.596C487.704 332.872 484.804 334.074 482.389 332.953C480.427 332.043 478.529 331.651 477.855 332.932C476.703 335.123 467.935 339.717 463.155 342.004C462.752 342.197 462.331 342.325 461.889 342.392C457.984 342.981 438.024 345.951 436.795 345.271C435.091 344.329 413.925 346.679 405.678 347.771L405.638 347.777C397.422 348.865 394.884 349.201 382.527 337.428C370.151 325.637 359.384 336.774 355.201 337.523C351.918 338.111 339.547 356.211 333.438 365.696C333.206 366.057 332.938 366.371 332.616 366.654C323.553 374.59 303.965 389.478 294.328 388.715C282.066 387.744 274.254 374.655 272.646 372.64C271.039 370.626 268.577 359.554 269.175 353.786Z" fill="#07354C"/>
<path d="M399.464 297.372L418.368 295.829L418.509 297.549L399.605 299.092L373.354 299.092L345.625 308.692L328.402 310.098L319.878 314.461L316.747 312.373L328.212 307.771L345.435 306.365L372.087 297.372L399.464 297.372Z" fill="white"/>
<path d="M361.423 313.239L371.836 312.234L371.942 313.333L361.529 314.338L331.883 320.529L322.396 321.445L317.762 324.242L315.998 322.911L322.252 319.957L331.739 319.041L361.423 313.239Z" fill="white"/>
<path d="M510.765 292.214C506.994 294.552 499.148 302.353 497.932 314.851C496.715 327.349 499.35 332.954 500.819 334.194" stroke="white" stroke-width="1.68939" stroke-linecap="round"/>
<path d="M498.827 287.156C489.663 286.878 483.002 297.427 480.672 309.766C478.229 322.695 485.002 331.589 486.471 332.829" stroke="white" stroke-width="1.68939" stroke-linecap="round"/>
<path d="M492.643 285.114C483.692 286.219 478.104 296.295 475.876 309.013C473.542 322.34 478.355 330.71 480.096 332.051" stroke="white" stroke-width="1.68939" stroke-linecap="round"/>
<g clip-path="url(#clip1_472_2)">
<path d="M82.1673 612.817L83.1177 615.24M26.4361 634.677C24.4144 616.122 38.9709 596.209 56.2234 589.442C73.4758 582.675 90.4196 590.232 101.552 605.213C103.593 623.816 96.2865 640.829 79.0341 647.596C61.7817 654.364 37.5876 649.706 26.4361 634.677Z" stroke="white" stroke-width="2.15305" stroke-linecap="round" stroke-linejoin="round"/>
<path d="M83.7472 645.356C74.2057 639.575 66.8299 630.816 62.7561 620.431C58.6822 610.045 58.1364 598.607 61.2026 587.88M26.331 627.281C21.2556 614.342 10.5152 607.203 -4.18982 610.343C-6.18467 619.513 0.46846 636.475 9.28061 641.406C6.12268 651.032 12.7758 667.994 20.5218 673.343C33.44 665.648 36.4628 653.111 31.3874 640.172" stroke="white" stroke-width="2.15305" stroke-linecap="round" stroke-linejoin="round"/>
<path d="M36.6169 604.178C32.7336 597.985 24.6246 591.995 16.5974 588.21L44.7053 577.185C47.0015 576.274 49.5466 576.21 51.8859 577.003C54.2251 577.796 56.2063 579.395 57.4753 581.514L61.2512 587.861M83.7958 645.337L85.3424 652.559C85.8526 654.976 85.4869 657.495 84.3107 659.667C83.1344 661.839 81.2243 663.523 78.9214 664.416L58.0828 672.59C60.6899 665.425 60.5672 657.55 57.7381 650.47" stroke="white" stroke-width="2.15305" stroke-linecap="round" stroke-linejoin="round"/>
</g>
<g clip-path="url(#clip2_472_2)">
<path d="M233.918 663.051L232.266 665.062M187.655 625.057C202.867 614.243 227.351 617.24 241.672 629.002C255.994 640.763 257.659 659.241 250.01 676.266C234.764 687.12 216.348 689.038 202.027 677.277C187.705 665.515 179.972 642.122 187.655 625.057Z" stroke="white" stroke-width="2.15305" stroke-linecap="round" stroke-linejoin="round"/>
<path d="M206.28 680.299C206.675 669.149 210.724 658.439 217.804 649.817C224.885 641.196 234.604 635.141 245.464 632.587M194.06 621.358C202.881 610.617 203.875 597.759 193.963 586.452C184.984 589.183 173.421 603.263 173.413 613.361C163.469 615.299 151.906 629.379 151.013 638.75C164.031 646.275 176.451 642.8 185.272 632.059" stroke="white" stroke-width="2.15305" stroke-linecap="round" stroke-linejoin="round"/>
<path d="M219.245 619.071C222.759 612.661 224.033 602.66 223.423 593.806L246.756 612.968C248.671 614.529 249.968 616.719 250.417 619.148C250.865 621.577 250.435 624.087 249.204 626.228L245.504 632.62M206.321 680.332L200.77 685.204C198.909 686.828 196.531 687.737 194.061 687.77C191.592 687.802 189.191 686.955 187.288 685.381L169.989 671.174C177.516 669.956 184.331 666.009 189.132 660.086" stroke="white" stroke-width="2.15305" stroke-linecap="round" stroke-linejoin="round"/>
</g>
<g clip-path="url(#clip3_472_2)">
<path d="M678.625 596.099L678.032 597.124M702.217 609.72C704.386 601.508 699.189 591.56 691.886 587.343C684.582 583.127 676.445 585.376 670.419 591.361C668.237 599.593 670.369 607.744 677.673 611.961C684.976 616.177 696.178 615.725 702.217 609.72Z" stroke="white" stroke-width="0.979749" stroke-linecap="round" stroke-linejoin="round"/>
<path d="M675.704 610.633C680.39 608.679 684.304 605.239 686.842 600.843C689.38 596.446 690.403 591.337 689.751 586.302M702.766 606.399C705.929 600.921 711.246 598.439 717.65 600.85C717.924 605.112 713.779 612.292 709.479 613.912C710.246 618.458 706.101 625.638 702.252 627.519C696.962 623.179 696.453 617.333 699.616 611.856" stroke="white" stroke-width="0.979749" stroke-linecap="round" stroke-linejoin="round"/>
<path d="M699.707 595.305C701.875 592.782 705.93 590.638 709.799 589.48L697.901 582.61C696.929 582.044 695.789 581.842 694.682 582.04C693.576 582.238 692.576 582.823 691.861 583.691L689.731 586.29M675.684 610.621L674.497 613.765C674.103 614.818 674.097 615.977 674.479 617.034C674.86 618.091 675.606 618.978 676.581 619.536L685.402 624.63C684.716 621.228 685.306 617.694 687.06 614.7" stroke="white" stroke-width="0.979749" stroke-linecap="round" stroke-linejoin="round"/>
</g>
<g filter="url(#filter3_d_472_2)">
<path d="M432.715 678.25C369.757 658.672 309.067 705.318 294.798 723.599L332.649 794.393L789.576 723.599C798.983 681.199 753.677 578.091 642.179 606.941C581.552 622.628 561.391 640.652 548.245 656.495C532.97 674.903 511.412 702.723 432.715 678.25Z" fill="#00ABF0"/>
</g>
<g filter="url(#filter4_d_472_2)">
<path d="M271.574 658.087C141.827 579.389 25.2007 625.296 -16.8938 658.087V861.18L789.59 882.401C834.289 793.151 894.84 614.89 779.453 615.842C635.22 617.032 580.103 645.97 541.88 673.954C497.465 706.47 433.757 756.46 271.574 658.087Z" fill="#00ABF0"/>
</g>
<g filter="url(#filter5_d_472_2)">
<path d="M118.607 723.973C-149.968 645.275 -391.383 691.182 -478.518 723.973V927.066L1190.9 948.287C1283.43 859.037 1408.77 680.776 1169.92 681.728C871.353 682.918 757.261 711.856 678.14 739.84C586.203 772.356 454.327 822.346 118.607 723.973Z" fill="url(#paint1_linear_472_2)"/>
</g>
<circle cx="69.4761" cy="368.194" r="5.27933" fill="white"/>
<circle cx="43.2906" cy="378.331" r="10.7698" fill="white"/>
<circle cx="63.9856" cy="401.56" r="6.12402" fill="white"/>
<circle cx="32.3096" cy="420.565" r="16.6827" fill="white"/>
<circle cx="70.7432" cy="441.683" r="12.0369" fill="white"/>
<rect x="-82.3577" y="-26.0659" width="112.766" height="878.48" fill="url(#paint2_linear_472_2)"/>
<rect width="112.766" height="878.48" transform="matrix(-1 0 0 1 835.824 -41.2704)" fill="url(#paint3_linear_472_2)"/>
</g>
<defs>
<filter id="filter0_d_472_2" x="-477.927" y="466.981" width="1837.29" height="318.956" filterUnits="userSpaceOnUse" color-interpolation-filters="sRGB">
<feFlood flood-opacity="0" result="BackgroundImageFix"/>
<feColorMatrix in="SourceAlpha" type="matrix" values="0 0 0 0 0 0 0 0 0 0 0 0 0 0 0 0 0 0 127 0" result="hardAlpha"/>
<feOffset dy="-5.06816"/>
<feGaussianBlur stdDeviation="12.7971"/>
<feComposite in2="hardAlpha" operator="out"/>
<feColorMatrix type="matrix" values="0 0 0 0 0 0 0 0 0 0 0 0 0 0 0 0 0 0 0.2 0"/>
<feBlend mode="normal" in2="BackgroundImageFix" result="effect1_dropShadow_472_2"/>
<feBlend mode="normal" in="SourceGraphic" in2="effect1_dropShadow_472_2" result="shape"/>
</filter>
<filter id="filter1_d_472_2" x="453.853" y="256.315" width="318.03" height="437.044" filterUnits="userSpaceOnUse" color-interpolation-filters="sRGB">
<feFlood flood-opacity="0" result="BackgroundImageFix"/>
<feColorMatrix in="SourceAlpha" type="matrix" values="0 0 0 0 0 0 0 0 0 0 0 0 0 0 0 0 0 0 127 0" result="hardAlpha"/>
<feOffset dy="1.68939"/>
<feGaussianBlur stdDeviation="5.57497"/>
<feComposite in2="hardAlpha" operator="out"/>
<feColorMatrix type="matrix" values="0 0 0 0 0 0 0 0 0 0 0 0 0 0 0 0 0 0 0.25 0"/>
<feBlend mode="normal" in2="BackgroundImageFix" result="effect1_dropShadow_472_2"/>
<feBlend mode="normal" in="SourceGraphic" in2="effect1_dropShadow_472_2" result="shape"/>
</filter>
<filter id="filter2_d_472_2" x="154.917" y="478.976" width="775.174" height="306.792" filterUnits="userSpaceOnUse" color-interpolation-filters="sRGB">
<feFlood flood-opacity="0" result="BackgroundImageFix"/>
<feColorMatrix in="SourceAlpha" type="matrix" values="0 0 0 0 0 0 0 0 0 0 0 0 0 0 0 0 0 0 127 0" result="hardAlpha"/>
<feOffset dy="-8.02458"/>
<feGaussianBlur stdDeviation="5.32156"/>
<feComposite in2="hardAlpha" operator="out"/>
<feColorMatrix type="matrix" values="0 0 0 0 0 0 0 0 0 0 0 0 0 0 0 0 0 0 0.25 0"/>
<feBlend mode="normal" in2="BackgroundImageFix" result="effect1_dropShadow_472_2"/>
<feBlend mode="normal" in="SourceGraphic" in2="effect1_dropShadow_472_2" result="shape"/>
</filter>
<filter id="filter3_d_472_2" x="269.204" y="571.26" width="547.173" height="243.659" filterUnits="userSpaceOnUse" color-interpolation-filters="sRGB">
<feFlood flood-opacity="0" result="BackgroundImageFix"/>
<feColorMatrix in="SourceAlpha" type="matrix" values="0 0 0 0 0 0 0 0 0 0 0 0 0 0 0 0 0 0 127 0" result="hardAlpha"/>
<feOffset dy="-5.06816"/>
<feGaussianBlur stdDeviation="12.7971"/>
<feComposite in2="hardAlpha" operator="out"/>
<feColorMatrix type="matrix" values="0 0 0 0 0 0 0 0 0 0 0 0 0 0 0 0 0 0 0.2 0"/>
<feBlend mode="normal" in2="BackgroundImageFix" result="effect1_dropShadow_472_2"/>
<feBlend mode="normal" in="SourceGraphic" in2="effect1_dropShadow_472_2" result="shape"/>
</filter>
<filter id="filter4_d_472_2" x="-42.488" y="583.971" width="914.042" height="318.956" filterUnits="userSpaceOnUse" color-interpolation-filters="sRGB">
<feFlood flood-opacity="0" result="BackgroundImageFix"/>
<feColorMatrix in="SourceAlpha" type="matrix" values="0 0 0 0 0 0 0 0 0 0 0 0 0 0 0 0 0 0 127 0" result="hardAlpha"/>
<feOffset dy="-5.06816"/>
<feGaussianBlur stdDeviation="12.7971"/>
<feComposite in2="hardAlpha" operator="out"/>
<feColorMatrix type="matrix" values="0 0 0 0 0 0 0 0 0 0 0 0 0 0 0 0 0 0 0.2 0"/>
<feBlend mode="normal" in2="BackgroundImageFix" result="effect1_dropShadow_472_2"/>
<feBlend mode="normal" in="SourceGraphic" in2="effect1_dropShadow_472_2" result="shape"/>
</filter>
<filter id="filter5_d_472_2" x="-504.113" y="649.857" width="1837.29" height="318.956" filterUnits="userSpaceOnUse" color-interpolation-filters="sRGB">
<feFlood flood-opacity="0" result="BackgroundImageFix"/>
<feColorMatrix in="SourceAlpha" type="matrix" values="0 0 0 0 0 0 0 0 0 0 0 0 0 0 0 0 0 0 127 0" result="hardAlpha"/>
<feOffset dy="-5.06816"/>
<feGaussianBlur stdDeviation="12.7971"/>
<feComposite in2="hardAlpha" operator="out"/>
<feColorMatrix type="matrix" values="0 0 0 0 0 0 0 0 0 0 0 0 0 0 0 0 0 0 0.2 0"/>
<feBlend mode="normal" in2="BackgroundImageFix" result="effect1_dropShadow_472_2"/>
<feBlend mode="normal" in="SourceGraphic" in2="effect1_dropShadow_472_2" result="shape"/>
</filter>
<linearGradient id="paint0_linear_472_2" x1="-452.333" y1="631.527" x2="1333.77" y2="631.527" gradientUnits="userSpaceOnUse">
<stop stop-color="#00ABF0"/>
<stop offset="1" stop-color="#00628A"/>
</linearGradient>
<linearGradient id="paint1_linear_472_2" x1="-478.518" y1="814.403" x2="1307.58" y2="814.403" gradientUnits="userSpaceOnUse">
<stop stop-color="#00ABF0"/>
<stop offset="1" stop-color="#00628A"/>
</linearGradient>
<linearGradient id="paint2_linear_472_2" x1="-25.7633" y1="306.961" x2="36.1308" y2="305.427" gradientUnits="userSpaceOnUse">
<stop stop-color="#6555FF" stop-opacity="0"/>
<stop offset="1" stop-color="#3726DA"/>
</linearGradient>
<linearGradient id="paint3_linear_472_2" x1="56.5944" y1="333.027" x2="118.488" y2="331.493" gradientUnits="userSpaceOnUse">
<stop stop-color="#6555FF" stop-opacity="0"/>
<stop offset="1" stop-color="#3726DA"/>
</linearGradient>
<clipPath id="clip0_472_2">
<rect width="756" height="848.072" fill="white" transform="translate(0 0.964233)"/>
</clipPath>
<clipPath id="clip1_472_2">
<rect width="124.936" height="124.936" fill="white" transform="translate(-27.8748 588.878) rotate(-21.4173)"/>
</clipPath>
<clipPath id="clip2_472_2">
<rect width="124.936" height="124.936" fill="white" transform="translate(201.151 555.307) rotate(39.3945)"/>
</clipPath>
<clipPath id="clip3_472_2">
<rect width="56.8523" height="56.8523" fill="white" transform="matrix(-0.866025 -0.5 -0.5 0.866025 729.764 592.8)"/>
</clipPath>
</defs>
</svg>
