<svg width="525" height="407" viewBox="0 0 525 407" fill="none" xmlns="http://www.w3.org/2000/svg">
<path d="M373.828 117.283H344.731V128.11H373.828V117.283Z" fill="#EBEBEB"/>
<path d="M357.599 130.936H328.502V141.762H357.599V130.936Z" fill="#EBEBEB"/>
<path d="M390.069 130.936H360.972V141.762H390.069V130.936Z" fill="#EBEBEB"/>
<path d="M494.522 219.851H465.425V230.678H494.522V219.851Z" fill="#EBEBEB"/>
<path d="M494.522 14.6968H465.425V25.5234H494.522V14.6968Z" fill="#EBEBEB"/>
<path d="M510.751 28.3486H481.655V39.1753H510.751V28.3486Z" fill="#EBEBEB"/>
<path d="M47.3698 46.3735H18.2732V57.2001H47.3698V46.3735Z" fill="#EBEBEB"/>
<path d="M16.1854 252.215H45.282V241.388H16.1854V252.215Z" fill="#EBEBEB"/>
<path d="M32.4258 238.562H61.5225V227.736H32.4258V238.562Z" fill="#EBEBEB"/>
<path d="M464.074 79.8018H269.001V87.3291H464.074V79.8018Z" fill="#EBEBEB"/>
<path d="M288.494 87.3389H279.934V112.253H288.494V87.3389Z" fill="#EBEBEB"/>
<path d="M288.494 87.3389H279.934V95.0404H288.494V87.3389Z" fill="#DBDBDB"/>
<path d="M453.141 87.3389H444.581V112.253H453.141V87.3389Z" fill="#EBEBEB"/>
<path d="M453.141 87.3389H444.581V95.0404H453.141V87.3389Z" fill="#DBDBDB"/>
<path d="M319.14 79.8017V31.8027H305.415V79.8017H319.14Z" fill="#C7C7C7"/>
<path d="M319.151 34.5113V29.2383H305.426V34.5113H319.151Z" fill="#DBDBDB"/>
<path d="M319.14 43.2196V41.2651H305.415V43.2196H319.14Z" fill="#DBDBDB"/>
<path d="M320.854 73.5128V68.2397H305.416V73.5128H320.854Z" fill="#DBDBDB"/>
<path d="M328.732 79.8114V23.811H319.14V79.8114H328.732Z" fill="#DBDBDB"/>
<path d="M326.777 50.6114V29.0742H321.019V50.6114H326.777Z" fill="#EBEBEB"/>
<path d="M396.98 73.829L351.75 34.4595L345.006 40.4663L390.236 79.8359L396.98 73.829Z" fill="#C7C7C7"/>
<path d="M385.022 65.7641L367.627 50.623L363.58 54.2285L380.974 69.3696L385.022 65.7641Z" fill="#DBDBDB"/>
<path d="M345.017 79.8112V37.2788H328.721V79.8112H345.017Z" fill="#A6A6A6"/>
<path d="M345.028 75.3028V71.3359H328.732V75.3028H345.028Z" fill="#C7C7C7"/>
<path d="M345.017 68.743V67.2046H328.721V68.743H345.017Z" fill="#C7C7C7"/>
<path d="M305.416 79.8113V39.8428H294.164V79.8113H305.416Z" fill="#A6A6A6"/>
<path d="M305.405 75.5736V71.8486H294.153V75.5736H305.405Z" fill="#C7C7C7"/>
<path d="M305.405 51.8109V48.0859H294.153V51.8109H305.405Z" fill="#C7C7C7"/>
<path d="M305.405 55.7971V54.3555H294.153V55.7971H305.405Z" fill="#C7C7C7"/>
<path d="M443.558 61.1765L442.328 64.0307L441.581 65.7722L440.361 68.6264L435.559 79.811H409.649L404.836 68.6264L403.617 65.7722L402.869 64.0307L401.639 61.1765L411.198 48.9082L406.243 40.8101H438.976L433.999 48.9082L443.558 61.1765Z" fill="#DBDBDB"/>
<path d="M443.558 61.1768L442.328 64.031H402.869L401.639 61.1768H443.558Z" fill="#A6A6A6"/>
<path d="M441.581 65.7725L440.361 68.6267H404.836L403.617 65.7725H441.581Z" fill="#A6A6A6"/>
<path d="M215.708 0H69.5437V197.337H215.708V0Z" fill="#EBEBEB"/>
<path d="M139.22 7.90479H77.4993V95.6787H139.22V7.90479Z" fill="white"/>
<path d="M207.731 7.90479H146.01V95.6787H207.731V7.90479Z" fill="white"/>
<path d="M139.22 101.658H77.4993V189.432H139.22V101.658Z" fill="white"/>
<path d="M207.731 101.658H146.01V189.432H207.731V101.658Z" fill="white"/>
<path d="M104.167 0H69.5437V282.324H104.167V0Z" fill="#DBDBDB"/>
<path d="M97.5965 13.4194L97.8602 43.9449L97.9591 74.4703L98.1459 135.521L97.9591 196.572L97.8602 227.098L97.5965 257.623L97.3218 227.098L97.2229 196.572L97.0471 135.521L97.2339 74.4703L97.3218 43.9449L97.5965 13.4194Z" fill="#EBEBEB"/>
<path d="M81.6971 20.5015L81.9608 47.7567L82.1147 75.0119L82.2465 129.522L82.1147 184.042L81.9608 211.298L81.6971 238.553L81.4334 211.298L81.2796 184.042L81.1477 129.522L81.2796 75.0119L81.4334 47.7567L81.6971 20.5015Z" fill="#EBEBEB"/>
<path d="M89.6417 26.936L89.9164 58.8547L90.0153 90.7637L90.1911 154.601L90.0153 218.429L89.9164 250.347L89.6417 282.257L89.378 250.347L89.2791 218.429L89.1033 154.601L89.2791 90.7637L89.378 58.8547L89.6417 26.936Z" fill="#EBEBEB"/>
<path d="M75.7852 15.0352L76.049 48.4342L76.1479 81.8428L76.3347 148.641L76.1479 215.449L76.06 248.857L75.7852 282.256L75.5215 248.857L75.4226 215.449L75.2358 148.641L75.4226 81.8428L75.5215 48.4342L75.7852 15.0352Z" fill="#EBEBEB"/>
<path d="M181.074 282.324H215.698L215.698 9.15527e-05H181.074L181.074 282.324Z" fill="#DBDBDB"/>
<path d="M187.644 13.4194L187.908 43.9449L188.007 74.4703L188.194 135.521L188.007 196.572L187.919 227.098L187.644 257.623L187.381 227.098L187.282 196.572L187.095 135.521L187.282 74.4703L187.381 43.9449L187.644 13.4194Z" fill="#EBEBEB"/>
<path d="M203.545 20.5015L203.808 47.7567L203.962 75.0119L204.094 129.522L203.962 184.042L203.808 211.298L203.545 238.553L203.27 211.298L203.116 184.042L202.995 129.522L203.116 75.0119L203.27 47.7567L203.545 20.5015Z" fill="#EBEBEB"/>
<path d="M195.589 26.936L195.864 58.8547L195.963 90.7637L196.139 154.601L195.963 218.429L195.864 250.347L195.589 282.257L195.325 250.347L195.227 218.429L195.04 154.601L195.227 90.7637L195.325 58.8547L195.589 26.936Z" fill="#EBEBEB"/>
<path d="M209.456 15.0352L209.72 48.4342L209.819 81.8428L210.006 148.641L209.819 215.449L209.72 248.857L209.456 282.256L209.182 248.857L209.083 215.449L208.907 148.641L209.094 81.8428L209.182 48.4342L209.456 15.0352Z" fill="#EBEBEB"/>
<path d="M0 295.299L65.5993 295.057L131.188 294.979L262.375 294.815L393.563 294.979L459.151 295.057L524.75 295.299L459.151 295.531L393.563 295.618L262.375 295.782L131.188 295.618L65.5993 295.531L0 295.299Z" fill="#263238"/>
<path d="M438.01 406.845C476.727 406.845 508.114 402.318 508.114 396.734C508.114 391.15 476.727 386.624 438.01 386.624C399.292 386.624 367.905 391.15 367.905 396.734C367.905 402.318 399.292 406.845 438.01 406.845Z" fill="#EBEBEB"/>
<path d="M257.277 381.06C381.24 381.06 481.732 370.044 481.732 356.456C481.732 342.867 381.24 331.852 257.277 331.852C133.313 331.852 32.8215 342.867 32.8215 356.456C32.8215 370.044 133.313 381.06 257.277 381.06Z" fill="#EBEBEB"/>
<path d="M372.081 310.944H151.779L220.95 168.775H441.262L372.081 310.944Z" fill="#263238"/>
<path d="M222.576 171.804H439.79L372.081 310.944H155.691L222.576 171.804Z" fill="#EBEBEB"/>
<path d="M222.576 171.804C223.455 185.209 221.708 198.647 217.412 211.53C210.324 231.945 175.206 272.833 168.372 300.407L155.691 310.944H372.081L439.79 171.804H222.576Z" fill="#DBDBDB"/>
<path d="M222.576 171.804C221.794 183.23 219.8 194.567 216.62 205.667C215.021 211.237 212.779 216.647 209.929 221.815C207.094 226.982 203.995 232.003 200.874 237.025C194.556 247.01 188.172 256.965 182.315 267.153C179.36 272.243 176.635 277.419 174.074 282.634C171.537 287.892 169.311 293.263 167.405 298.724C169.113 293.202 171.171 287.769 173.569 282.45C176.041 277.158 178.689 271.933 181.557 266.795C187.271 256.511 193.644 246.545 199.918 236.531C203.061 231.529 206.182 226.527 209.028 221.399C211.862 216.284 214.133 210.942 215.807 205.445C217.525 199.939 218.915 194.359 219.972 188.726C221.082 183.162 221.928 177.493 222.576 171.804Z" fill="#DBDBDB"/>
<path d="M220.356 180.057C218.704 191.066 215.557 201.86 210.983 212.208C208.689 217.378 206.074 222.433 203.149 227.35C200.292 232.294 197.325 237.18 194.358 242.076C188.414 251.828 182.667 261.678 177.645 271.808C176.349 274.333 175.195 276.907 173.986 279.461C172.778 282.015 171.701 284.608 170.69 287.201C168.492 292.397 166.8 297.718 165.108 303.059C167.959 292.251 171.89 281.686 176.854 271.488C181.733 261.262 187.502 251.383 193.336 241.592C196.303 236.754 199.303 231.839 202.127 226.924C204.951 222.009 207.731 217.026 210.071 211.908C212.409 206.778 214.426 201.539 216.115 196.215C217.9 190.91 219.316 185.514 220.356 180.057Z" fill="#DBDBDB"/>
<path d="M291.307 318.829H502.895L431.274 171.765H222.576C222.576 171.765 221.752 194.018 235.597 226.237C248.64 256.617 272.77 274.855 291.307 318.829Z" fill="white"/>
<path d="M290.065 318.829C287.054 312.637 283.78 306.561 280.121 300.659C276.462 294.757 272.495 289.049 268.364 283.35C260.122 272.039 250.881 261.3 242.849 249.767C238.802 243.997 235.258 237.964 232.246 231.723C229.372 225.41 227.286 218.84 226.026 212.13C224.647 205.481 223.694 198.769 223.169 192.025C222.582 185.298 222.384 178.549 222.576 171.804C223.515 185.216 225.349 198.569 228.07 211.792C228.795 215.081 229.685 218.332 230.641 221.564C231.578 224.788 232.741 227.958 234.124 231.055C237.058 237.227 240.518 243.194 244.475 248.906C252.332 260.4 261.32 271.333 269.407 282.769C277.603 294.172 284.521 306.249 290.065 318.829Z" fill="white"/>
<path d="M224.642 176.052C225.674 181.75 226.982 187.411 228.52 193.012C230.059 198.614 231.817 204.178 233.806 209.654C237.69 220.66 242.81 231.297 249.09 241.408C252.269 246.446 255.493 251.467 258.76 256.473L268.594 271.459C271.891 276.471 275.055 281.512 278.044 286.659C281.033 291.807 283.758 297.06 286.197 302.42C280.804 291.905 274.683 281.691 267.869 271.837C261.177 261.91 254.54 251.945 248.09 241.844C241.813 231.665 236.746 220.943 232.971 209.847C229.116 198.809 226.33 187.504 224.642 176.052Z" fill="#EBEBEB"/>
<path d="M295.669 321.857H515.971L441.405 168.775H221.093L295.669 321.857Z" fill="#37474F"/>
<path d="M437.867 321.857H486.336L411.77 168.775H363.301L437.867 321.857Z" fill="#455A64"/>
<path d="M318.58 321.857H336.128L261.562 168.775H244.003L318.58 321.857Z" fill="#455A64"/>
<path d="M222.576 171.804H442.878L445.218 166.957H218.653L222.576 171.804Z" fill="#37474F"/>
<path d="M413.671 363.151H403.507V381.215H413.671V363.151Z" fill="#37474F"/>
<path d="M421.682 363.151H417.44V381.215H421.682V363.151Z" fill="#37474F"/>
<path d="M498.247 363.151H394.255V381.215H498.247V363.151Z" fill="#2339AB"/>
<path d="M488.797 363.151H478.633V381.215H488.797V363.151Z" fill="#37474F"/>
<path d="M449.91 349.674H377.772V363.151H449.91V349.674Z" fill="#455A64"/>
<path d="M481.029 349.674H449.91V363.151H481.029V349.674Z" fill="#455A64"/>
<path d="M449.91 351.067H377.772V361.749H449.91V351.067Z" fill="white"/>
<path d="M382.443 353.264C388.061 353.199 393.684 353.148 399.309 353.109L416.176 353.061L433.043 353.109C438.662 353.109 444.284 353.161 449.91 353.264C444.284 353.341 438.662 353.396 433.043 353.428L416.176 353.477L399.309 353.428C393.684 353.402 388.061 353.348 382.443 353.264Z" fill="#DBDBDB"/>
<path d="M382.443 355.363C388.061 355.285 393.684 355.234 399.309 355.208L416.176 355.16L433.043 355.208C438.662 355.208 444.284 355.26 449.91 355.363C444.284 355.44 438.662 355.492 433.043 355.518L416.209 355.566L399.342 355.518C393.694 355.492 388.061 355.44 382.443 355.363Z" fill="#DBDBDB"/>
<path d="M382.443 357.463C388.061 357.385 393.684 357.331 399.309 357.298H416.176H433.043C438.662 357.298 444.284 357.353 449.91 357.463C444.284 357.534 438.662 357.585 433.043 357.618L416.209 357.695L399.342 357.647C393.694 357.602 388.061 357.54 382.443 357.463Z" fill="#DBDBDB"/>
<path d="M382.443 359.552C388.061 359.475 393.684 359.423 399.309 359.398L416.176 359.349L433.043 359.398C438.662 359.398 444.284 359.449 449.91 359.552C444.284 359.63 438.662 359.685 433.043 359.717H416.176L399.309 359.668C393.684 359.675 388.061 359.636 382.443 359.552Z" fill="#DBDBDB"/>
<path d="M414.198 399.743H474.633V381.215H414.198V399.743Z" fill="#263238"/>
<path d="M388.113 399.743H414.188V381.215H388.113V399.743Z" fill="#263238"/>
<path d="M414.198 397.818H474.633V383.14H414.198V397.818Z" fill="white"/>
<path d="M470.71 394.799C466.007 394.876 461.297 394.928 456.58 394.954L442.449 395.002L428.296 394.954C423.593 394.954 418.883 394.902 414.165 394.799C418.876 394.721 423.586 394.67 428.296 394.644L442.427 394.596L456.558 394.644C461.282 394.663 466 394.715 470.71 394.799Z" fill="#DBDBDB"/>
<path d="M470.711 391.916C466.008 391.993 461.297 392.048 456.58 392.081H442.449H428.318C423.615 392.081 418.905 392.026 414.188 391.916C418.898 391.839 423.608 391.787 428.318 391.761H442.449H456.58C461.29 391.793 466 391.845 470.711 391.916Z" fill="#DBDBDB"/>
<path d="M470.71 389.042C466.007 389.113 461.297 389.165 456.58 389.197L442.449 389.246L428.296 389.197C423.593 389.197 418.883 389.146 414.165 389.042C418.876 388.965 423.586 388.91 428.296 388.878L442.427 388.83L456.558 388.878C461.282 388.91 466 388.965 470.71 389.042Z" fill="#DBDBDB"/>
<path d="M470.71 386.159C466.007 386.237 461.297 386.288 456.58 386.314L442.449 386.362L428.296 386.314C423.593 386.314 418.883 386.262 414.165 386.159C418.876 386.082 423.586 386.027 428.296 385.995H442.427L456.558 386.043C461.282 386.037 466 386.075 470.71 386.159Z" fill="#DBDBDB"/>
<path d="M486.039 337.096H391.003V349.722H486.039V337.096Z" fill="#2339AB"/>
<path opacity="0.2" d="M486.039 337.096H391.003V349.722H486.039V337.096Z" fill="black"/>
<path d="M436.494 339.679H399.936V347.255H436.494V339.679Z" fill="white"/>
<path d="M482.347 315.607H410.155V337.047H482.347V315.607Z" fill="#2339AB"/>
<path d="M474.688 315.607H467.963V337.047H474.688V315.607Z" fill="#263238"/>
<path d="M463.546 315.607H460.942V337.047H463.546V315.607Z" fill="#263238"/>
<path d="M125.364 372.275L41.0954 352.731L1.88965 371.24L84.3228 395.428L125.364 372.275Z" fill="#2339AB"/>
<path d="M120.144 371.937L82.5646 393.222L5.30688 370.592L43.216 352.857C43.216 352.857 66.2911 355.537 67.3899 355.837C68.4888 356.137 78.6528 359.852 78.6528 359.852C78.6528 359.852 92.9374 362.048 93.9373 362.339C94.9372 362.629 120.144 371.937 120.144 371.937Z" fill="white"/>
<path d="M78.6747 359.862C75.7445 361.739 72.7704 363.593 69.7523 365.425L60.7311 370.872L51.6439 376.232C48.6111 378 45.5564 379.748 42.4797 381.476C45.4099 379.599 48.3877 377.748 51.4131 375.923L60.4234 370.476L69.5106 365.116C72.5433 363.345 75.576 361.565 78.6747 359.862Z" fill="#DBDBDB"/>
<path d="M111.837 371.743C109.09 370.794 106.354 369.827 103.629 368.84L95.4757 365.841L93.4319 365.086L92.432 364.738C92.0804 364.651 91.7178 364.593 91.3332 364.515L87.0368 363.625C84.1799 363.025 81.323 362.387 78.4661 361.69C81.3962 362.174 84.2898 362.686 87.1467 363.228L91.476 364.051C91.8386 364.128 92.1903 364.176 92.5749 364.273C92.9594 364.37 93.2891 364.505 93.6737 364.622L95.7284 365.357C98.4425 366.382 101.146 367.398 103.838 368.453C106.53 369.508 109.2 370.63 111.837 371.743Z" fill="#DBDBDB"/>
<path d="M109.244 373.107C106.511 372.159 103.779 371.192 101.046 370.205L92.8822 367.215L90.8494 366.46C90.5088 366.344 90.1681 366.209 89.8385 366.112C89.5089 366.015 89.1353 365.957 88.7397 365.88L84.4433 364.99C81.5864 364.39 78.7295 363.761 75.8726 363.103C78.7734 363.587 81.6633 364.071 84.5532 364.632L88.8825 365.464C89.2342 365.532 89.5968 365.59 89.9813 365.677C90.3659 365.764 90.6846 365.909 91.0802 366.035L93.135 366.77C95.838 367.786 98.5521 368.802 101.244 369.866C103.936 370.93 106.584 371.995 109.244 373.107Z" fill="#DBDBDB"/>
<path d="M106.629 374.462C103.948 373.494 101.266 372.595 98.6073 371.617L90.6409 368.715L88.6521 367.979C88.0066 367.718 87.3377 367.505 86.6522 367.341L82.4548 366.402C79.6491 365.822 76.8545 365.212 74.0708 364.574C76.9057 365.032 79.7334 365.519 82.5537 366.035C83.9601 366.286 85.3666 366.577 86.7731 366.857C87.4833 367.022 88.1777 367.235 88.8499 367.496L90.8497 368.221C93.4979 369.189 96.146 370.214 98.7722 371.259C101.398 372.304 104.025 373.378 106.629 374.462Z" fill="#DBDBDB"/>
<path d="M104.013 375.816C101.369 374.907 98.7354 373.975 96.1129 373.02L88.2454 370.118C86.9488 369.653 85.6302 369.102 84.3336 368.724L80.2021 367.854C77.444 367.263 74.708 366.664 71.939 366.035C74.73 366.48 77.5173 366.96 80.3009 367.476C81.6964 367.728 83.07 367.999 84.4655 368.299C85.8609 368.599 87.1356 369.198 88.4542 369.673C91.0693 370.64 93.6845 371.608 96.2667 372.672C98.8489 373.736 101.442 374.752 104.013 375.816Z" fill="#DBDBDB"/>
<path d="M101.387 377.18C98.7646 376.271 96.1421 375.342 93.5196 374.394L85.6851 371.491C84.3885 371.027 83.0699 370.524 81.7843 370.088C80.4987 369.653 79.0372 369.517 77.6747 369.217C74.9167 368.637 72.1806 368.037 69.4336 367.408C72.2246 367.853 75.0046 368.331 77.7736 368.84C79.1581 369.092 80.5316 369.363 81.9161 369.663C83.3006 369.962 84.5753 370.572 85.8938 371.046C88.498 372.014 91.1022 372.981 93.6844 374.026C96.2667 375.071 98.8379 376.077 101.387 377.18Z" fill="#DBDBDB"/>
<path d="M98.7721 378.535C96.146 377.626 93.5308 376.707 90.9266 375.758L83.114 372.856C81.8174 372.391 80.5098 371.888 79.2352 371.453C77.9606 371.018 76.4991 370.882 75.1366 370.582C72.3896 370.002 69.6535 369.399 66.9285 368.773C69.6975 369.218 72.4628 369.695 75.2245 370.205C76.609 370.456 77.9825 370.727 79.3671 371.027C80.7516 371.327 82.0152 371.937 83.3228 372.411C85.916 373.378 88.5092 374.346 91.0804 375.391C93.6517 376.436 96.2229 377.471 98.7721 378.535Z" fill="#DBDBDB"/>
<path d="M96.1571 379.948C93.5639 379.048 90.9816 378.138 88.4654 377.2L80.7736 374.375C79.499 373.91 78.2134 373.407 76.9388 372.972C75.6642 372.536 74.2577 372.391 72.9171 372.091C70.214 371.52 67.5109 370.93 64.8188 370.301C67.5512 370.733 70.2836 371.204 73.016 371.714C74.3785 371.975 75.7191 372.207 77.1036 372.546C78.4881 372.885 79.6968 373.455 80.9934 373.939C83.5427 374.907 86.1029 375.874 88.6851 376.842C91.2673 377.809 93.6408 378.845 96.1571 379.948Z" fill="#DBDBDB"/>
<path d="M93.5418 381.254C90.9486 380.354 88.3554 379.444 85.7842 378.506L78.0925 375.681C76.8069 375.226 75.5213 374.713 74.2576 374.288C72.994 373.862 71.5655 373.697 70.225 373.407C67.5219 372.827 64.8188 372.236 62.1267 371.617C64.8737 372.043 67.6208 372.517 70.3239 373.02C71.6974 373.291 73.0379 373.514 74.4224 373.862C75.807 374.21 77.0157 374.762 78.3013 375.245C80.8615 376.213 83.4217 377.18 85.993 378.148C88.5642 379.116 91.0146 380.209 93.5418 381.254Z" fill="#DBDBDB"/>
<path d="M91.3664 382.85C88.7402 381.883 86.114 381.002 83.5098 380.044L75.6973 377.142L71.7965 375.71C70.5109 375.333 69.0824 375.1 67.7199 374.8C64.9728 374.21 62.2258 373.62 59.5007 372.981C62.2807 373.417 65.0607 373.901 67.8188 374.413C69.2033 374.694 70.5658 374.897 71.9723 375.284C73.3788 375.671 74.6094 376.252 75.906 376.706C78.4992 377.674 81.0924 378.641 83.6637 379.696C86.2349 380.751 88.7622 381.747 91.3664 382.85Z" fill="#DBDBDB"/>
<path d="M88.7619 384.224C86.1467 383.305 83.5315 382.376 80.9273 381.408L73.1477 378.506L69.2359 377.045C67.9613 376.658 66.5328 376.435 65.1813 376.135C62.4452 375.545 59.6872 374.955 56.9731 374.326C59.7495 374.758 62.5185 375.232 65.2802 375.748C66.6647 376.029 68.0162 376.223 69.4227 376.629C70.8292 377.035 72.0379 377.596 73.3345 378.051C75.9167 379.019 78.5099 379.986 81.0262 381.06C83.5425 382.134 86.1906 383.16 88.7619 384.224Z" fill="#DBDBDB"/>
<path d="M86.1137 385.752C83.5755 384.843 81.0372 383.914 78.5209 382.966C76.0047 382.018 73.4993 381.031 70.9721 380.063L67.2031 378.631C66.5978 378.377 65.9594 378.188 65.3022 378.07L63.3023 377.645C60.6432 377.074 57.9841 376.493 55.3359 375.874C58.039 376.28 60.7201 376.745 63.4122 377.248L65.4121 377.645C65.7527 377.712 66.0823 377.77 66.423 377.867C66.7636 377.964 67.0823 378.09 67.4119 378.206C68.6756 378.661 69.9392 379.173 71.1918 379.628C73.6862 380.596 76.2024 381.563 78.6858 382.608C81.1691 383.653 83.6414 384.688 86.1137 385.752Z" fill="#DBDBDB"/>
<path d="M83.4986 387.001C80.9163 386.178 78.3451 385.346 75.8069 384.476C73.2686 383.605 70.6974 382.724 68.1151 381.863C66.8295 381.447 65.5439 380.963 64.2803 380.586L60.3355 379.561C57.7094 378.854 55.0832 378.138 52.479 377.364C55.1491 377.935 57.8083 378.545 60.4564 379.174L64.4231 380.141C65.7637 380.528 67.0163 380.973 68.3019 381.418C70.8512 382.318 73.4114 383.198 75.9387 384.137C78.466 385.075 80.9823 386.033 83.4986 387.001Z" fill="#DBDBDB"/>
<path d="M45.6553 375.99C43.194 375.236 40.7766 374.423 38.3592 373.581L36.5571 372.962C35.959 372.758 35.3459 372.59 34.7221 372.459L30.9751 371.55L23.4702 369.692C20.9759 369.082 18.4926 368.415 15.9983 367.757C18.5146 368.308 21.0419 368.831 23.5581 369.402L31.096 371.124L34.854 371.995C35.4941 372.131 36.1251 372.299 36.7439 372.498C37.3593 372.701 37.9526 372.923 38.557 373.136C40.9634 374.026 43.3258 374.965 45.6553 375.99Z" fill="#DBDBDB"/>
<path d="M48.1935 374.239C45.7761 373.594 43.3807 372.923 41.0073 372.227C39.8205 371.888 38.6338 371.501 37.4471 371.201L33.821 370.272L26.5798 368.434C24.1624 367.825 21.767 367.157 19.3606 366.499C21.8 367.051 24.2393 367.563 26.6677 368.134L33.9419 369.837C36.3883 370.371 38.8017 371.017 41.1721 371.772C43.5455 372.546 45.908 373.368 48.1935 374.239Z" fill="#DBDBDB"/>
<path d="M50.6444 372.681C48.249 372.062 45.8646 371.414 43.5021 370.698L39.9639 369.663L36.3488 368.86L29.1076 367.215C26.6903 366.673 24.2838 366.073 21.8774 365.502C24.3168 365.977 26.7562 366.47 29.1846 366.934L36.4697 368.434L40.1178 369.218C41.3265 369.527 42.4912 369.914 43.6669 370.282C46.0184 371.017 48.3369 371.83 50.6444 372.681Z" fill="#DBDBDB"/>
<path d="M52.7428 371.53C50.3694 370.795 48.0619 369.914 45.7434 369.102C45.1838 368.882 44.6027 368.707 44.0073 368.579L42.1722 368.212L38.5022 367.496C33.6161 366.535 28.7301 365.541 23.844 364.516C28.774 365.328 33.693 366.186 38.6011 367.089L42.2821 367.776L44.1171 368.134C44.7429 368.256 45.3538 368.431 45.9412 368.657C48.2622 369.512 50.5324 370.472 52.7428 371.53Z" fill="#DBDBDB"/>
<path d="M55.0392 370.117C52.6658 369.392 50.3583 368.511 48.0398 367.698C47.4805 367.475 46.8994 367.297 46.3036 367.166L44.4686 366.808L40.7986 366.092C35.9052 365.125 31.0191 364.131 26.1404 363.112C31.0777 363.925 35.9968 364.783 40.8975 365.686L44.5785 366.373L46.4245 366.721C47.0498 366.849 47.6604 367.027 48.2485 367.253C50.5669 368.104 52.8335 369.06 55.0392 370.117Z" fill="#DBDBDB"/>
<path d="M57.3359 368.714C54.9624 367.979 52.6549 367.098 50.3364 366.286C49.7768 366.066 49.1958 365.891 48.6003 365.763L46.7652 365.434L43.0952 364.718C38.2091 363.757 33.3231 362.767 28.437 361.748C33.3744 362.561 38.2934 363.415 43.1941 364.312L46.8751 365.009L48.7211 365.357C49.3478 365.48 49.9589 365.658 50.5452 365.889C52.8645 366.723 55.1314 367.666 57.3359 368.714Z" fill="#DBDBDB"/>
<path d="M59.6322 367.312C57.2588 366.577 54.9513 365.696 52.6328 364.883C52.0732 364.663 51.4921 364.488 50.8967 364.361L49.0616 363.993L45.3916 363.277C40.5019 362.31 35.6121 361.342 30.7334 360.297C35.6707 361.11 40.5898 361.968 45.4905 362.871L49.1715 363.558L51.0175 363.916C51.6443 364.034 52.2556 364.209 52.8416 364.438C55.16 365.292 57.4266 366.251 59.6322 367.312Z" fill="#DBDBDB"/>
<path d="M62.599 366.18C60.2256 365.444 57.9181 364.564 55.5996 363.751C55.0394 363.533 54.4584 363.358 53.8635 363.229L52.0284 362.861L48.3584 362.145C43.4723 361.184 38.5863 360.194 33.7002 359.175C38.6375 359.988 43.5566 360.842 48.4573 361.739L52.1383 362.435L53.9733 362.784C54.5991 362.905 55.21 363.08 55.7974 363.306C58.1184 364.162 60.3886 365.121 62.599 366.18Z" fill="#DBDBDB"/>
<path d="M65.4784 365.058C63.105 364.322 60.8085 363.442 58.479 362.629C57.9175 362.413 57.3369 362.239 56.7429 362.107L54.9078 361.749L51.2378 361.033C46.3444 360.065 41.4583 359.072 36.5796 358.053C41.5169 358.865 46.436 359.723 51.3367 360.626L55.0177 361.313L56.8637 361.662C57.4895 361.788 58.1002 361.966 58.6877 362.194C61.008 363.04 63.2749 363.996 65.4784 365.058Z" fill="#DBDBDB"/>
<path d="M67.7746 363.654C65.4011 362.919 63.1046 362.038 60.7861 361.235C60.2316 361.012 59.6538 360.837 59.061 360.713L57.2259 360.374L53.5998 359.716C48.6991 358.826 43.7984 357.926 38.9087 356.978C43.846 357.707 48.7761 358.484 53.6987 359.31L57.3798 359.939L59.2258 360.268C59.8526 360.386 60.4638 360.561 61.0498 360.79C63.3469 361.64 65.5916 362.596 67.7746 363.654Z" fill="#DBDBDB"/>
<path d="M70.0822 362.251C67.7197 361.516 65.4232 360.635 63.1047 359.832C62.554 359.61 61.9799 359.435 61.3906 359.31L59.5446 359L55.8635 358.41C50.9518 357.607 46.0291 356.794 41.1284 355.943C46.0731 356.588 51.0104 357.272 55.9404 357.994L59.6435 358.565L61.4895 358.865C62.1167 358.982 62.7281 359.157 63.3135 359.387C65.6256 360.236 67.885 361.192 70.0822 362.251Z" fill="#DBDBDB"/>
<path d="M72.3679 360.839C70.0054 360.113 67.7199 359.233 65.4124 358.43C64.8619 358.209 64.2877 358.037 63.6982 357.917L61.8522 357.694L58.1602 357.201C53.2265 356.553 48.2708 355.895 43.3701 355.188C48.3294 355.672 53.2814 356.208 58.2261 356.795L61.9291 357.249L63.7861 357.511C64.4164 357.612 65.0294 357.785 65.6101 358.023C67.9166 358.858 70.1722 359.798 72.3679 360.839Z" fill="#DBDBDB"/>
<path d="M80.8285 388.955C78.1913 388.188 75.5651 387.401 72.95 386.594L65.1154 384.137C63.8078 383.74 62.5002 383.286 61.2146 382.908L57.2479 381.796C54.5997 381.041 51.9736 380.267 49.3584 379.454C52.0395 380.099 54.7096 380.744 57.3688 381.389L61.3575 382.444C62.698 382.831 63.9946 383.237 65.2912 383.663C67.8954 384.514 70.5106 385.346 73.0928 386.236C75.675 387.127 78.2572 388.036 80.8285 388.955Z" fill="#DBDBDB"/>
<path d="M43.7653 377.703C41.0952 376.987 38.447 376.252 35.7989 375.488L27.8764 373.175L23.9317 372.004L19.921 370.969C17.2619 370.263 14.6027 369.537 11.9546 368.773C14.6577 369.344 17.3498 369.963 20.0419 370.592L24.0635 371.559C25.4151 371.927 26.7227 372.304 28.0522 372.711C30.6784 373.514 33.3156 374.298 35.9307 375.139C38.5459 375.981 41.1611 376.832 43.7653 377.703Z" fill="#DBDBDB"/>
<path d="M452.36 244.416C450.162 242.985 377.937 223.276 374.651 224.05C374.289 224.137 373.553 227.001 370.256 234.093C370.102 234.422 335.764 271.081 335.764 271.081L382.761 292.919L409.616 259.626C409.616 259.626 443.174 254.024 446.679 252.853C450.184 251.683 454.667 245.848 452.36 244.416Z" fill="#AD6359"/>
<path d="M452.36 244.416C450.162 242.985 377.937 223.276 374.652 224.05C374.289 224.137 373.553 227.001 370.257 234.093C370.103 234.422 365.4 239.231 363.103 241.833C366.092 244.097 394.969 262.016 402.847 267.956L409.583 259.597C409.583 259.597 443.141 253.995 446.646 252.824C450.151 251.654 454.668 245.848 452.36 244.416Z" fill="#2339AB"/>
<path d="M388.398 230.222C388.031 230.949 387.563 231.631 387.002 232.254C385.901 233.492 384.486 234.486 382.871 235.157C381.224 235.831 379.408 236.12 377.597 235.999C375.802 235.841 374.065 235.354 372.498 234.567C372.41 234.567 372.498 234.402 372.575 234.451C374.135 235.118 375.852 235.452 377.586 235.423C379.32 235.395 381.022 235.005 382.552 234.286C384.013 233.62 385.281 232.667 386.255 231.5C386.726 230.929 387.127 230.316 387.453 229.671C387.622 229.358 387.766 229.035 387.882 228.703C388.002 228.365 388.035 228.084 388.409 227.891C388.497 227.848 388.6 227.838 388.696 227.861C388.793 227.885 388.875 227.941 388.925 228.017C389.343 228.597 388.662 229.7 388.398 230.222Z" fill="white"/>
<path d="M437.174 254.74C435.587 254.218 434.224 253.274 433.273 252.04C432.212 250.787 431.334 249.422 430.658 247.977C429.978 246.564 429.502 245.082 429.24 243.565C429.12 242.827 429.043 242.084 429.01 241.34C428.933 240.579 428.985 239.813 429.164 239.066C429.173 239.037 429.192 239.012 429.219 238.994C429.245 238.976 429.278 238.966 429.312 238.966C429.346 238.966 429.378 238.976 429.405 238.994C429.432 239.012 429.451 239.037 429.46 239.066C429.614 239.714 429.581 240.42 429.669 241.078C429.757 241.822 429.889 242.562 430.065 243.294C430.403 244.717 430.888 246.109 431.515 247.454C432.663 250.179 434.734 252.526 437.449 254.179C437.519 254.218 437.571 254.279 437.595 254.349C437.62 254.419 437.615 254.495 437.582 254.562C437.549 254.629 437.49 254.684 437.415 254.717C437.34 254.749 437.255 254.758 437.174 254.74Z" fill="white"/>
<path d="M402.88 260.293C394.09 254.72 385.376 249.089 376.509 243.594C374.004 242.036 371.52 240.449 368.993 238.93C368.905 238.882 368.993 238.775 369.081 238.824C378.371 243.737 387.351 249.092 395.98 254.865C398.419 256.52 400.782 258.252 403.133 259.993C403.163 260.027 403.18 260.068 403.18 260.11C403.181 260.153 403.166 260.194 403.137 260.228C403.108 260.262 403.068 260.287 403.021 260.299C402.975 260.311 402.925 260.309 402.88 260.293Z" fill="white"/>
<path d="M369.828 240.169C369.798 240.226 369.757 240.278 369.707 240.324L369.509 240.44L369.125 240.662C368.861 240.817 368.586 240.972 368.312 241.107C367.762 241.378 367.213 241.63 366.641 241.872C366.565 241.872 366.488 241.794 366.565 241.756C367.092 241.465 367.608 241.165 368.125 240.856L368.872 240.401L369.268 240.159C369.387 240.073 369.526 240.011 369.674 239.975C369.701 239.973 369.729 239.977 369.754 239.987C369.778 239.997 369.8 240.013 369.815 240.032C369.831 240.052 369.841 240.075 369.843 240.099C369.845 240.123 369.84 240.147 369.828 240.169Z" fill="white"/>
<path d="M373.926 242.82C373.899 242.881 373.853 242.934 373.794 242.975L373.596 243.1L373.223 243.323C372.948 243.478 372.684 243.633 372.399 243.768C371.86 244.039 371.3 244.291 370.74 244.532C370.652 244.532 370.586 244.455 370.663 244.416C371.19 244.126 371.706 243.816 372.212 243.507L372.97 243.062L373.366 242.82C373.482 242.731 373.622 242.667 373.772 242.636C373.798 242.635 373.824 242.639 373.847 242.648C373.871 242.658 373.891 242.673 373.906 242.691C373.922 242.709 373.932 242.731 373.935 242.753C373.938 242.776 373.935 242.799 373.926 242.82Z" fill="white"/>
<path d="M378.014 245.461C377.987 245.519 377.946 245.572 377.893 245.616L377.695 245.732L377.311 245.954C377.047 246.119 376.772 246.264 376.498 246.409C375.948 246.68 375.399 246.931 374.828 247.164C374.751 247.164 374.674 247.096 374.751 247.048C375.278 246.767 375.849 246.457 376.311 246.148C376.553 245.993 376.805 245.848 377.058 245.703L377.454 245.461C377.568 245.368 377.708 245.304 377.86 245.277C377.887 245.272 377.915 245.274 377.94 245.283C377.966 245.291 377.988 245.306 378.004 245.326C378.02 245.345 378.03 245.368 378.031 245.392C378.033 245.416 378.027 245.44 378.014 245.461Z" fill="white"/>
<path d="M382.146 248.141C382.116 248.2 382.07 248.253 382.014 248.296L381.816 248.412L381.443 248.634C381.168 248.789 380.904 248.944 380.618 249.079C380.08 249.35 379.52 249.602 378.959 249.844C378.942 249.85 378.923 249.851 378.905 249.846C378.887 249.84 378.872 249.83 378.863 249.815C378.853 249.801 378.85 249.784 378.854 249.768C378.857 249.752 378.867 249.738 378.882 249.728C379.41 249.437 379.926 249.137 380.432 248.828L381.19 248.373L381.585 248.131C381.705 248.045 381.843 247.983 381.992 247.947C382.018 247.947 382.044 247.953 382.067 247.964C382.09 247.975 382.11 247.99 382.125 248.009C382.14 248.028 382.15 248.05 382.154 248.073C382.157 248.096 382.155 248.119 382.146 248.141Z" fill="white"/>
<path d="M386.211 250.792C386.176 250.849 386.131 250.901 386.079 250.947L385.881 251.073L385.497 251.295C385.233 251.45 384.958 251.605 384.684 251.74C384.134 252.011 383.585 252.263 383.013 252.505C382.936 252.505 382.859 252.427 382.936 252.389C383.464 252.098 383.98 251.798 384.497 251.479L385.244 251.034L385.639 250.792C385.756 250.703 385.896 250.64 386.046 250.608C386.073 250.605 386.1 250.608 386.125 250.617C386.15 250.625 386.172 250.64 386.189 250.658C386.205 250.677 386.216 250.699 386.22 250.723C386.224 250.746 386.221 250.77 386.211 250.792Z" fill="white"/>
<path d="M390.299 253.453C390.271 253.514 390.226 253.567 390.167 253.607L389.969 253.724L389.595 253.956L388.771 254.401C388.233 254.672 387.673 254.923 387.112 255.165C387.095 255.167 387.078 255.164 387.062 255.156C387.047 255.149 387.034 255.138 387.026 255.125C387.018 255.111 387.014 255.096 387.016 255.081C387.018 255.066 387.024 255.051 387.035 255.039C387.563 254.759 388.079 254.449 388.585 254.14L389.343 253.695L389.738 253.453C389.852 253.36 389.993 253.296 390.145 253.269C390.171 253.267 390.196 253.272 390.22 253.281C390.243 253.291 390.264 253.305 390.279 253.324C390.294 253.342 390.304 253.363 390.308 253.386C390.311 253.408 390.308 253.431 390.299 253.453Z" fill="white"/>
<path d="M394.397 256.104C394.359 256.159 394.315 256.211 394.266 256.258L394.068 256.375L393.683 256.597C393.419 256.752 393.145 256.907 392.87 257.042C392.321 257.323 391.771 257.565 391.2 257.807C391.123 257.807 391.046 257.729 391.123 257.69C391.65 257.4 392.167 257.1 392.683 256.791L393.43 256.336L393.826 256.094C393.945 256.009 394.084 255.95 394.233 255.92C394.259 255.916 394.286 255.919 394.311 255.928C394.336 255.937 394.358 255.951 394.375 255.97C394.392 255.989 394.403 256.011 394.406 256.034C394.41 256.058 394.407 256.082 394.397 256.104Z" fill="white"/>
<path d="M398.485 258.765C398.46 258.827 398.414 258.881 398.353 258.919C398.292 258.967 398.225 259.009 398.155 259.045L397.782 259.268C397.518 259.422 397.243 259.577 396.957 259.713C396.419 259.984 395.859 260.235 395.298 260.477C395.221 260.477 395.144 260.4 395.221 260.361C395.749 260.071 396.32 259.771 396.771 259.451L397.529 259.006L397.924 258.765C398.044 258.679 398.182 258.616 398.331 258.581C398.358 258.576 398.385 258.578 398.411 258.586C398.436 258.595 398.458 258.61 398.475 258.629C398.491 258.649 398.5 258.672 398.502 258.696C398.504 258.72 398.498 258.743 398.485 258.765Z" fill="white"/>
<path d="M402.584 261.425C402.549 261.483 402.504 261.535 402.452 261.58L402.254 261.706C402.125 261.775 402 261.849 401.88 261.929L401.056 262.374C400.507 262.645 399.957 262.896 399.386 263.138C399.309 263.138 399.243 263.061 399.309 263.012C399.847 262.732 400.408 262.422 400.869 262.112L401.617 261.667L402.012 261.425C402.13 261.338 402.269 261.275 402.419 261.242C402.445 261.238 402.473 261.241 402.498 261.25C402.523 261.259 402.544 261.273 402.561 261.292C402.578 261.31 402.589 261.332 402.593 261.356C402.597 261.379 402.593 261.403 402.584 261.425Z" fill="white"/>
<path d="M396.606 276.673L355.159 247.947C355.159 247.947 312.591 295.84 311.865 296.169C311.865 296.169 282.395 296.478 255.397 301.21C250.573 302.051 224.905 291.022 196.193 312.288L200.511 351.889C245.662 357.578 308.646 348.986 335.49 341.246C360.84 333.98 396.606 276.673 396.606 276.673Z" fill="#263238"/>
<path d="M390.804 280.418C381.475 273.645 372.069 266.95 362.235 260.7C359.444 258.919 356.576 257.246 353.829 255.417C353.741 255.349 353.642 255.485 353.73 255.552C356.125 257.187 358.389 258.968 360.74 260.651C363.092 262.335 365.432 264.018 367.806 265.673C372.542 268.972 377.431 272.087 382.288 275.232C385.068 277.031 387.87 278.792 390.672 280.553C390.804 280.611 390.936 280.485 390.804 280.418Z" fill="#455A64"/>
<path d="M358.983 263.922C351.522 272.629 344.028 281.337 336.6 290.132C332.886 294.512 329.165 298.891 325.436 303.271C323.788 305.206 322.14 306.977 319.414 307.654C318.057 307.949 316.676 308.153 315.283 308.263L310.668 308.757C298.42 310.092 286.164 311.421 273.902 312.743C270.847 313.122 267.767 313.322 264.682 313.343C261.604 313.234 258.539 312.91 255.518 312.375C250.03 311.549 244.451 311.286 238.893 311.592C227.879 312.344 217.124 314.917 207.192 319.177C205.929 319.709 204.676 320.251 203.435 320.812C203.336 320.861 203.435 320.986 203.533 320.948C213.768 316.535 224.81 313.754 236.146 312.733C241.729 312.244 247.358 312.342 252.914 313.024C255.881 313.401 258.815 313.991 261.804 314.233C264.876 314.44 267.965 314.375 271.023 314.04C277.176 313.469 283.318 312.724 289.461 312.056L307.921 310.053C310.987 309.715 314.063 309.434 317.107 309.037C319.602 308.859 321.955 307.946 323.788 306.444C325.636 304.599 327.332 302.639 328.864 300.581C330.732 298.327 332.622 296.082 334.501 293.809C341.874 285.023 349.181 276.2 356.477 267.395L359.225 264.086C359.367 263.96 359.071 263.786 358.983 263.922Z" fill="#455A64"/>
<path d="M335.149 175.267C332.831 176.622 286.571 229.236 286.252 232.216C286.252 232.545 288.988 234.151 295.394 239.347C295.702 239.588 296.009 241.64 296.306 244.716C297.405 256.278 298.306 282.402 298.306 282.402L346.764 271.904L338.479 227.398L336.336 215.836C336.336 215.836 342.127 186.2 342.094 182.882C342.061 179.563 337.468 173.864 335.149 175.267Z" fill="#AD6359"/>
<path d="M335.149 175.267C332.831 176.622 286.571 229.236 286.252 232.216C286.252 232.545 288.988 234.151 295.394 239.347C295.702 239.589 296.009 241.64 296.306 244.716C304.24 241.349 328.589 231.442 338.479 227.427L336.336 215.865C336.336 215.865 342.127 186.229 342.094 182.911C342.061 179.592 337.468 173.865 335.149 175.267Z" fill="#2339AB"/>
<path d="M297.635 223.043C298.279 223.598 298.84 224.222 299.306 224.901C300.257 226.244 300.837 227.765 300.998 229.342C301.129 230.936 300.8 232.534 300.042 233.986C299.25 235.411 298.127 236.674 296.745 237.692C296.668 237.75 296.57 237.643 296.646 237.585C297.894 236.529 298.842 235.229 299.415 233.79C299.988 232.352 300.168 230.815 299.943 229.303C299.739 227.868 299.168 226.492 298.273 225.278C297.831 224.687 297.319 224.139 296.745 223.643C296.467 223.393 296.17 223.161 295.855 222.947C295.526 222.724 295.24 222.598 295.163 222.221C295.15 222.134 295.176 222.046 295.236 221.976C295.295 221.905 295.383 221.858 295.482 221.844C296.24 221.699 297.174 222.637 297.635 223.043Z" fill="white"/>
<path d="M340.808 191.405C339.693 192.533 338.207 193.328 336.556 193.679C334.853 194.112 333.097 194.359 331.326 194.414C329.585 194.479 327.842 194.349 326.139 194.027C325.31 193.874 324.491 193.677 323.689 193.437C322.853 193.237 322.057 192.927 321.326 192.518C321.301 192.5 321.282 192.476 321.274 192.449C321.265 192.421 321.266 192.392 321.277 192.366C321.288 192.339 321.308 192.316 321.335 192.3C321.361 192.284 321.393 192.275 321.425 192.276C322.172 192.373 322.909 192.653 323.623 192.808C324.442 192.982 325.271 193.117 326.106 193.214C327.737 193.442 329.39 193.529 331.04 193.476C334.341 193.494 337.566 192.608 340.27 190.941C340.622 190.776 341.05 191.125 340.808 191.405Z" fill="white"/>
<path d="M335.27 223.014C325.523 227.155 315.755 231.248 306.052 235.476C303.305 236.676 300.558 237.846 297.822 239.094C297.723 239.094 297.668 239.007 297.756 238.959C307.084 234.105 316.702 229.696 326.567 225.752C329.38 224.649 332.237 223.643 335.094 222.656C335.148 222.636 335.209 222.635 335.263 222.654C335.318 222.673 335.362 222.71 335.385 222.758C335.408 222.805 335.409 222.859 335.388 222.907C335.366 222.955 335.324 222.994 335.27 223.014Z" fill="white"/>
<path d="M299.448 239.037C299.489 239.09 299.519 239.149 299.536 239.211C299.541 239.282 299.541 239.353 299.536 239.424C299.536 239.559 299.536 239.695 299.536 239.821C299.536 240.111 299.591 240.391 299.602 240.672C299.602 241.223 299.602 241.775 299.602 242.326C299.602 242.404 299.448 242.404 299.448 242.326C299.448 241.785 299.35 241.233 299.284 240.691C299.284 240.43 299.218 240.159 299.196 239.898C299.174 239.637 299.196 239.617 299.141 239.472C299.102 239.342 299.102 239.206 299.141 239.076C299.147 239.046 299.164 239.019 299.189 238.999C299.214 238.978 299.245 238.965 299.279 238.96C299.313 238.956 299.347 238.961 299.378 238.975C299.408 238.989 299.433 239.01 299.448 239.037Z" fill="white"/>
<path d="M304.041 237.131C304.089 237.181 304.123 237.241 304.14 237.305C304.14 237.372 304.14 237.45 304.14 237.518C304.14 237.585 304.14 237.779 304.14 237.914C304.175 238.197 304.194 238.481 304.195 238.766C304.195 239.317 304.195 239.869 304.195 240.42C304.195 240.498 304.041 240.498 304.041 240.42C304.041 239.869 303.943 239.327 303.877 238.785L303.778 237.992C303.778 237.847 303.778 237.711 303.778 237.566C303.739 237.436 303.739 237.299 303.778 237.169C303.783 237.144 303.798 237.121 303.818 237.103C303.839 237.086 303.866 237.074 303.894 237.07C303.923 237.065 303.952 237.069 303.979 237.08C304.005 237.091 304.027 237.108 304.041 237.131Z" fill="white"/>
<path d="M308.645 235.225C308.689 235.278 308.723 235.337 308.744 235.399C308.744 235.467 308.744 235.544 308.744 235.612C308.744 235.68 308.744 235.873 308.744 236.009C308.779 236.291 308.798 236.576 308.799 236.86C308.799 237.415 308.799 237.966 308.799 238.515C308.799 238.582 308.656 238.592 308.645 238.515C308.645 237.963 308.558 237.421 308.492 236.879L308.393 236.086C308.393 235.941 308.393 235.805 308.338 235.66C308.31 235.529 308.31 235.395 308.338 235.264C308.335 235.246 308.336 235.228 308.341 235.21C308.346 235.193 308.355 235.177 308.367 235.162C308.38 235.148 308.395 235.136 308.412 235.127C308.43 235.117 308.449 235.111 308.47 235.109C308.49 235.106 308.51 235.107 308.53 235.112C308.55 235.116 308.568 235.124 308.585 235.135C308.601 235.146 308.615 235.159 308.625 235.175C308.636 235.19 308.643 235.207 308.645 235.225Z" fill="white"/>
<path d="M313.25 233.319C313.294 233.37 313.324 233.43 313.338 233.493C313.344 233.564 313.344 233.635 313.338 233.706C313.338 233.832 313.338 233.967 313.338 234.103C313.338 234.383 313.338 234.664 313.392 234.944C313.392 235.499 313.392 236.051 313.392 236.599C313.392 236.617 313.384 236.634 313.37 236.647C313.356 236.659 313.336 236.667 313.316 236.667C313.295 236.667 313.276 236.659 313.261 236.647C313.247 236.634 313.239 236.617 313.239 236.599C313.239 236.047 313.151 235.506 313.074 234.964C313.074 234.693 313.019 234.432 312.986 234.161C312.953 233.89 312.986 233.88 312.931 233.745C312.898 233.611 312.898 233.472 312.931 233.338C312.928 233.301 312.942 233.264 312.97 233.236C312.998 233.208 313.037 233.191 313.079 233.188C313.122 233.186 313.163 233.198 313.195 233.223C313.227 233.247 313.247 233.282 313.25 233.319Z" fill="white"/>
<path d="M317.854 231.413C317.894 231.466 317.924 231.525 317.942 231.587V231.8C317.942 231.925 317.942 232.061 317.942 232.196C317.942 232.332 317.942 232.758 317.997 233.038C317.997 233.59 317.997 234.141 317.997 234.693C317.997 234.77 317.843 234.78 317.843 234.693C317.843 234.151 317.744 233.609 317.678 233.067C317.678 232.796 317.623 232.535 317.59 232.264C317.557 231.993 317.59 231.983 317.535 231.848C317.497 231.715 317.497 231.575 317.535 231.442C317.531 231.404 317.544 231.367 317.57 231.338C317.597 231.309 317.636 231.291 317.678 231.287C317.72 231.283 317.763 231.294 317.796 231.318C317.829 231.341 317.85 231.375 317.854 231.413Z" fill="white"/>
<path d="M322.447 229.507C322.495 229.558 322.528 229.617 322.546 229.681C322.551 229.749 322.551 229.817 322.546 229.884C322.546 230.02 322.546 230.155 322.546 230.291C322.58 230.57 322.599 230.851 322.601 231.132C322.601 231.684 322.601 232.235 322.601 232.787C322.601 232.864 322.447 232.864 322.447 232.787C322.447 232.245 322.348 231.703 322.282 231.152C322.282 230.891 322.216 230.629 322.194 230.358C322.172 230.087 322.194 230.078 322.139 229.942C322.1 229.809 322.1 229.669 322.139 229.536C322.135 229.5 322.147 229.464 322.172 229.436C322.198 229.408 322.236 229.39 322.276 229.386C322.317 229.382 322.358 229.393 322.39 229.415C322.422 229.438 322.442 229.471 322.447 229.507Z" fill="white"/>
<path d="M327.051 227.601C327.097 227.653 327.131 227.712 327.15 227.775C327.15 227.843 327.15 227.911 327.15 227.978C327.15 228.046 327.15 228.249 327.15 228.375C327.15 228.665 327.205 228.946 327.205 229.226C327.205 229.781 327.205 230.333 327.205 230.881C327.205 230.958 327.062 230.958 327.051 230.881C327.051 230.339 326.963 229.788 326.897 229.246L326.798 228.452C326.798 228.317 326.798 228.172 326.798 228.036C326.766 227.902 326.766 227.764 326.798 227.63C326.831 227.543 326.996 227.514 327.051 227.601Z" fill="white"/>
<path d="M331.655 225.685C331.7 225.736 331.73 225.796 331.743 225.859C331.748 225.93 331.748 226.001 331.743 226.072C331.743 226.208 331.743 226.343 331.743 226.469C331.743 226.759 331.743 227.04 331.798 227.32C331.798 227.875 331.798 228.426 331.798 228.975C331.798 229.052 331.655 229.052 331.644 228.975C331.644 228.433 331.556 227.881 331.479 227.34C331.479 227.078 331.424 226.808 331.391 226.546C331.359 226.285 331.392 226.266 331.337 226.121C331.305 225.99 331.305 225.855 331.337 225.724C331.34 225.691 331.355 225.66 331.381 225.636C331.407 225.612 331.441 225.597 331.478 225.592C331.515 225.588 331.553 225.594 331.585 225.611C331.617 225.628 331.642 225.654 331.655 225.685Z" fill="white"/>
<path d="M336.259 223.779C336.303 223.83 336.333 223.89 336.347 223.953V224.166C336.347 224.301 336.347 224.427 336.347 224.563C336.347 224.843 336.347 225.124 336.402 225.414C336.402 225.969 336.402 226.52 336.402 227.069C336.402 227.146 336.248 227.146 336.248 227.069C336.248 226.517 336.149 225.975 336.083 225.433C336.083 225.172 336.028 224.901 335.995 224.64C335.962 224.379 335.995 224.36 335.94 224.214C335.901 224.084 335.901 223.948 335.94 223.818C335.934 223.781 335.945 223.743 335.971 223.713C335.997 223.683 336.035 223.663 336.077 223.658C336.12 223.653 336.163 223.663 336.197 223.685C336.231 223.708 336.253 223.742 336.259 223.779Z" fill="white"/>
<path d="M340.951 239.888L292.043 249.031C292.043 249.031 297.911 309.328 297.691 309.985C297.691 309.985 272.726 312.888 252.738 311.921C252.738 311.921 219.125 299.052 196.171 321.257L192.875 360.21C256.815 367.04 342.434 363.877 353.785 344.729C366.158 323.831 340.951 239.888 340.951 239.888Z" fill="#263238"/>
<path d="M297.602 309.734C292.174 309.734 283.076 310.634 277.648 310.828C272.22 311.021 266.891 311.282 261.517 311.534C258.43 311.669 255.836 311.534 252.727 311.766C252.704 311.766 252.681 311.774 252.665 311.789C252.648 311.803 252.639 311.823 252.639 311.844C252.639 311.864 252.648 311.884 252.665 311.898C252.681 311.913 252.704 311.921 252.727 311.921C263.35 312.427 274 312.243 284.592 311.369C287.691 311.128 294.581 310.479 297.657 310.073C297.877 310.054 298.13 309.734 297.602 309.734Z" fill="#455A64"/>
<path d="M249.705 307.818C247.7 305.86 245.443 304.113 242.98 302.613C242.903 302.555 242.805 302.68 242.87 302.738C245.015 304.514 247.03 306.408 248.903 308.408C250.936 310.336 252.806 312.392 254.496 314.562C254.496 314.61 254.606 314.562 254.573 314.513C253.226 312.135 251.594 309.891 249.705 307.818Z" fill="#455A64"/>
<path d="M357.235 315.703C357.181 313.575 356.961 311.446 356.774 309.318C356.411 305.109 355.939 300.91 355.302 296.74C354.016 288.303 352.346 279.934 350.214 271.642C349.61 269.32 348.994 267.008 348.324 264.705C347.717 262.347 346.957 260.021 346.05 257.739C345.973 257.555 345.599 257.574 345.643 257.787C345.984 259.829 346.61 261.861 347.115 263.873C347.621 265.886 348.159 267.956 348.654 270.007C349.654 274.177 350.577 278.376 351.412 282.585C353.082 290.944 354.423 299.343 355.554 307.741C355.873 310.111 356.137 312.482 356.422 314.852C356.576 316.032 357.115 325.495 357.137 326.733C357.137 326.84 357.334 326.83 357.323 326.733C357.214 325.688 357.323 318.867 357.235 315.703Z" fill="#455A64"/>
<path d="M297.592 303.193C297.482 302.023 297.042 297.524 296.493 296.653C296.488 296.643 296.479 296.634 296.469 296.628C296.458 296.621 296.445 296.618 296.433 296.618C296.42 296.618 296.407 296.621 296.396 296.628C296.386 296.634 296.377 296.643 296.372 296.653C296.009 297.621 296.504 302.274 296.625 303.426C296.746 304.577 297.46 309.579 297.724 309.976C297.733 309.988 297.745 309.998 297.759 310.004C297.774 310.011 297.79 310.015 297.806 310.015C297.822 310.015 297.838 310.011 297.853 310.004C297.867 309.998 297.879 309.988 297.888 309.976C297.928 307.712 297.828 305.448 297.592 303.193Z" fill="#455A64"/>
<path d="M342.654 322.428C342.478 314.842 341.885 307.267 341.017 299.72C339.302 284.83 336.511 270.046 333.523 255.32C333.149 253.511 332.786 251.711 332.424 249.902C332.424 249.805 332.237 249.844 332.259 249.95C335.05 264.676 337.918 279.412 339.819 294.263C340.753 301.636 341.478 309.028 341.83 316.439C342.005 320.038 342.115 323.637 342.093 327.246C342.147 330.267 341.831 333.284 341.148 336.244C340.479 339.179 338.923 341.9 336.643 344.12C334.196 346.222 331.223 347.79 327.963 348.696C324.426 349.724 320.808 350.523 317.139 351.086C313.096 351.789 309.03 352.363 304.942 352.808C288.581 354.617 272.044 354.637 255.584 354.347C238.706 354.047 221.828 353.495 204.95 353.331C202.841 353.331 200.72 353.282 198.61 353.244C198.587 353.244 198.564 353.252 198.548 353.266C198.531 353.281 198.522 353.3 198.522 353.321C198.522 353.341 198.531 353.361 198.548 353.376C198.564 353.39 198.587 353.398 198.61 353.398C207.313 353.64 216.015 353.969 224.718 354.211C233.421 354.453 241.969 354.675 250.595 354.879C267.253 355.285 283.966 355.488 300.558 353.911C308.603 353.24 316.577 352.03 324.413 350.293C327.716 349.611 330.878 348.482 333.786 346.945C336.554 345.4 338.767 343.196 340.17 340.588C343.159 335.025 342.808 328.446 342.654 322.428Z" fill="#455A64"/>
<path d="M341.028 246.632C329.073 248.267 317.151 250.018 305.338 252.321C301.976 252.969 298.647 253.753 295.262 254.343C295.152 254.343 295.196 254.507 295.317 254.488C298.295 254.004 301.306 253.695 304.294 253.269C307.283 252.843 310.272 252.417 313.25 251.953C319.194 250.985 325.084 249.873 330.985 248.77C334.358 248.131 337.72 247.464 341.072 246.786C341.193 246.767 341.138 246.612 341.028 246.632Z" fill="#455A64"/>
<path d="M91.1133 301.577C91.7506 298.752 95.102 288.574 99.9038 282.227C102.222 279.15 109.914 270.945 112.738 272.319C115.562 273.693 113.54 276.276 113.54 276.276C113.54 276.276 117.386 273.238 120.078 274.854C122.77 276.47 119.496 280.388 119.496 280.388C119.496 280.388 123.693 277.486 126.253 279.305C128.814 281.124 124.759 284.539 124.759 284.539C124.759 284.539 128.462 281.762 129.868 284.007C131.55 286.716 124.067 291.157 121.704 294.65C121.166 295.453 112.134 311.504 112.134 311.504L91.1133 301.577Z" fill="#AD6359"/>
<path d="M124.704 284.646C119.21 287.926 117.441 290.2 114.815 295.473C114.815 295.579 114.573 295.541 114.617 295.424C116.65 290.055 118.397 286.92 124.506 284.404C124.836 284.279 125.023 284.491 124.704 284.646Z" fill="#263238"/>
<path d="M119.617 280.215C114.243 284.085 112.31 286.513 109.101 291.825C109.089 291.838 109.072 291.846 109.054 291.85C109.036 291.853 109.017 291.852 109 291.845C108.983 291.839 108.969 291.828 108.959 291.814C108.95 291.8 108.945 291.783 108.947 291.767C111.595 286.281 113.408 283.195 119.353 279.973C119.628 279.867 119.869 280.041 119.617 280.215Z" fill="#263238"/>
<path d="M113.078 276.635C108.178 280.689 105.925 283.301 103.574 288.845C103.558 288.866 103.535 288.882 103.507 288.89C103.48 288.899 103.451 288.899 103.424 288.892C103.396 288.884 103.373 288.869 103.356 288.848C103.339 288.827 103.331 288.802 103.332 288.777C105.112 282.972 107.892 279.653 112.914 276.519C113.265 276.306 113.386 276.422 113.078 276.635Z" fill="#263238"/>
<path d="M111.573 315.694C111.573 315.694 118.1 311.147 120.473 308.593C122.847 306.038 127.704 293.664 124.726 292.59C120.88 291.206 116.485 297.863 114.837 301.375C114.837 301.375 105.958 298.153 101.651 302.342C97.3434 306.532 111.573 315.694 111.573 315.694Z" fill="#AD6359"/>
<path d="M123.528 292.522C118.99 293.489 117.122 298.211 115.221 301.5C115.195 301.55 115.155 301.593 115.106 301.626C115.057 301.66 115 301.683 114.939 301.693C114.878 301.703 114.815 301.701 114.755 301.686C114.695 301.671 114.64 301.644 114.595 301.607C110.771 300.475 105.002 299.865 101.574 302.1C101.566 302.112 101.555 302.122 101.541 302.129C101.528 302.137 101.513 302.141 101.497 302.142C101.481 302.143 101.466 302.141 101.451 302.136C101.437 302.13 101.424 302.122 101.414 302.112C101.403 302.101 101.396 302.088 101.393 302.075C101.389 302.061 101.389 302.047 101.393 302.034C101.397 302.021 101.404 302.008 101.415 301.998C101.425 301.987 101.438 301.979 101.453 301.974C104.749 299.13 110.474 299.323 114.573 300.804C116.474 297.398 118.573 292.725 123.517 292.473C123.55 292.473 123.55 292.512 123.528 292.522Z" fill="#263238"/>
<path d="M142.857 316.168C132.339 330.096 118.114 341.548 101.42 349.529C90.7068 354.695 79.4439 348.667 77.6419 344.855C73.6861 336.689 87.4653 305.022 92.4319 298.637C93.9153 296.702 96.124 300.572 103.046 305.854C106.343 308.37 118.902 307.722 118.012 310.847C117.375 313.072 113.265 319.38 113.837 319.342C115.265 319.235 125.66 312.569 136.67 306.338C151.834 297.756 146.395 311.602 142.857 316.168Z" fill="#AD6359"/>
<path d="M113.859 319.09C113.2 319.864 103.695 336.96 101.431 340.482C101.42 340.5 101.417 340.521 101.423 340.541C101.429 340.561 101.444 340.578 101.464 340.589C101.485 340.599 101.509 340.602 101.532 340.596C101.554 340.591 101.574 340.577 101.585 340.56C104.003 337.115 106.508 333.719 108.651 330.139C109.749 328.369 110.848 326.598 111.661 324.75C112.068 323.86 112.452 322.97 112.848 322.08C113.348 321.149 113.742 320.177 114.024 319.177C114.035 319.09 113.925 318.993 113.859 319.09Z" fill="#263238"/>
<path d="M114.749 317.726L138.923 325.882C138.923 325.882 146.351 316.458 149.636 310.73C153.965 303.145 151.834 299.952 140.846 303.861C133.571 306.483 114.749 317.726 114.749 317.726Z" fill="#2339AB"/>
<path d="M118.089 316.526C121.704 317.494 125.297 318.52 128.847 319.681C130.616 320.251 132.374 320.861 134.132 321.48C135.89 322.099 137.549 322.893 139.307 323.493C139.406 323.493 139.307 323.657 139.241 323.618C137.527 322.941 135.692 322.457 133.934 321.857C132.176 321.258 130.418 320.667 128.649 320.087C125.111 318.926 121.583 317.755 118.023 316.662C117.924 316.633 117.99 316.507 118.089 316.526Z" fill="#263238"/>
<path d="M162.449 318.258H157.867C157.57 316.323 156.9 313.082 155.801 311.369C156.345 313.632 156.552 315.948 156.416 318.258H152.394C152.043 315.51 151.087 310.518 148.637 307.025C148.746 307.393 150.768 314.117 150.285 318.258H114.859C113.288 311.669 114.507 304.51 113.892 306.077C112.512 310.026 111.772 314.127 111.694 318.258H107.75C107.638 316.595 107.745 314.926 108.068 313.285C108.585 311.099 106.552 315.423 106.288 318.258H103.783C103.783 318.258 103.277 308.873 107.178 302.197C112.354 293.296 109.376 290.006 111.453 280.273C113.859 269.195 130.396 255.795 146.922 269.795C149.756 271.963 152.032 274.637 153.601 277.64C155.17 280.643 155.994 283.905 156.021 287.21C156.097 295.134 154.054 299.314 157.119 303.387C160.555 307.759 162.412 312.942 162.449 318.258Z" fill="#263238"/>
<path d="M102.145 316.932C101.729 313.554 102.103 310.136 103.244 306.889C103.773 305.255 104.457 303.663 105.288 302.129C105.684 301.365 106.178 300.61 106.596 299.875C107.027 299.156 107.394 298.409 107.695 297.64C108.808 294.467 109.523 291.197 109.826 287.887C110.057 286.213 110.321 284.539 110.705 282.885C111.08 281.221 111.662 279.599 112.441 278.047C111.422 281.272 110.832 284.591 110.683 287.935C110.54 289.6 110.354 291.283 110.09 292.957C109.814 294.651 109.362 296.319 108.738 297.94C108.4 298.746 108 299.532 107.541 300.291C107.079 301.055 106.629 301.752 106.211 302.506C105.357 303.988 104.622 305.52 104.013 307.093C103.41 308.672 102.943 310.289 102.618 311.93C102.442 312.753 102.332 313.575 102.244 314.407C102.161 315.247 102.128 316.09 102.145 316.932Z" fill="#263238"/>
<path d="M155.998 287.162C156.075 288.506 155.998 289.851 155.998 291.187C155.998 292.522 155.998 293.857 156.163 295.182C156.293 296.489 156.547 297.783 156.921 299.053C157.009 299.372 157.13 299.681 157.229 300.02L157.317 300.252L157.394 300.446L157.636 300.862C157.987 301.423 158.394 301.994 158.8 302.565C159.581 303.716 160.361 304.896 160.998 306.125C161.673 307.352 162.239 308.623 162.69 309.928C163.132 311.232 163.437 312.57 163.602 313.923C163.762 315.268 163.762 316.623 163.602 317.968C163.495 315.302 162.917 312.668 161.888 310.16C160.833 307.676 159.481 305.299 157.855 303.068C157.46 302.487 157.064 301.926 156.68 301.307C156.592 301.152 156.504 300.988 156.416 300.813C156.416 300.726 156.328 300.63 156.295 300.542L156.218 300.291C156.108 299.962 155.987 299.633 155.911 299.323C155.562 297.992 155.36 296.635 155.306 295.269C155.264 293.913 155.315 292.556 155.46 291.206C155.614 289.822 155.79 288.497 155.998 287.162Z" fill="#263238"/>
<path d="M192.215 361.661C192.215 361.661 218.675 340.182 200.478 309.153C200.478 309.153 188.963 310.759 185.941 310.237C176.777 308.669 169.909 304.2 159.35 300.736C148.79 297.272 141.516 300 137.318 306.309C136.275 307.876 131.132 330.884 134.89 339.05C137.846 345.465 149.823 347.322 149.823 347.322C149.823 347.322 172.074 363.615 192.215 361.661Z" fill="#2339AB"/>
<path d="M150.9 305.244C150.823 306.299 146.582 313.652 141.296 314.204C139.582 314.378 138.066 306.154 138.066 306.154L137.802 305.564L134.033 297.378L144.175 289.299L145.648 288.216C145.648 288.216 146.516 290.519 147.56 293.392C147.56 293.528 147.659 293.653 147.702 293.798C147.746 293.944 147.834 294.108 147.878 294.263C148.043 294.689 148.208 295.134 148.362 295.569C148.516 296.004 148.593 296.227 148.702 296.537C148.812 296.846 148.922 297.233 149.043 297.591C149.861 300.102 150.482 302.659 150.9 305.244Z" fill="#AD6359"/>
<path d="M147.56 293.392C147.031 295.922 145.885 298.321 144.2 300.422C142.515 302.524 140.332 304.278 137.802 305.564L134.033 297.378L144.175 289.299L145.648 288.216C145.648 288.216 146.516 290.519 147.56 293.392Z" fill="#263238"/>
<path d="M117.331 288.274C121.264 303.387 131.989 303.019 135.692 302.265C139.054 301.587 150.394 298.888 148.251 283.495C146.109 268.101 136.879 264.938 129.11 266.137C121.341 267.337 113.397 273.161 117.331 288.274Z" fill="#AD6359"/>
<path d="M119.902 285.333C120.279 285.181 120.646 285.01 121.001 284.821C121.408 284.683 121.751 284.432 121.979 284.105C122.028 283.992 122.034 283.868 121.994 283.752C121.954 283.636 121.871 283.536 121.759 283.466C121.513 283.354 121.237 283.302 120.96 283.318C120.683 283.333 120.416 283.414 120.188 283.553C119.689 283.771 119.298 284.143 119.089 284.598C119.056 284.698 119.054 284.804 119.083 284.906C119.111 285.007 119.17 285.099 119.253 285.174C119.335 285.249 119.439 285.303 119.553 285.331C119.667 285.359 119.788 285.36 119.902 285.333Z" fill="#263238"/>
<path d="M131.682 282.527C131.264 282.585 130.88 282.585 130.462 282.614C130.043 282.707 129.601 282.669 129.209 282.508C129.096 282.437 129.013 282.334 128.973 282.217C128.934 282.1 128.939 281.974 128.99 281.86C129.125 281.649 129.322 281.474 129.559 281.351C129.796 281.229 130.066 281.164 130.341 281.163C130.905 281.087 131.48 281.197 131.956 281.473C132.061 281.541 132.141 281.635 132.187 281.742C132.232 281.85 132.24 281.967 132.211 282.079C132.182 282.191 132.117 282.293 132.022 282.373C131.928 282.452 131.81 282.506 131.682 282.527Z" fill="#263238"/>
<path d="M130.726 286.871C130.726 286.823 130.835 286.871 130.846 286.939C131.132 287.964 131.649 289.096 132.802 289.174V289.232C131.484 289.387 130.813 287.877 130.726 286.871Z" fill="#263238"/>
<path d="M131.418 285.556C133.242 284.975 134.428 288.216 132.736 288.758C131.044 289.3 129.901 286.039 131.418 285.556Z" fill="#263238"/>
<path d="M132.209 285.517C132.593 285.614 133.033 285.846 133.429 285.768C133.824 285.691 134.11 285.246 134.286 284.801C134.286 284.752 134.286 284.801 134.363 284.801C134.528 285.081 134.566 285.407 134.468 285.711C134.37 286.015 134.143 286.274 133.835 286.436C133.495 286.533 133.125 286.515 132.8 286.384C132.474 286.253 132.216 286.02 132.077 285.73C132 285.681 132.055 285.478 132.209 285.517Z" fill="#263238"/>
<path d="M123.408 288.438C123.408 288.438 123.331 288.506 123.408 288.545C123.814 289.512 124.1 290.741 123.199 291.37C123.199 291.37 123.199 291.438 123.199 291.428C124.375 290.935 123.979 289.319 123.408 288.438Z" fill="#263238"/>
<path d="M122.001 287.684C120.122 288.09 121.188 291.37 122.924 290.993C124.66 290.616 123.573 287.336 122.001 287.684Z" fill="#263238"/>
<path d="M121.287 288.1C121.056 288.342 120.869 288.729 120.518 288.845C120.166 288.961 119.705 288.69 119.331 288.419C119.331 288.419 119.331 288.419 119.331 288.468C119.518 289.097 119.968 289.687 120.683 289.638C121.397 289.59 121.628 288.932 121.595 288.274C121.54 288.148 121.386 288.032 121.287 288.1Z" fill="#263238"/>
<path d="M126.912 292.396C126.912 292.396 127.198 293.963 127.451 294.679C127.451 294.747 127.682 294.679 127.956 294.679C128.691 294.606 129.387 294.354 129.969 293.953C130.551 293.551 130.995 293.016 131.253 292.406C131.253 292.319 131.154 292.28 131.099 292.338C130.288 293.24 129.165 293.885 127.901 294.176C127.78 293.993 127.506 291.477 127.374 291.496C126.764 291.717 126.191 292.01 125.671 292.367C124.956 289.107 124.836 285.778 124.077 282.537C124.077 282.421 123.847 282.44 123.847 282.537C123.846 286.111 124.251 289.677 125.055 293.18C125.154 293.586 126.627 292.599 126.912 292.396Z" fill="#263238"/>
<path d="M148.35 284.481C143.955 285.565 138.461 274.216 137.824 272.813C138.186 273.713 140.021 278.492 139.736 278.802C139.27 278.926 138.783 278.979 138.296 278.957C138.086 278.382 137.826 277.822 137.516 277.283C137.384 277.022 137.604 277.893 137.824 278.976H136.945C136.549 277.733 135.965 276.542 135.209 275.435C134.923 275.009 135.527 277.099 135.681 279.025C131.648 279.107 127.639 279.584 123.726 280.447C122.627 280.718 121.704 280.989 120.891 281.25C120.375 279.837 120.012 278.27 120.012 278.628C120 279.575 120.092 280.521 120.287 281.453L119.089 281.889C118.254 279.905 118.177 276.393 117.99 276.993C117.453 278.807 117.311 280.695 117.573 282.556C116.122 283.253 115.782 283.649 115.617 283.301C114.646 279.214 115.363 274.957 117.639 271.294C121.418 265.295 131.791 261.145 140.373 266.34C140.373 266.34 146.417 267.811 148.878 272.223C151.339 276.635 150.867 283.862 148.35 284.481Z" fill="#263238"/>
<path d="M145.834 285.207C145.834 285.207 147.801 279.557 150.603 280.031C153.405 280.505 153.086 287.964 150.603 289.706C150.306 289.943 149.957 290.125 149.578 290.241C149.199 290.357 148.797 290.404 148.397 290.379C147.997 290.355 147.606 290.26 147.249 290.099C146.892 289.938 146.575 289.716 146.318 289.445L145.834 285.207Z" fill="#AD6359"/>
<path d="M150.449 282.169V282.237C148.746 283.485 148.252 285.371 148.186 287.229C148.236 287.025 148.336 286.833 148.479 286.667C148.622 286.5 148.804 286.363 149.013 286.265C149.222 286.166 149.453 286.109 149.689 286.097C149.926 286.085 150.163 286.118 150.383 286.194C150.449 286.194 150.383 286.291 150.383 286.3C150.005 286.301 149.636 286.404 149.328 286.597C149.019 286.789 148.785 287.061 148.658 287.374C148.458 287.906 148.318 288.454 148.241 289.009C148.241 289.184 147.867 289.193 147.867 289.009V289C146.999 286.774 147.856 283.195 150.449 282.169Z" fill="#263238"/>
<path d="M165.965 307.964C180.348 323.696 200.028 350.419 191.787 356.65C178.282 366.896 138.187 373.494 128.979 374.665C125.012 375.178 116.397 352.412 118.968 349.384C121.54 346.355 164.02 343.356 164.284 341.053C164.415 339.747 160.646 328.63 156.108 314.804C150.867 298.85 161.844 303.513 165.965 307.964Z" fill="#AD6359"/>
<path d="M125.891 347.352C125.891 347.352 113.683 347.526 105.695 347.971C101.3 348.222 93.608 349.258 90.4763 350.757C85.7294 353.002 67.4891 365.057 70.6977 369.014C73.6205 372.604 87.7952 360.481 87.7952 360.481C87.7952 360.481 72.28 371.598 76.6752 375.342C81.0705 379.086 95.0584 363.5 95.0584 363.5C95.0584 363.5 79.4003 375.236 84.6416 378.458C88.6083 380.896 102.146 367.428 102.146 367.428C102.146 367.428 88.7622 377.616 92.7179 380.276C97.1132 383.179 110.464 371.472 110.464 371.472C121.815 376.745 129.671 375.168 135.11 373.465C136.429 373.049 125.891 347.352 125.891 347.352Z" fill="#AD6359"/>
<path d="M92.9043 356.34C91.0253 357.588 89.1134 358.836 87.4102 360.21C85.707 361.584 83.9709 363.045 82.3886 364.574C80.2845 366.534 78.4412 368.699 76.8945 371.027C80.0152 367.07 86.1685 362.01 87.8827 360.617C89.5968 359.223 91.289 357.714 93.0361 356.379C93.0142 356.359 92.9482 356.311 92.9043 356.34Z" fill="#263238"/>
<path d="M98.717 361.797C96.3985 363.48 94.0251 365.077 91.7835 366.857C89.5419 368.637 87.63 370.466 85.5422 372.362C85.3884 372.507 85.5422 372.536 85.6961 372.362C87.8937 370.543 90.0254 369.005 92.212 367.205C94.3987 365.406 96.5084 363.538 98.8049 361.816C98.8049 361.816 98.75 361.778 98.717 361.797Z" fill="#263238"/>
<path d="M104.662 365.696C101.045 368.202 97.7314 371.029 94.7726 374.133C94.6188 374.288 94.7726 374.307 94.9704 374.133C98.2119 371.23 100.728 369.005 104.794 365.773C104.827 365.754 104.739 365.648 104.662 365.696Z" fill="#263238"/>
<path d="M134.978 345.978C133.264 345.978 129.671 346.703 125.66 346.945C116.639 347.468 103.87 347.7 99.2884 348C87.0036 348.812 79.7515 356.949 76.3781 359.813C74.3585 361.542 72.5401 363.445 70.9499 365.493C70.1149 366.605 69.3457 368.182 70.5214 369.363C71.9499 370.804 77.1143 369.13 82.4326 364.699C82.6194 364.535 82.4985 364.438 82.3007 364.593C74.8398 370.175 71.796 369.614 70.9719 368.705C70.4445 368.115 70.906 367.07 71.3455 366.257C72.059 365.093 72.9378 364.013 73.9607 363.045C77.3526 359.674 81.1265 356.617 85.2236 353.921C89.6208 350.878 94.9105 348.998 100.475 348.503C104.42 348.135 116.595 347.971 125.682 347.38C129.66 347.119 133.231 346.345 134.956 346.161C135.121 346.152 135.099 345.978 134.978 345.978Z" fill="#263238"/>
<path d="M184.359 327.924L158.427 328.359C158.427 328.359 155.065 317.271 154.186 310.895C153.032 302.468 156.317 300.117 165.108 307.073C170.964 311.727 184.359 327.924 184.359 327.924Z" fill="#2339AB"/>
<path d="M161.569 328.311C161.283 328.311 158.624 328.243 158.426 328.311C158.075 326.995 156.306 320.871 156.097 320.242C156.097 320.135 155.921 320.164 155.943 320.242C156.02 320.619 156.306 322.032 156.646 323.609V323.551C156.471 323.27 156.262 323.009 156.064 322.738C155.866 322.467 155.701 322.157 155.526 321.867C155.471 321.77 155.317 321.867 155.372 321.945C155.559 322.225 155.756 322.496 155.91 322.786C156.064 323.077 156.196 323.328 156.35 323.599L156.844 324.392C157.229 326.173 157.635 327.982 157.855 328.64C159.106 328.614 160.354 328.521 161.591 328.359C161.624 328.388 161.613 328.321 161.569 328.311Z" fill="#263238"/>
<path d="M181.656 325.766C177.876 325.602 174.107 325.486 170.316 325.515C168.437 325.515 166.547 325.573 164.657 325.64C162.767 325.708 160.899 325.94 159.009 325.979C158.91 325.979 158.921 326.124 159.009 326.124C160.888 325.989 162.8 326.124 164.679 326.047C166.558 325.969 168.459 325.979 170.349 325.96C174.118 325.96 177.887 325.873 181.656 325.911C181.777 325.94 181.755 325.766 181.656 325.766Z" fill="#263238"/>
<path d="M174.657 316.517C174.657 316.517 174.569 316.517 174.591 316.517C177.527 320.393 180.685 324.136 184.051 327.73C183.377 327.758 182.705 327.826 182.041 327.933C182.926 327.992 183.815 327.992 184.7 327.933C184.755 327.972 175.624 317.252 174.657 316.517Z" fill="#263238"/>
<path d="M145.615 237.857C142.615 244.126 134.715 248.171 134.715 248.171C134.715 248.171 126.32 244.997 122.485 239.095C119.276 234.18 120.705 228.598 125.122 227.166C131.462 225.095 133.802 234.906 133.802 234.906C133.802 234.906 134.769 224.921 141.351 226.285C145.9 227.243 148.098 232.632 145.615 237.857Z" fill="#2339AB"/>
<path d="M114.035 220.76C114.749 226.285 110.958 231.954 110.958 231.954C110.958 231.954 103.541 232.651 98.124 229.806C93.5969 227.426 92.0805 222.947 94.5748 220.363C98.1459 216.658 104.277 222.821 104.277 222.821C104.277 222.821 100.431 215.371 105.739 214.026C109.409 213.088 113.408 216.155 114.035 220.76Z" fill="#2339AB"/>
<path d="M154.494 169.027C155.208 174.552 151.417 180.212 151.417 180.212C151.417 180.212 144 180.918 138.583 178.064C134.056 175.693 132.539 171.214 135.034 168.63C138.605 164.925 144.736 171.088 144.736 171.088C144.736 171.088 140.89 163.638 146.198 162.293C149.901 161.393 153.9 164.46 154.494 169.027Z" fill="#2339AB"/>
<path d="M137.583 197.676C135.154 201.091 130.089 202.794 130.089 202.794C130.089 202.794 125.529 200.24 123.913 196.466C122.573 193.312 124.012 190.168 126.759 189.694C130.682 189.016 130.99 194.947 130.99 194.947C130.99 194.947 132.638 189.142 136.341 190.545C138.923 191.503 139.616 194.831 137.583 197.676Z" fill="#2339AB"/>
<path d="M119.716 152.579C119.345 154.252 118.451 155.8 117.134 157.049C115.213 156.809 113.409 156.098 111.925 154.998C110.288 153.585 110.156 151.554 111.508 150.683C113.442 149.425 115.343 152.618 115.343 152.618C115.343 152.618 114.562 149.115 116.969 149.019C118.65 148.874 119.991 150.528 119.716 152.579Z" fill="#2339AB"/>
</svg>
