<svg width="1790" height="2008" viewBox="0 0 1790 2008" fill="none" xmlns="http://www.w3.org/2000/svg">
<g clip-path="url(#clip0_428_2)">
<g filter="url(#filter0_d_428_2)">
<path d="M342.83 1278.89C-293.083 1092.55 -864.687 1201.25 -1071 1278.89V1759.75L2881.72 1810C3100.8 1598.68 3397.57 1176.61 2832.04 1178.86C2125.12 1181.68 1854.99 1250.2 1667.65 1316.45C1449.97 1393.44 1137.72 1511.81 342.83 1278.89Z" fill="url(#paint0_linear_428_2)"/>
</g>
<path d="M636.131 1002.35L778.09 1004.45L850.43 988.946L884.391 962.37L703.384 850.381L756.313 916.222L528.83 832.389L697.937 942.518L454.117 942.407L696.083 989.503L636.131 1002.35Z" fill="#00ABF0"/>
<path d="M797.131 893.526L824.85 981.742L913.36 984.649L975.766 983.777L1164.13 882.789L1034.35 920.569L1142.61 807.84L954.205 903.56L867.662 805.105L847.483 914.524L797.131 893.526Z" fill="#00ABF0"/>
<path d="M756.907 996.457L830.419 997.543L867.879 989.514L885.465 975.751L791.733 917.759L819.141 951.854L701.342 908.442L788.912 965.471L662.653 965.414L787.952 989.802L756.907 996.457Z" fill="#F1F1F1"/>
<path d="M840.279 940.101L854.633 985.783L900.466 987.288L932.783 986.837L1030.32 934.541L963.118 954.105L1019.18 895.73L921.618 945.297L876.802 894.314L866.353 950.975L840.279 940.101Z" fill="#F1F1F1"/>
<g filter="url(#filter1_d_428_2)">
<path fill-rule="evenodd" clip-rule="evenodd" d="M1101 1609C1103.83 1557 1158.7 1263.7 1311.5 1204.5C1339.84 1193.52 1368.01 1180.25 1394.95 1164.54C1394.33 1167.93 1394 1171.43 1394 1175C1394 1206.76 1419.74 1232.5 1451.5 1232.5C1483.26 1232.5 1509 1206.76 1509 1175C1509 1152.83 1496.46 1133.6 1478.08 1124C1487.43 1119.12 1495.27 1111.74 1500.72 1102.75C1515.62 1111.49 1532.97 1116.5 1551.5 1116.5C1607 1116.5 1652 1071.5 1652 1016C1652 995.483 1645.85 976.403 1635.3 960.5C1635.37 960.5 1635.43 960.5 1635.5 960.5C1657.87 960.5 1676 942.368 1676 920C1676 897.632 1657.87 879.5 1635.5 879.5C1613.13 879.5 1595 897.632 1595 920C1595 921.886 1595.13 923.742 1595.38 925.559C1591.77 923.804 1588.04 922.259 1584.2 920.94C1600.96 840.404 1590.28 743.082 1537.5 627C1622.67 676.333 1792.2 836.6 1789 1083C1787.63 1188.35 1792.73 1276.98 1796.76 1346.87C1802.15 1440.45 1805.6 1500.44 1789 1522L1101 1609ZM1526 1175C1526 1160.92 1537.42 1149.5 1551.5 1149.5C1565.58 1149.5 1577 1160.92 1577 1175C1577 1189.08 1565.58 1200.5 1551.5 1200.5C1537.42 1200.5 1526 1189.08 1526 1175Z" fill="#00ABF0"/>
<circle cx="88.5" cy="88.5" r="88.5" transform="matrix(-1 0 0 1 1640 927.5)" fill="white"/>
<circle cx="28.5" cy="28.5" r="28.5" transform="matrix(-1 0 0 1 1664 891.5)" fill="white"/>
<circle cx="44.5" cy="44.5" r="44.5" transform="matrix(-1 0 0 1 1496 1028.5)" fill="white"/>
<circle cx="1551.5" cy="1175" r="24.5" transform="rotate(180 1551.5 1175)" fill="white"/>
<circle cx="1451.5" cy="1175" r="46.5" transform="rotate(180 1451.5 1175)" fill="white"/>
</g>
<g filter="url(#filter2_d_428_2)">
<path d="M803.706 1492.86C574.52 1459.25 433.741 1625.49 392 1712.81V1852L1645.13 1768.62L2123.51 1593.97C2187.47 1440.56 2246.39 1142.79 1970.36 1179.03C1625.32 1224.33 1530.72 1287.36 1406.4 1461.35C1282.08 1635.34 1090.19 1534.88 803.706 1492.86Z" fill="#07354C"/>
</g>
<path d="M958.5 1308.5L989 1691.5L898 1670L765.5 1553.5L743.5 1480.5L755.5 1339V1313.5V1283.5L751.5 1268L743.5 1237L735 1200.5L714 1155.5L702 1109.5L698.5 1079L695 1061L698.5 1044V1025.5L706.5 1009.5L714 997V986.5L720 973L735 963.5H758L762 956.5V951L768.5 940.5L784 931H801.5L813 912L842.5 896L854.5 904L867 890L896.5 882L919.5 887L935.5 890H958.5L973.5 904C989 926 982.947 935.997 989 956.5L1094 1107V1146L1046.5 1193.5C1027.33 1216 989 1262.4 989 1268C989 1273.6 968.667 1297.33 958.5 1308.5Z" fill="#09384C"/>
<path d="M775.5 1415.5V1451L781.5 1446V1422L785.5 1384.5L789.5 1374V1354V1286H785.5L781.5 1291V1331.5L778.5 1404.5L775.5 1415.5Z" fill="white"/>
<path d="M973.5 957.5L981.5 961L1038.5 1040.5V1044.5L1041.5 1052L1046.5 1055.5L1054 1067L1063.5 1086C1066.33 1092.5 1072.1 1105.9 1072.5 1107.5C1072.9 1109.1 1082.33 1123.17 1087 1130L1041 1174L1029 1192.5C1022.17 1202.33 1008.4 1222.3 1008 1223.5C1007.6 1224.7 996.5 1242.67 991 1251.5L974.5 1268.5L971 1277C970.333 1279.33 968.8 1284.3 968 1285.5C967.2 1286.7 961.667 1288.67 959 1289.5L946.5 1292L929.5 1287.5L906 1281.5L890 1275.5L878 1265.5L864 1251.5L851 1231.5L844 1211.5L842 1195L844 1188H848.5L851 1195L854 1203.5L864 1218.5L874 1227V1215L872 1201.5L865.5 1188L867.5 1177L862.5 1168H870.5L872 1174L878 1177L880 1174V1161L878 1155.5L875.5 1148V1143H883L898.5 1157.5L908.5 1161L912 1154L916.5 1155.5L921.5 1154L919 1148L912 1143L902 1133V1125.5H916.5L919 1115H930.5V1103H935L954.5 1121L962.5 1125.5H966.5V1121L956.5 1109.5L945.5 1098.5V1095.5L951.5 1094L958 1098.5L968 1105.5L975.5 1115L981.5 1125.5L990 1135L1000 1138L1005.5 1135V1130L1000 1125.5L992 1122.5L984.5 1111L977 1098.5L973.5 1091.5L972.5 1086L981.5 1084.5L990 1086L1001.5 1084.5L1014.5 1081.5L1021 1079.5V1076L1016.5 1072.5H1012L1005.5 1074.5H997.5H990L977 1072.5L971.5 1069.5L966.5 1064L984.5 1038.5V1026.5L981.5 1023.5L977 1026.5L975.5 1030.5L973.5 1038.5L966.5 1050.5C963.667 1052.17 957.7 1055.5 956.5 1055.5C955.3 1055.5 950.667 1056.83 948.5 1057.5L921 1049L900 1050.5L895.5 1046.5H890L875 1050.5L859.5 1030.5L846 1001.5L866 990H878.5L890 998.5L897 1005.5L895.5 995L888.5 990L891.5 986L902 990L912 1005.5V1014L916.5 1019L873 1036L916.5 1030.5L923.5 1019V1010L919 998.5V992.5V986V983.5H929H942V990L945.5 992.5L951.5 983.5L954.5 976.5L960.5 970.5L964.5 963.5L973.5 957.5Z" fill="white"/>
<path d="M852 982H845.5L843.5 980.5L842 973.5V961.5L833 946L825 941L827 929.5L830.5 922L837 919L852 922V927.5L854 937L858 961.5V973.5L852 982Z" fill="white"/>
<path d="M806 983L804 975.5L806 971L813 974V980.5L818 987L816 993.5L813 997.5H810L806 983Z" fill="white"/>
<path d="M741.5 1058.5L749.5 1061L743.5 1039.5V1020H732L728 1017L732 1004L741.5 996L749.5 1002.5V1011.5L753 1017L764 1051.5L765.5 1058.5L773.5 1072.5L776.5 1084L773.5 1088.5V1098H764L759.5 1102L753 1104L746.5 1102L741.5 1093L732 1084L725.5 1068.5V1058.5H741.5Z" fill="white"/>
<path d="M821.5 1106H815L812 1086.5L804.5 1084.5L795.5 1080L791 1068.5V1039.5L788 1033.5V1015L768 996.5V983.5L782 972L799.5 974V983.5L804.5 990V996.5L808 999.5V1009L815 1022.5L812 1033.5L818 1039.5V1055.5L821.5 1058.5L827 1075L825.5 1084.5L829.5 1088.5V1096L832 1102L825.5 1108.5L821.5 1106Z" fill="white"/>
<path d="M879 974L883 977V980.5L879 982.5H872.5L869 984.5H865.5L862.5 982.5L865.5 977L872.5 974H879Z" fill="white"/>
<path d="M980 934.5L982 945H978.5L974.5 942L966 934.5H952L950 932.5L944.5 930.5L943 926L939 924.5L936 926L934 934.5L928 936.5L925.5 940L921.5 945L899.5 966L892 967.5L887 966V962L892 949L899.5 940L903 928.5V915L899.5 908.5L892 903V899.5L899.5 890H912.5L939 908.5L946 911.5L955.5 918H966L974.5 924.5L980 934.5Z" fill="white"/>
<path d="M871 1065.5L865 1073.5H854L847.5 1077H842L835 1071.5H830L826.5 1065.5L823.5 1057L826.5 1053.5H830L835 1062.5L842 1065.5H849.5L854 1064L857 1060L865 1057L871 1065.5Z" fill="white"/>
<path d="M822.5 1115.5H835L824 1133L814.5 1155L809 1167L804 1186L803 1193.5L807 1197.5L809 1206.5V1230L827.5 1251L849.5 1269.5L864 1276.5V1273L865.5 1269.5L875 1273L900.5 1285L921 1289.5L937 1299L922 1293.5H912.5L902 1288.5L887 1283.5H875C870.333 1282.17 859.9 1279.5 855.5 1279.5C851.1 1279.5 851.333 1285.5 852 1288.5L879.5 1290.5L894 1297L923.5 1300.5C928.167 1304 938.8 1310.6 944 1309C950.5 1307 954.5 1308.5 956 1311C957.2 1313 954.167 1318.5 952.5 1321L950 1481C940.167 1489.17 916.1 1507 898.5 1513C880.9 1519 874.833 1530.17 874 1535L868.5 1615.5L839.5 1593C842.333 1533.67 848.9 1413.8 852.5 1409C856.1 1404.2 855 1396 854 1392.5V1359.5C854 1359.5 859.5 1346 861 1338.5C862.5 1331 858 1325.5 858 1319.5C858 1314.7 863 1314.17 865.5 1314.5C866.667 1311.17 866.8 1304.4 858 1304C847 1303.5 848 1305 845.5 1307C843.5 1308.6 846.333 1314 848 1316.5C848.833 1319.5 850 1326.2 848 1329C846 1331.8 841.833 1349.5 840 1358C841.833 1362.67 846 1375.8 848 1391C850 1406.2 837.167 1420.33 830.5 1425.5L840 1437V1448L834 1463.5L830.5 1486L834 1491.5L837 1499.5L834 1507.5L821 1521L812 1563L803 1567L822.5 1316.5L825 1311H830.5V1307L827.5 1303L811 1287V1279.5L814 1276.5H822.5V1273L820.5 1269.5H811L807 1263.5L803 1255L792.5 1246.5L780.5 1238.5V1232L784.5 1225L790 1222L792.5 1216H801V1211.5L790 1208.5L780.5 1222L775 1225V1228.5L768 1234L764.5 1232L762.5 1197.5L748 1181.5V1174V1154.5L745.5 1137L743 1122V1110.5H770.5L775 1104.5L790 1118.5L807 1122L822.5 1115.5Z" fill="white"/>
<path d="M789.5 1510L795 1521L802 1485L805.5 1464L807.5 1412L812 1320.5L806 1322.5L802 1395L799.5 1415V1448.5V1464V1473.5L795 1487L789.5 1510Z" fill="white"/>
<path d="M614.972 657.997L735.809 689.293L806.736 672.02L850.921 625.236L758.514 366.247L766.865 508.305L618.627 296.877L701.854 549.868L492.341 503.115L673.754 643.681L614.972 657.997Z" fill="white"/>
<path d="M814.754 470.608L788.813 652.699L863.251 675.416L917.385 685.578L1136.26 519.126L1003.39 570.077L1160.05 364.805L944.106 520.692L925.261 306.856L846.188 522.301L814.754 470.608Z" fill="white"/>
<path d="M722.112 669.224L784.686 685.431L821.414 676.486L844.295 652.26L796.443 518.145L800.768 591.708L724.004 482.223L767.102 613.231L658.609 589.021L752.551 661.811L722.112 669.224Z" fill="#00ABF0"/>
<path d="M825.567 572.187L812.133 666.481L850.68 678.245L878.712 683.507L992.056 597.312L923.252 623.696L1004.37 517.399L892.55 598.123L882.791 487.39L841.844 598.956L825.567 572.187Z" fill="#00ABF0"/>
<path d="M637.333 835.385C638.343 825.652 631.723 819.821 627.167 817.506C626.154 816.991 625.149 816.455 624.257 815.752L619.257 811.815L612.978 805.964C611.728 804.799 610.767 803.36 610.17 801.76L608.267 796.657C607.815 795.444 607.58 794.161 607.574 792.867L607.54 785.998C607.534 784.927 607.685 783.862 607.988 782.835L616.575 753.688L621.099 738.335C621.471 737.07 622.069 735.882 622.862 734.828L625.342 731.534C626.303 730.257 627.531 729.205 628.94 728.451L709.101 685.559L725.902 678.833C727.672 678.125 729.595 677.888 731.484 678.147L743.371 679.776C744.54 679.936 745.676 680.283 746.735 680.804L758.339 686.513L767.797 691.026C769.095 691.646 770.503 692.004 771.94 692.082L787.519 692.923C788.673 692.986 789.83 692.866 790.946 692.568L925.198 656.777C926.208 656.508 927.175 656.096 928.069 655.554L970.195 630.003C971.656 629.117 973.315 628.578 975.019 628.46C1038.95 624.035 1089.7 649.108 1110.13 653.07C1122.7 655.507 1137.55 662.537 1147.57 668.057C1152.21 670.612 1158.67 670.256 1163.95 669.839C1166.01 669.675 1168.46 669.708 1171.32 670.057C1174.69 670.467 1177.15 671.436 1178.92 672.641C1183.09 675.481 1186.46 680.769 1191.3 682.196L1205.26 686.31C1206.12 686.564 1206.95 686.923 1207.73 687.379L1208.34 687.741C1209.51 688.429 1210.8 688.895 1212.14 689.114L1215.61 689.681C1217.23 689.946 1218.81 690.54 1219.91 691.763C1224.43 696.81 1230.87 710.408 1230.46 736.478C1230.04 763.427 1212.51 782.283 1201.23 790.298C1199.07 791.831 1196.36 792.26 1193.76 791.762C1183.11 789.722 1166.6 786.467 1162.89 785.374C1162.28 785.193 1161.65 785.148 1161.02 785.214C1154.75 785.867 1147.88 788.713 1142.17 786.059C1137.52 783.903 1133.02 782.974 1131.43 786.009C1128.7 791.197 1107.94 802.073 1096.62 807.489C1095.67 807.946 1094.67 808.249 1093.63 808.407C1084.38 809.803 1037.12 816.834 1034.21 815.224C1030.18 812.993 980.06 818.557 960.533 821.144L960.439 821.156C940.987 823.733 934.976 824.53 905.72 796.655C876.415 768.735 850.924 795.106 841.019 796.879C833.244 798.27 803.954 841.126 789.49 863.585C788.941 864.438 788.306 865.184 787.542 865.853C766.083 884.644 719.706 919.894 696.888 918.087C667.855 915.788 649.359 884.798 645.552 880.027C641.745 875.257 635.916 849.041 637.333 835.385Z" fill="#07354C"/>
<path d="M945.822 701.811L990.581 698.159L990.913 702.232L946.154 705.884L884 705.884L818.346 728.615L777.565 731.944L757.382 742.273L749.97 737.331L777.116 726.433L817.896 723.105L881 701.811L945.822 701.811Z" fill="white"/>
<path d="M855.751 739.38L880.405 737L880.656 739.603L856.002 741.983L785.808 756.641L763.345 758.809L752.372 765.433L748.197 762.281L763.005 755.287L785.468 753.119L855.751 739.38Z" fill="white"/>
<path d="M1209.35 689.6C1200.42 695.136 1181.85 713.606 1178.97 743.198C1176.09 772.79 1182.32 786.06 1185.8 788.997" stroke="white" stroke-width="4" stroke-linecap="round"/>
<path d="M1181.08 677.623C1159.39 676.964 1143.62 701.942 1138.1 731.157C1132.32 761.771 1148.35 782.828 1151.83 785.764" stroke="white" stroke-width="4" stroke-linecap="round"/>
<path d="M1166.44 672.788C1145.25 675.406 1132.02 699.262 1126.74 729.376C1121.22 760.93 1132.61 780.746 1136.74 783.923" stroke="white" stroke-width="4" stroke-linecap="round"/>
<g clip-path="url(#clip1_428_2)">
<path d="M194.55 1448.7L196.8 1454.44M62.5935 1500.46C57.8067 1456.52 92.2725 1409.38 133.122 1393.35C173.971 1377.33 214.089 1395.22 240.447 1430.69C245.279 1474.74 227.98 1515.02 187.131 1531.05C146.282 1547.07 88.9972 1536.04 62.5935 1500.46Z" stroke="white" stroke-width="5.09783" stroke-linecap="round" stroke-linejoin="round"/>
<path d="M198.29 1525.74C175.699 1512.05 158.235 1491.32 148.589 1466.73C138.943 1442.13 137.651 1415.05 144.911 1389.66M62.3444 1482.95C50.3273 1452.31 24.897 1435.41 -9.92052 1442.84C-14.6438 1464.55 1.10899 1504.71 21.9737 1516.39C14.4966 1539.18 30.2494 1579.34 48.5898 1592.01C79.1766 1573.79 86.3337 1544.1 74.3166 1513.47" stroke="white" stroke-width="5.09783" stroke-linecap="round" stroke-linejoin="round"/>
<path d="M86.6987 1428.25C77.5042 1413.58 58.3042 1399.4 39.2982 1390.44L105.85 1364.33C111.287 1362.18 117.313 1362.02 122.851 1363.9C128.39 1365.78 133.081 1369.56 136.086 1374.58L145.026 1389.61M198.405 1525.7L202.067 1542.8C203.275 1548.52 202.409 1554.49 199.624 1559.63C196.839 1564.77 192.317 1568.76 186.864 1570.87L137.524 1590.22C143.697 1573.26 143.406 1554.62 136.708 1537.85" stroke="white" stroke-width="5.09783" stroke-linecap="round" stroke-linejoin="round"/>
</g>
<g clip-path="url(#clip2_428_2)">
<path d="M553.854 1567.64L549.942 1572.4M444.314 1477.68C480.334 1452.08 538.304 1459.17 572.213 1487.02C606.123 1514.87 610.066 1558.62 591.954 1598.93C555.856 1624.63 512.253 1629.17 478.343 1601.32C444.434 1573.47 426.124 1518.08 444.314 1477.68Z" stroke="white" stroke-width="5.09783" stroke-linecap="round" stroke-linejoin="round"/>
<path d="M488.416 1608.48C489.349 1582.08 498.936 1556.72 515.701 1536.31C532.465 1515.89 555.477 1501.56 581.191 1495.51M459.481 1468.92C480.367 1443.49 482.721 1413.05 459.251 1386.27C437.992 1392.74 410.613 1426.08 410.595 1449.99C387.05 1454.58 359.672 1487.91 357.558 1510.1C388.381 1527.92 417.787 1519.69 438.673 1494.26" stroke="white" stroke-width="5.09783" stroke-linecap="round" stroke-linejoin="round"/>
<path d="M519.113 1463.51C527.431 1448.33 530.449 1424.65 529.005 1403.69L584.251 1449.06C588.784 1452.75 591.856 1457.94 592.918 1463.69C593.98 1469.44 592.962 1475.38 590.047 1480.45L581.286 1495.59M488.511 1608.56L475.369 1620.09C470.962 1623.94 465.332 1626.09 459.484 1626.17C453.636 1626.24 447.951 1624.24 443.445 1620.51L402.487 1586.87C420.309 1583.99 436.444 1574.64 447.813 1560.62" stroke="white" stroke-width="5.09783" stroke-linecap="round" stroke-linejoin="round"/>
</g>
<g clip-path="url(#clip3_428_2)">
<path d="M1606.8 1409.11L1605.39 1411.54M1662.66 1441.36C1667.79 1421.92 1655.49 1398.37 1638.2 1388.38C1620.9 1378.4 1601.64 1383.73 1587.37 1397.9C1582.2 1417.39 1587.25 1436.69 1604.54 1446.67C1621.83 1456.66 1648.36 1455.58 1662.66 1441.36Z" stroke="white" stroke-width="2.31978" stroke-linecap="round" stroke-linejoin="round"/>
<path d="M1599.88 1443.53C1610.98 1438.9 1620.24 1430.76 1626.25 1420.35C1632.26 1409.94 1634.68 1397.84 1633.14 1385.92M1663.96 1433.5C1671.45 1420.53 1684.04 1414.66 1699.2 1420.36C1699.85 1430.46 1690.03 1447.46 1679.85 1451.29C1681.67 1462.06 1671.85 1479.06 1662.74 1483.51C1650.21 1473.23 1649.01 1459.39 1656.5 1446.42" stroke="white" stroke-width="2.31978" stroke-linecap="round" stroke-linejoin="round"/>
<path d="M1656.71 1407.24C1661.85 1401.26 1671.45 1396.18 1680.61 1393.44L1652.44 1377.18C1650.14 1375.84 1647.44 1375.36 1644.82 1375.83C1642.2 1376.3 1639.83 1377.68 1638.14 1379.74L1633.09 1385.89M1599.83 1443.5L1597.02 1450.94C1596.09 1453.44 1596.08 1456.18 1596.98 1458.68C1597.88 1461.19 1599.65 1463.29 1601.96 1464.61L1622.84 1476.67C1621.22 1468.61 1622.62 1460.25 1626.77 1453.16" stroke="white" stroke-width="2.31978" stroke-linecap="round" stroke-linejoin="round"/>
</g>
<g filter="url(#filter3_d_428_2)">
<path d="M1024.55 1603.63C875.484 1557.27 731.786 1667.72 698 1711L787.62 1878.62L1869.5 1711C1891.77 1610.61 1784.5 1366.48 1520.5 1434.79C1376.96 1471.93 1329.22 1514.6 1298.09 1552.12C1261.93 1595.7 1210.88 1661.57 1024.55 1603.63Z" fill="#00ABF0"/>
</g>
<g filter="url(#filter4_d_428_2)">
<path d="M643.011 1555.89C335.806 1369.55 59.6683 1478.25 -40 1555.89V2036.75L1869.53 2087C1975.37 1875.68 2118.74 1453.61 1845.53 1455.86C1504.03 1458.68 1373.52 1527.2 1283.02 1593.45C1177.86 1670.44 1027.02 1788.81 643.011 1555.89Z" fill="#00ABF0"/>
</g>
<g filter="url(#filter5_d_428_2)">
<path d="M280.83 1711.89C-355.083 1525.55 -926.687 1634.25 -1133 1711.89V2192.75L2819.72 2243C3038.8 2031.68 3335.57 1609.61 2770.04 1611.86C2063.12 1614.68 1792.99 1683.2 1605.65 1749.45C1387.97 1826.44 1075.72 1944.81 280.83 1711.89Z" fill="url(#paint1_linear_428_2)"/>
</g>
<circle cx="164.5" cy="869.5" r="12.5" fill="white"/>
<circle cx="102.5" cy="893.5" r="25.5" fill="white"/>
<circle cx="151.5" cy="948.5" r="14.5" fill="white"/>
<circle cx="76.5" cy="993.5" r="39.5" fill="white"/>
<circle cx="167.5" cy="1043.5" r="28.5" fill="white"/>
</g>
<defs>
<filter id="filter0_d_428_2" x="-1131.6" y="1103.4" width="4350.2" height="755.2" filterUnits="userSpaceOnUse" color-interpolation-filters="sRGB">
<feFlood flood-opacity="0" result="BackgroundImageFix"/>
<feColorMatrix in="SourceAlpha" type="matrix" values="0 0 0 0 0 0 0 0 0 0 0 0 0 0 0 0 0 0 127 0" result="hardAlpha"/>
<feOffset dy="-12"/>
<feGaussianBlur stdDeviation="30.3"/>
<feComposite in2="hardAlpha" operator="out"/>
<feColorMatrix type="matrix" values="0 0 0 0 0 0 0 0 0 0 0 0 0 0 0 0 0 0 0.2 0"/>
<feBlend mode="normal" in2="BackgroundImageFix" result="effect1_dropShadow_428_2"/>
<feBlend mode="normal" in="SourceGraphic" in2="effect1_dropShadow_428_2" result="shape"/>
</filter>
<filter id="filter1_d_428_2" x="1074.6" y="604.6" width="753.007" height="1034.8" filterUnits="userSpaceOnUse" color-interpolation-filters="sRGB">
<feFlood flood-opacity="0" result="BackgroundImageFix"/>
<feColorMatrix in="SourceAlpha" type="matrix" values="0 0 0 0 0 0 0 0 0 0 0 0 0 0 0 0 0 0 127 0" result="hardAlpha"/>
<feOffset dy="4"/>
<feGaussianBlur stdDeviation="13.2"/>
<feComposite in2="hardAlpha" operator="out"/>
<feColorMatrix type="matrix" values="0 0 0 0 0 0 0 0 0 0 0 0 0 0 0 0 0 0 0.25 0"/>
<feBlend mode="normal" in2="BackgroundImageFix" result="effect1_dropShadow_428_2"/>
<feBlend mode="normal" in="SourceGraphic" in2="effect1_dropShadow_428_2" result="shape"/>
</filter>
<filter id="filter2_d_428_2" x="366.8" y="1131.8" width="1835.4" height="726.4" filterUnits="userSpaceOnUse" color-interpolation-filters="sRGB">
<feFlood flood-opacity="0" result="BackgroundImageFix"/>
<feColorMatrix in="SourceAlpha" type="matrix" values="0 0 0 0 0 0 0 0 0 0 0 0 0 0 0 0 0 0 127 0" result="hardAlpha"/>
<feOffset dy="-19"/>
<feGaussianBlur stdDeviation="12.6"/>
<feComposite in2="hardAlpha" operator="out"/>
<feColorMatrix type="matrix" values="0 0 0 0 0 0 0 0 0 0 0 0 0 0 0 0 0 0 0.25 0"/>
<feBlend mode="normal" in2="BackgroundImageFix" result="effect1_dropShadow_428_2"/>
<feBlend mode="normal" in="SourceGraphic" in2="effect1_dropShadow_428_2" result="shape"/>
</filter>
<filter id="filter3_d_428_2" x="637.4" y="1350.3" width="1295.55" height="576.916" filterUnits="userSpaceOnUse" color-interpolation-filters="sRGB">
<feFlood flood-opacity="0" result="BackgroundImageFix"/>
<feColorMatrix in="SourceAlpha" type="matrix" values="0 0 0 0 0 0 0 0 0 0 0 0 0 0 0 0 0 0 127 0" result="hardAlpha"/>
<feOffset dy="-12"/>
<feGaussianBlur stdDeviation="30.3"/>
<feComposite in2="hardAlpha" operator="out"/>
<feColorMatrix type="matrix" values="0 0 0 0 0 0 0 0 0 0 0 0 0 0 0 0 0 0 0.2 0"/>
<feBlend mode="normal" in2="BackgroundImageFix" result="effect1_dropShadow_428_2"/>
<feBlend mode="normal" in="SourceGraphic" in2="effect1_dropShadow_428_2" result="shape"/>
</filter>
<filter id="filter4_d_428_2" x="-100.6" y="1380.4" width="2164.2" height="755.2" filterUnits="userSpaceOnUse" color-interpolation-filters="sRGB">
<feFlood flood-opacity="0" result="BackgroundImageFix"/>
<feColorMatrix in="SourceAlpha" type="matrix" values="0 0 0 0 0 0 0 0 0 0 0 0 0 0 0 0 0 0 127 0" result="hardAlpha"/>
<feOffset dy="-12"/>
<feGaussianBlur stdDeviation="30.3"/>
<feComposite in2="hardAlpha" operator="out"/>
<feColorMatrix type="matrix" values="0 0 0 0 0 0 0 0 0 0 0 0 0 0 0 0 0 0 0.2 0"/>
<feBlend mode="normal" in2="BackgroundImageFix" result="effect1_dropShadow_428_2"/>
<feBlend mode="normal" in="SourceGraphic" in2="effect1_dropShadow_428_2" result="shape"/>
</filter>
<filter id="filter5_d_428_2" x="-1193.6" y="1536.4" width="4350.2" height="755.2" filterUnits="userSpaceOnUse" color-interpolation-filters="sRGB">
<feFlood flood-opacity="0" result="BackgroundImageFix"/>
<feColorMatrix in="SourceAlpha" type="matrix" values="0 0 0 0 0 0 0 0 0 0 0 0 0 0 0 0 0 0 127 0" result="hardAlpha"/>
<feOffset dy="-12"/>
<feGaussianBlur stdDeviation="30.3"/>
<feComposite in2="hardAlpha" operator="out"/>
<feColorMatrix type="matrix" values="0 0 0 0 0 0 0 0 0 0 0 0 0 0 0 0 0 0 0.2 0"/>
<feBlend mode="normal" in2="BackgroundImageFix" result="effect1_dropShadow_428_2"/>
<feBlend mode="normal" in="SourceGraphic" in2="effect1_dropShadow_428_2" result="shape"/>
</filter>
<linearGradient id="paint0_linear_428_2" x1="-1071" y1="1493" x2="3158" y2="1493" gradientUnits="userSpaceOnUse">
<stop stop-color="#00ABF0"/>
<stop offset="1" stop-color="#00628A"/>
</linearGradient>
<linearGradient id="paint1_linear_428_2" x1="-1133" y1="1926" x2="3096" y2="1926" gradientUnits="userSpaceOnUse">
<stop stop-color="#00ABF0"/>
<stop offset="1" stop-color="#00628A"/>
</linearGradient>
<clipPath id="clip0_428_2">
<rect width="1790" height="2008" fill="white"/>
</clipPath>
<clipPath id="clip1_428_2">
<rect width="295.814" height="295.814" fill="white" transform="translate(-66 1392.02) rotate(-21.4173)"/>
</clipPath>
<clipPath id="clip2_428_2">
<rect width="295.814" height="295.814" fill="white" transform="translate(476.271 1312.53) rotate(39.3945)"/>
</clipPath>
<clipPath id="clip3_428_2">
<rect width="134.611" height="134.611" fill="white" transform="matrix(-0.866025 -0.5 -0.5 0.866025 1727.88 1401.31)"/>
</clipPath>
</defs>
</svg>
