<svg width="34" height="34" viewBox="0 0 34 34" fill="none" xmlns="http://www.w3.org/2000/svg">
<path d="M16.7049 16.0089C15.7819 16.0089 14.8967 15.6422 14.244 14.9896C13.5913 14.3369 13.2247 13.4517 13.2247 12.5287C13.2247 11.6057 13.5913 10.7205 14.244 10.0678C14.8967 9.41518 15.7819 9.04852 16.7049 9.04852C17.6279 9.04852 18.5131 9.41518 19.1657 10.0678C19.8184 10.7205 20.185 11.6057 20.185 12.5287C20.185 12.9857 20.095 13.4383 19.9201 13.8605C19.7452 14.2828 19.4889 14.6664 19.1657 14.9896C18.8426 15.3127 18.4589 15.5691 18.0367 15.744C17.6144 15.9189 17.1619 16.0089 16.7049 16.0089ZM16.7049 2.78418C14.1204 2.78418 11.6419 3.81083 9.81443 5.63829C7.98698 7.46574 6.96033 9.9443 6.96033 12.5287C6.96033 19.8371 16.7049 30.6257 16.7049 30.6257C16.7049 30.6257 26.4494 19.8371 26.4494 12.5287C26.4494 9.9443 25.4227 7.46574 23.5953 5.63829C21.7678 3.81083 19.2893 2.78418 16.7049 2.78418Z" fill="white"/>
</svg>
