<svg width="34" height="34" viewBox="0 0 34 34" fill="none" xmlns="http://www.w3.org/2000/svg">
<path d="M27.1453 2.08496H31.3215V6.26119H27.1453V2.08496ZM27.1453 8.3493H31.3215V12.5255H27.1453V8.3493ZM20.881 2.08496H25.0572V6.26119H20.881V2.08496ZM20.881 8.3493H25.0572V12.5255H20.881V8.3493ZM26.1013 31.3186H25.9238C5.40805 30.1388 2.49513 12.8283 2.08795 7.54538C2.02431 6.71718 2.29225 5.89762 2.83284 5.26696C3.37343 4.6363 4.1424 4.2462 4.97059 4.18247C5.05342 4.17621 5.1366 4.17308 5.22012 4.17308H10.7223C11.1405 4.17267 11.5492 4.29785 11.8954 4.5324C12.2417 4.76695 12.5095 5.10006 12.6642 5.48859L14.2512 9.39336C14.404 9.77292 14.4419 10.189 14.3603 10.5899C14.2786 10.9909 14.0809 11.359 13.7918 11.6485L11.568 13.8932C11.9139 15.8679 12.8588 17.6884 14.2745 19.1078C15.6902 20.5272 17.5082 21.4769 19.4819 21.8281L21.7475 19.5834C22.0414 19.2975 22.413 19.1044 22.8159 19.0283C23.2188 18.9522 23.6352 18.9963 24.0131 19.1553L27.9492 20.7318C28.3319 20.8914 28.6584 21.1614 28.8871 21.5072C29.1158 21.8531 29.2364 22.2592 29.2334 22.6738V28.1864C29.2334 29.0171 28.9034 29.8138 28.316 30.4012C27.7286 30.9886 26.932 31.3186 26.1013 31.3186ZM5.22012 6.26119C5.08301 6.26078 4.94717 6.28737 4.82034 6.33946C4.69351 6.39155 4.57818 6.46811 4.48094 6.56477C4.3837 6.66143 4.30645 6.7763 4.2536 6.90281C4.20075 7.02932 4.17334 7.16501 4.17293 7.30211C4.17293 7.33135 4.17293 7.35954 4.17606 7.38877C4.65633 13.5696 7.7363 28.1864 26.0386 29.2304C26.315 29.247 26.5866 29.1531 26.7937 28.9695C27.0008 28.7858 27.1266 28.5274 27.1432 28.2511L27.1453 28.1864V22.6738L23.2092 21.0972L20.2128 24.0728L19.7116 24.0102C10.6283 22.8721 9.39635 13.7888 9.39635 13.6949L9.3337 13.1937L12.2988 10.1973L10.7327 6.26119H5.22012Z" fill="white"/>
</svg>
