<svg width="96" height="96" viewBox="0 0 96 96" fill="none" xmlns="http://www.w3.org/2000/svg">
<path d="M77.0805 21.32C71.7605 18.84 66.0005 17.04 60.0005 16C59.895 16.0015 59.7943 16.0446 59.7205 16.12C59.0005 17.44 58.1605 19.16 57.6005 20.48C51.2364 19.5206 44.7645 19.5206 38.4005 20.48C37.8405 19.12 37.0005 17.44 36.2405 16.12C36.2005 16.04 36.0805 16 35.9605 16C29.9605 17.04 24.2405 18.84 18.8805 21.32C18.8405 21.32 18.8005 21.36 18.7605 21.4C7.88047 37.68 4.88047 53.52 6.36047 69.2C6.36047 69.28 6.40047 69.36 6.48047 69.4C13.6805 74.68 20.6005 77.88 27.4405 80C27.5605 80.04 27.6805 80 27.7205 79.92C29.3205 77.72 30.7605 75.4 32.0005 72.96C32.0805 72.8 32.0005 72.64 31.8405 72.6C29.5605 71.72 27.4005 70.68 25.2805 69.48C25.1205 69.4 25.1205 69.16 25.2405 69.04C25.6805 68.72 26.1205 68.36 26.5605 68.04C26.6405 67.96 26.7605 67.96 26.8405 68C40.6005 74.28 55.4405 74.28 69.0405 68C69.1205 67.96 69.2405 67.96 69.3205 68.04C69.7605 68.4 70.2005 68.72 70.6405 69.08C70.8005 69.2 70.8005 69.44 70.6005 69.52C68.5205 70.76 66.3205 71.76 64.0405 72.64C63.8805 72.68 63.8405 72.88 63.8805 73C65.1605 75.44 66.6005 77.76 68.1605 79.96C68.2805 80 68.4005 80.04 68.5205 80C75.4005 77.88 82.3205 74.68 89.5205 69.4C89.6005 69.36 89.6405 69.28 89.6405 69.2C91.4005 51.08 86.7205 35.36 77.2405 21.4C77.2005 21.36 77.1605 21.32 77.0805 21.32ZM34.0805 59.64C29.9605 59.64 26.5205 55.84 26.5205 51.16C26.5205 46.48 29.8805 42.68 34.0805 42.68C38.3205 42.68 41.6805 46.52 41.6405 51.16C41.6405 55.84 38.2805 59.64 34.0805 59.64ZM61.9605 59.64C57.8405 59.64 54.4005 55.84 54.4005 51.16C54.4005 46.48 57.7605 42.68 61.9605 42.68C66.2005 42.68 69.5605 46.52 69.5205 51.16C69.5205 55.84 66.2005 59.64 61.9605 59.64Z" fill="white"/>
</svg>
