<svg width="96" height="96" viewBox="0 0 96 96" fill="none" xmlns="http://www.w3.org/2000/svg">
<path d="M31.2 8H64.8C77.6 8 88 18.4 88 31.2V64.8C88 70.953 85.5557 76.854 81.2049 81.2049C76.854 85.5557 70.953 88 64.8 88H31.2C18.4 88 8 77.6 8 64.8V31.2C8 25.047 10.4443 19.146 14.7951 14.7951C19.146 10.4443 25.047 8 31.2 8ZM30.4 16C26.5809 16 22.9182 17.5171 20.2177 20.2177C17.5171 22.9182 16 26.5809 16 30.4V65.6C16 73.56 22.44 80 30.4 80H65.6C69.4191 80 73.0818 78.4829 75.7823 75.7823C78.4829 73.0818 80 69.4191 80 65.6V30.4C80 22.44 73.56 16 65.6 16H30.4ZM69 22C70.3261 22 71.5979 22.5268 72.5355 23.4645C73.4732 24.4021 74 25.6739 74 27C74 28.3261 73.4732 29.5979 72.5355 30.5355C71.5979 31.4732 70.3261 32 69 32C67.6739 32 66.4021 31.4732 65.4645 30.5355C64.5268 29.5979 64 28.3261 64 27C64 25.6739 64.5268 24.4021 65.4645 23.4645C66.4021 22.5268 67.6739 22 69 22ZM48 28C53.3043 28 58.3914 30.1071 62.1421 33.8579C65.8929 37.6086 68 42.6957 68 48C68 53.3043 65.8929 58.3914 62.1421 62.1421C58.3914 65.8929 53.3043 68 48 68C42.6957 68 37.6086 65.8929 33.8579 62.1421C30.1071 58.3914 28 53.3043 28 48C28 42.6957 30.1071 37.6086 33.8579 33.8579C37.6086 30.1071 42.6957 28 48 28ZM48 36C44.8174 36 41.7652 37.2643 39.5147 39.5147C37.2643 41.7652 36 44.8174 36 48C36 51.1826 37.2643 54.2348 39.5147 56.4853C41.7652 58.7357 44.8174 60 48 60C51.1826 60 54.2348 58.7357 56.4853 56.4853C58.7357 54.2348 60 51.1826 60 48C60 44.8174 58.7357 41.7652 56.4853 39.5147C54.2348 37.2643 51.1826 36 48 36Z" fill="white"/>
</svg>
