<svg width="96" height="96" viewBox="0 0 96 96" fill="none" xmlns="http://www.w3.org/2000/svg">
<path d="M66.4001 23.28C63.6665 20.1581 62.1597 16.1496 62.1601 12H49.8001V61.6C49.7068 64.2848 48.5742 66.8283 46.6414 68.694C44.7085 70.5597 42.1265 71.6016 39.4401 71.6C33.7601 71.6 29.0401 66.96 29.0401 61.2C29.0401 54.32 35.6801 49.16 42.5201 51.28V38.64C28.7201 36.8 16.6401 47.52 16.6401 61.2C16.6401 74.52 27.6801 84 39.4001 84C51.9601 84 62.1601 73.8 62.1601 61.2V36.04C67.1721 39.6394 73.1896 41.5706 79.3601 41.56V29.2C79.3601 29.2 71.8401 29.56 66.4001 23.28Z" fill="white"/>
</svg>
