<svg width="96" height="96" viewBox="0 0 96 96" fill="none" xmlns="http://www.w3.org/2000/svg">
<path d="M89.8401 24C86.7601 25.4 83.4402 26.32 80.0002 26.76C83.5202 24.64 86.2402 21.28 87.5202 17.24C84.2002 19.24 80.5202 20.64 76.6402 21.44C73.4802 18 69.0402 16 64.0002 16C54.6002 16 46.9202 23.68 46.9202 33.16C46.9202 34.52 47.0802 35.84 47.3602 37.08C33.1202 36.36 20.4402 29.52 12.0002 19.16C10.5202 21.68 9.68016 24.64 9.68016 27.76C9.68016 33.72 12.6802 39 17.3202 42C14.4802 42 11.8402 41.2 9.52016 40V40.12C9.52016 48.44 15.4402 55.4 23.2802 56.96C20.7635 57.6517 18.1203 57.7476 15.5602 57.24C16.6466 60.6499 18.7743 63.6336 21.6442 65.7717C24.5141 67.9098 27.9819 69.0948 31.5602 69.16C25.4948 73.962 17.9762 76.5576 10.2402 76.52C8.88016 76.52 7.52016 76.44 6.16016 76.28C13.7602 81.16 22.8002 84 32.4802 84C64.0002 84 81.3202 57.84 81.3202 35.16C81.3202 34.4 81.3202 33.68 81.2802 32.92C84.6402 30.52 87.5201 27.48 89.8401 24Z" fill="white"/>
</svg>
