<svg width="96" height="96" viewBox="0 0 96 96" fill="none" xmlns="http://www.w3.org/2000/svg">
<path d="M40 60L60.76 48L40 36V60ZM86.24 28.68C86.76 30.56 87.12 33.08 87.36 36.28C87.64 39.48 87.76 42.24 87.76 44.64L88 48C88 56.76 87.36 63.2 86.24 67.32C85.24 70.92 82.92 73.24 79.32 74.24C77.44 74.76 74 75.12 68.72 75.36C63.52 75.64 58.76 75.76 54.36 75.76L48 76C31.24 76 20.8 75.36 16.68 74.24C13.08 73.24 10.76 70.92 9.76 67.32C9.24 65.44 8.88 62.92 8.64 59.72C8.36 56.52 8.24 53.76 8.24 51.36L8 48C8 39.24 8.64 32.8 9.76 28.68C10.76 25.08 13.08 22.76 16.68 21.76C18.56 21.24 22 20.88 27.28 20.64C32.48 20.36 37.24 20.24 41.64 20.24L48 20C64.76 20 75.2 20.64 79.32 21.76C82.92 22.76 85.24 25.08 86.24 28.68Z" fill="white"/>
</svg>
